<svg width="313" height="160" viewBox="0 0 313 160" fill="none" xmlns="http://www.w3.org/2000/svg">
<g clip-path="url(#clip0_208_864)">
<path d="M96.2432 144.516C96.2432 136.052 122.875 129.102 155.7 129.102C188.526 129.102 215.158 136.052 215.158 144.585C215.146 145.551 214.833 146.489 214.263 147.269C209.308 154.495 184.947 160 155.7 160C122.875 160 96.2432 153.05 96.2432 144.516Z" fill="#D291ED"/>
<path d="M84.4088 133.987H27.1537C25.6864 133.991 24.2605 134.474 23.0935 135.364L1.07237 152.636C0.844197 152.811 0.676262 153.053 0.591969 153.328C0.507676 153.603 0.511227 153.897 0.602126 154.17C0.693024 154.442 0.866742 154.68 1.09906 154.849C1.33138 155.018 1.61073 155.111 1.89816 155.114H62.3876C63.922 155.099 65.3951 154.51 66.5166 153.462L85.0281 135.57C85.163 135.446 85.2571 135.283 85.2982 135.104C85.3394 134.925 85.3256 134.738 85.2587 134.567C85.1918 134.396 85.0749 134.25 84.9233 134.146C84.7716 134.043 84.5923 133.987 84.4088 133.987Z" fill="#D291ED"/>
<path d="M311.569 133.987H254.245C252.778 133.991 251.352 134.474 250.185 135.364L228.164 152.637C227.936 152.811 227.768 153.053 227.684 153.328C227.599 153.603 227.603 153.897 227.694 154.17C227.785 154.442 227.959 154.68 228.191 154.849C228.423 155.018 228.703 155.111 228.99 155.114H289.479C291.014 155.099 292.487 154.51 293.608 153.462L312.12 135.57C312.267 135.457 312.375 135.301 312.428 135.123C312.481 134.945 312.477 134.755 312.416 134.58C312.355 134.405 312.24 134.253 312.088 134.147C311.936 134.041 311.755 133.985 311.569 133.987Z" fill="#D291ED"/>
<path d="M96.2432 141.695C96.2432 133.231 122.875 126.28 155.7 126.28C188.526 126.28 215.158 133.231 215.158 141.764C215.146 142.73 214.833 143.668 214.263 144.448C209.308 151.673 184.947 157.179 155.7 157.179C122.875 157.179 96.2432 150.228 96.2432 141.695Z" fill="#9B59B6"/>
<path d="M214.263 144.448C209.308 151.674 185.016 157.179 155.7 157.179C122.875 157.179 96.2432 150.229 96.2432 141.695C96.2432 141.695 106.566 154.151 153.636 154.151C194.1 154.22 210.409 146.581 214.263 144.448Z" fill="#4E2460"/>
<path d="M189.558 138.117C187.287 135.639 172.974 133.712 155.701 133.712C137.671 133.712 122.944 135.777 121.637 138.392C122.256 136.878 126.385 131.648 155.701 131.648C182.677 131.648 188.388 136.327 189.558 138.117Z" fill="#4E2460"/>
<path d="M84.8893 133.987L72.8464 47.8295C72.78 47.3858 72.5553 46.9811 72.2137 46.6902C71.8722 46.3993 71.437 46.2417 70.9884 46.2467H54.7478C54.4802 46.2483 54.216 46.3068 53.9727 46.4184C53.7295 46.53 53.5128 46.692 53.3371 46.8938C53.1613 47.0956 53.0305 47.3325 52.9534 47.5887C52.8763 47.845 52.8546 48.1147 52.8897 48.38L56.9499 80.9301C56.9892 81.2324 56.9633 81.5397 56.8739 81.8312C56.7844 82.1227 56.6335 82.3916 56.4314 82.6199C56.2292 82.8481 55.9805 83.0304 55.7019 83.1543C55.4234 83.2783 55.1215 83.3412 54.8166 83.3386H36.2362C35.6745 83.3422 35.1329 83.13 34.7231 82.7459C34.3133 82.3617 34.0667 81.8349 34.0341 81.2741L32.5201 48.1047C32.4967 47.6259 32.2913 47.1741 31.946 46.8416C31.6007 46.5091 31.1415 46.3209 30.6621 46.3155H15.4537C15.2024 46.3105 14.9528 46.3574 14.7206 46.4533C14.4883 46.5493 14.2783 46.6922 14.1039 46.8731C13.9294 47.0541 13.7942 47.2691 13.7068 47.5047C13.6193 47.7403 13.5815 47.9914 13.5957 48.2424L15.6602 104.947C15.7019 105.815 16.0747 106.634 16.7019 107.236C17.3291 107.837 18.1631 108.176 19.0322 108.181H60.3907L63.625 134.125H84.8893V133.987Z" fill="#4E2460"/>
<path d="M312.052 133.987L300.009 47.8295C299.943 47.3858 299.718 46.9811 299.376 46.6902C299.035 46.3993 298.6 46.2417 298.151 46.2467H281.91C281.643 46.2483 281.379 46.3068 281.135 46.4184C280.892 46.53 280.675 46.692 280.5 46.8938C280.324 47.0956 280.193 47.3325 280.116 47.5887C280.039 47.845 280.017 48.1147 280.052 48.38L284.113 80.9301C284.152 81.2324 284.126 81.5397 284.037 81.8312C283.947 82.1227 283.796 82.3916 283.594 82.6199C283.392 82.8481 283.143 83.0304 282.865 83.1543C282.586 83.2783 282.284 83.3412 281.979 83.3386H263.399C262.837 83.3422 262.296 83.13 261.886 82.7459C261.476 82.3617 261.229 81.8349 261.197 81.2741L259.683 48.1047C259.659 47.6259 259.454 47.1741 259.109 46.8416C258.763 46.5091 258.304 46.3209 257.825 46.3155H242.685C242.434 46.3105 242.184 46.3574 241.952 46.4533C241.72 46.5493 241.51 46.6922 241.335 46.8731C241.161 47.0541 241.026 47.2691 240.938 47.5047C240.851 47.7403 240.813 47.9914 240.827 48.2424L242.892 104.947C242.933 105.815 243.306 106.634 243.933 107.236C244.561 107.837 245.395 108.176 246.264 108.181H287.622L290.856 134.125H312.052V133.987Z" fill="#4E2460"/>
<path d="M72.3645 48.7242L63.2808 151.673C63.2048 152.608 62.7808 153.48 62.0927 154.117C61.4046 154.754 60.5025 155.11 59.5647 155.114H45.9391C45.4091 155.114 44.8852 155.002 44.402 154.784C43.9187 154.566 43.4872 154.249 43.1359 153.852C42.7846 153.455 42.5216 152.988 42.3642 152.482C42.2068 151.976 42.1587 151.442 42.223 150.916L47.9348 102.676L7.12676 103.364C6.59956 103.373 6.07692 103.265 5.59633 103.048C5.11573 102.832 4.6891 102.511 4.34704 102.11C4.00498 101.708 3.75597 101.236 3.61788 100.728C3.47979 100.219 3.45603 99.6856 3.54832 99.1664L3.68595 98.2718L13.045 48.1048C13.1712 47.4298 13.5289 46.8198 14.0565 46.3802C14.584 45.9405 15.2485 45.6987 15.9352 45.6963H28.9415C29.3674 45.7033 29.7869 45.8018 30.1715 45.9849C30.5561 46.1681 30.897 46.4316 31.171 46.7578C31.445 47.084 31.6458 47.4652 31.7598 47.8757C31.8738 48.2861 31.8983 48.7163 31.8318 49.1371L26.2577 80.7925C26.2049 81.0913 26.219 81.398 26.299 81.6907C26.3791 81.9833 26.523 82.2546 26.7204 82.4849C26.9179 82.7153 27.1639 82.899 27.4409 83.0228C27.7178 83.1467 28.0188 83.2075 28.3221 83.2011H47.7971L52.339 48.036C52.4343 47.3719 52.7644 46.7638 53.2693 46.322C53.7743 45.8802 54.4207 45.6338 55.0916 45.6274H69.6119C69.9961 45.6496 70.3721 45.7474 70.7185 45.9151C71.0649 46.0829 71.3748 46.3172 71.6305 46.6049C71.8862 46.8925 72.0826 47.2278 72.2085 47.5914C72.3345 47.9551 72.3875 48.34 72.3645 48.7242Z" fill="#9B59B6"/>
<path d="M48.2105 98.272L47.8664 102.676L7.0584 103.364C6.5312 103.373 6.00856 103.265 5.52797 103.049C5.04737 102.832 4.62074 102.511 4.27868 102.11C3.93662 101.709 3.68761 101.237 3.54952 100.728C3.41143 100.219 3.38767 99.6857 3.47996 99.1666L3.61759 98.272H48.2105Z" fill="#4E2460"/>
<path d="M72.3643 48.7242L63.2806 151.673C63.2046 152.608 62.7806 153.48 62.0925 154.117C61.4044 154.754 60.5023 155.11 59.5645 155.114H57.5L68.3041 45.6963H69.6116C69.9942 45.7053 70.3709 45.7918 70.7189 45.9507C71.067 46.1096 71.3792 46.3375 71.6366 46.6206C71.8939 46.9037 72.0911 47.2362 72.2162 47.5978C72.3413 47.9593 72.3917 48.3426 72.3643 48.7242Z" fill="#4E2460"/>
<path d="M26.1906 80.8614C26.1378 81.1602 26.1519 81.4669 26.2319 81.7596C26.312 82.0522 26.4559 82.3235 26.6533 82.5538C26.8508 82.7842 27.0968 82.9679 27.3738 83.0917C27.6508 83.2155 27.9517 83.2764 28.255 83.27H24.2637C23.9194 83.2722 23.5787 83.199 23.2657 83.0555C22.9527 82.912 22.6749 82.7017 22.4519 82.4393C22.2289 82.1769 22.066 81.8689 21.9748 81.5368C21.8836 81.2048 21.8663 80.8568 21.924 80.5173L28.0486 45.7651H28.9432C29.3692 45.7722 29.7886 45.8707 30.1732 46.0538C30.5579 46.2369 30.8987 46.5005 31.1727 46.8267C31.4467 47.1529 31.6475 47.5341 31.7615 47.9446C31.8755 48.355 31.9 48.7852 31.8335 49.2059L26.1906 80.8614Z" fill="#4E2460"/>
<path d="M299.454 48.7242L290.371 151.673C290.295 152.608 289.871 153.48 289.183 154.117C288.494 154.754 287.592 155.11 286.655 155.114H273.029C272.499 155.114 271.975 155.002 271.492 154.784C271.009 154.566 270.577 154.249 270.226 153.852C269.874 153.455 269.611 152.988 269.454 152.482C269.297 151.976 269.249 151.442 269.313 150.916L275.025 102.676L234.217 103.364C233.689 103.373 233.167 103.265 232.686 103.048C232.206 102.832 231.779 102.511 231.437 102.11C231.095 101.708 230.846 101.236 230.708 100.728C230.57 100.219 230.546 99.6856 230.638 99.1664L230.776 98.2718L240.135 48.1048C240.261 47.4298 240.619 46.8198 241.146 46.3802C241.674 45.9405 242.338 45.6987 243.025 45.6963H256.031C256.457 45.7033 256.877 45.8018 257.261 45.9849C257.646 46.1681 257.987 46.4316 258.261 46.7578C258.535 47.084 258.736 47.4652 258.85 47.8757C258.964 48.2861 258.988 48.7163 258.922 49.1371L253.348 80.7925C253.295 81.0913 253.309 81.398 253.389 81.6907C253.469 81.9833 253.613 82.2546 253.81 82.4849C254.008 82.7153 254.254 82.899 254.531 83.0228C254.808 83.1467 255.109 83.2075 255.412 83.2011H274.887L279.429 48.036C279.524 47.3719 279.854 46.7638 280.359 46.322C280.864 45.8802 281.511 45.6338 282.181 45.6274H296.702C297.09 45.6375 297.472 45.7271 297.824 45.8908C298.176 46.0545 298.491 46.2887 298.749 46.579C299.007 46.8693 299.203 47.2095 299.324 47.5785C299.446 47.9475 299.49 48.3374 299.454 48.7242Z" fill="#9B59B6"/>
<path d="M275.369 98.272L275.025 102.676L234.217 103.364C233.689 103.373 233.167 103.265 232.686 103.049C232.206 102.832 231.779 102.511 231.437 102.11C231.095 101.709 230.846 101.237 230.708 100.728C230.57 100.219 230.546 99.6857 230.638 99.1666L230.776 98.272H275.369Z" fill="#4E2460"/>
<path d="M299.455 48.7243L290.371 151.673C290.295 152.608 289.871 153.48 289.183 154.117C288.495 154.754 287.593 155.11 286.655 155.114H284.591L295.395 45.6964H296.702C297.089 45.6933 297.471 45.7717 297.825 45.9265C298.179 46.0813 298.496 46.309 298.756 46.5948C299.016 46.8806 299.212 47.218 299.333 47.5849C299.453 47.9519 299.495 48.3401 299.455 48.7243Z" fill="#4E2460"/>
<path d="M253.347 80.8614C253.294 81.1602 253.308 81.4669 253.388 81.7596C253.468 82.0522 253.612 82.3235 253.81 82.5538C254.007 82.7842 254.253 82.9679 254.53 83.0917C254.807 83.2155 255.108 83.2764 255.411 83.27H251.42C251.076 83.2722 250.735 83.199 250.422 83.0555C250.109 82.912 249.831 82.7017 249.608 82.4393C249.385 82.1769 249.222 81.8689 249.131 81.5368C249.04 81.2048 249.023 80.8568 249.08 80.5173L255.205 45.7651H256.099C256.525 45.7722 256.945 45.8707 257.329 46.0538C257.714 46.2369 258.055 46.5005 258.329 46.8267C258.603 47.1529 258.804 47.5341 258.918 47.9446C259.032 48.355 259.056 48.7852 258.99 49.2059L253.347 80.8614Z" fill="#4E2460"/>
<path opacity="0.28" d="M128.52 69.711L114.412 141.28C113.655 145.134 116.133 148.781 119.505 148.781H194.239C197.542 148.781 200.02 145.271 199.4 141.555L187.839 69.9863C187.357 67.096 185.224 65.0315 182.678 65.0315H133.681C131.203 64.9627 129.07 66.9584 128.52 69.711Z" fill="#D291ED"/>
<path d="M192.244 74.1861L199.057 96.8266C199.084 96.9409 199.135 97.048 199.208 97.1401C199.281 97.2323 199.373 97.3073 199.478 97.3598C199.583 97.4123 199.699 97.4411 199.816 97.4441C199.934 97.4471 200.05 97.4242 200.158 97.3771C200.343 97.305 200.496 97.1664 200.585 96.9884C200.674 96.8103 200.693 96.6054 200.64 96.4137L196.167 73.2226C196.096 72.9301 195.963 72.6563 195.776 72.42C195.59 72.1836 195.355 71.9902 195.087 71.853C194.819 71.7158 194.525 71.638 194.224 71.625C193.924 71.612 193.624 71.664 193.345 71.7775C192.902 71.9784 192.546 72.333 192.344 72.7757C192.141 73.2184 192.106 73.7193 192.244 74.1861Z" fill="#FEC272"/>
<path d="M179.375 82.3747L183.779 99.854C183.795 99.9275 183.826 99.9969 183.87 100.058C183.914 100.119 183.97 100.171 184.034 100.209C184.099 100.248 184.17 100.273 184.245 100.283C184.319 100.293 184.395 100.287 184.467 100.267C184.531 100.25 184.591 100.22 184.643 100.18C184.696 100.139 184.739 100.088 184.771 100.03C184.803 99.9725 184.823 99.9088 184.83 99.843C184.837 99.7773 184.831 99.7108 184.812 99.6475L181.99 81.8241C181.956 81.6232 181.876 81.4325 181.758 81.2662C181.64 81.0998 181.487 80.9621 181.308 80.863C181.13 80.764 180.932 80.7062 180.728 80.6939C180.525 80.6816 180.321 80.7151 180.132 80.7919C179.848 80.9345 179.62 81.1674 179.483 81.4539C179.346 81.7404 179.308 82.0643 179.375 82.3747Z" fill="#FEC272"/>
<path d="M121.983 76.3882L116.271 93.7987C116.25 93.8755 116.213 93.9468 116.162 94.0075C116.11 94.0682 116.046 94.1167 115.974 94.1496C115.901 94.1825 115.823 94.199 115.743 94.1978C115.664 94.1966 115.585 94.1778 115.514 94.1428C115.385 94.0862 115.281 93.9864 115.218 93.8607C115.155 93.7351 115.138 93.5915 115.17 93.4546L119.299 75.6312C119.352 75.4345 119.445 75.2512 119.574 75.0934C119.703 74.9356 119.863 74.8069 120.046 74.7159C120.228 74.6248 120.427 74.5734 120.63 74.5652C120.834 74.5569 121.037 74.5919 121.226 74.6678C121.542 74.8112 121.793 75.066 121.933 75.3834C122.073 75.7008 122.09 76.0586 121.983 76.3882Z" fill="#FEC272"/>
<path d="M133.337 81.755L125.905 114.099C125.889 114.172 125.859 114.242 125.815 114.303C125.771 114.364 125.715 114.415 125.651 114.454C125.586 114.493 125.514 114.518 125.44 114.528C125.365 114.538 125.289 114.532 125.217 114.512C125.153 114.495 125.093 114.465 125.041 114.424C124.989 114.384 124.946 114.333 124.913 114.275C124.881 114.217 124.861 114.153 124.854 114.088C124.847 114.022 124.854 113.955 124.873 113.892L130.722 81.2045C130.757 81.0035 130.836 80.8129 130.954 80.6465C131.072 80.4802 131.226 80.3425 131.404 80.2434C131.583 80.1444 131.781 80.0866 131.984 80.0743C132.188 80.062 132.392 80.0954 132.58 80.1723C132.888 80.2848 133.14 80.5135 133.282 80.8093C133.423 81.1052 133.443 81.4446 133.337 81.755Z" fill="#FEC272"/>
<path d="M149.096 85.5379L145.518 109.004C145.508 109.081 145.481 109.154 145.439 109.219C145.397 109.284 145.341 109.338 145.274 109.378C145.208 109.418 145.134 109.442 145.057 109.449C144.98 109.456 144.902 109.445 144.83 109.417C144.701 109.375 144.591 109.291 144.516 109.179C144.441 109.067 144.406 108.932 144.417 108.798L146.344 85.125C146.374 84.9274 146.447 84.7386 146.557 84.5719C146.667 84.4052 146.813 84.2645 146.983 84.1597C147.153 84.0549 147.344 83.9885 147.543 83.9651C147.742 83.9416 147.943 83.9617 148.133 84.024C148.296 84.06 148.45 84.1277 148.586 84.2233C148.723 84.3189 148.839 84.4405 148.929 84.5811C149.018 84.7218 149.079 84.8787 149.108 85.0428C149.137 85.207 149.133 85.3753 149.096 85.5379Z" fill="#FEC272"/>
<path d="M167.538 85.0593L168.433 122.289C168.432 122.367 168.414 122.444 168.382 122.514C168.349 122.585 168.303 122.648 168.244 122.7C168.186 122.752 168.118 122.791 168.044 122.815C167.969 122.839 167.891 122.847 167.814 122.839C167.683 122.816 167.563 122.749 167.476 122.649C167.388 122.549 167.338 122.422 167.332 122.289L164.786 85.0593C164.78 84.8588 164.819 84.6596 164.9 84.4759C164.98 84.2923 165.101 84.1288 165.252 83.9972C165.403 83.8657 165.582 83.7692 165.775 83.7149C165.968 83.6605 166.171 83.6496 166.368 83.6829C166.69 83.7472 166.98 83.918 167.193 84.1678C167.405 84.4175 167.527 84.7316 167.538 85.0593Z" fill="#FEC272"/>
<path d="M96.0385 51.2703C95.3456 50.4582 94.7667 49.5552 94.3181 48.5865L92.7354 37.9888L96.3826 41.3608L96.0385 51.2703Z" fill="#4E2460"/>
<path d="M198.712 54.8491C196.78 58.5165 194.348 61.8978 191.486 64.8963C185.293 71.5026 174.833 79.0036 159.28 79.0036C148.338 79.0036 140.218 75.3563 134.438 70.9521C128.997 66.8366 124.649 61.4491 121.775 55.262L198.712 54.8491Z" fill="#4E2460"/>
<path d="M198.712 54.8491C196.78 58.5165 194.348 61.8978 191.486 64.8963C185.05 67.3062 178.351 68.9462 171.529 69.7822C155.564 71.9155 143.108 71.7779 134.438 70.9521C128.997 66.8366 124.649 61.4491 121.775 55.262L198.712 54.8491Z" fill="#072359"/>
<path d="M222.936 37.5761C222.567 40.8484 221.969 44.0907 221.147 47.2792C220.913 48.1581 220.542 48.9944 220.046 49.7566C218.6 52.0963 215.848 54.6425 211.375 57.0511C210.618 57.464 209.723 57.8769 208.829 58.2898C208.14 58.6339 207.452 58.9091 206.695 59.2532C205.663 59.6661 204.631 60.079 203.53 60.4919C199.032 62.024 194.433 63.2426 189.766 64.1392C189.354 64.208 189.009 64.2768 188.597 64.3456C187.564 64.5521 186.326 64.6897 185.018 64.8273C179.513 65.4467 172.218 65.8596 164.442 65.9972C162.997 65.9972 161.552 66.066 160.107 66.066C152.743 66.1348 145.311 65.9284 138.842 65.5843C137.466 65.5155 136.09 65.4467 134.851 65.309C131.665 65.1067 128.494 64.716 125.354 64.1392C121.845 63.451 118.679 62.694 115.858 61.8682C114.688 61.5242 113.587 61.1801 112.486 60.836C103.953 58.0145 98.7914 54.5737 96.1076 51.4082C95.7202 50.9835 95.3746 50.5226 95.0754 50.0319C94.7929 49.6261 94.5618 49.1869 94.3872 48.7243C94.166 48.2891 94.004 47.8262 93.9055 47.348C93.3184 44.9925 92.8817 42.6021 92.598 40.1911C92.3227 37.9202 92.2539 36.4062 92.2539 36.4062L157.629 41.2922L223.005 37.6449L222.936 37.5761Z" fill="#D291ED"/>
<path d="M222.867 37.4386C222.748 38.1436 222.411 38.7935 221.904 39.2967C220.183 41.2923 216.054 44.2514 209.035 46.9353C208.14 47.2793 207.177 47.6234 206.145 47.9675C205.663 48.1051 205.181 48.3116 204.7 48.4492C203.667 48.7933 202.566 49.1374 201.396 49.4126C196.899 50.6731 192.325 51.6386 187.702 52.3029C186.463 52.5094 185.156 52.7158 183.779 52.8534C177.318 53.6719 170.817 54.1313 164.304 54.2298C162.928 54.2298 161.483 54.2986 160.038 54.2986H159.969C152.606 54.2986 145.793 53.9545 139.668 53.404C138.292 53.2663 136.916 53.1287 135.608 52.9911C129.586 52.328 123.61 51.2938 117.716 49.8943C116.546 49.6191 115.376 49.275 114.275 48.9997C104.021 46.1783 97.2774 42.6686 94.1807 39.7784C93.6392 39.2832 93.1545 38.7292 92.7356 38.1268C92.3606 37.6287 92.1448 37.0291 92.1162 36.4064C92.1162 31.5204 111.385 21.1292 160.313 21.1292C209.241 21.0604 222.867 34.0666 222.867 37.4386Z" fill="#4E2460"/>
<path d="M132.099 26.7033L96.3143 41.3612C94.9487 40.4108 93.7214 39.2761 92.667 37.9892L130.929 26.084L132.099 26.7033Z" fill="#072359"/>
<path d="M222.868 37.5075C222.73 38.1859 222.395 38.8084 221.904 39.2967L185.156 26.7034L186.326 26.1528L222.868 37.5075Z" fill="#072359"/>
<path d="M138.155 30.4882L117.716 49.8256C116.546 49.5503 115.376 49.2063 114.275 48.931L136.916 30.4194L138.155 30.4882Z" fill="#072359"/>
<path d="M149.372 32.7592L139.669 53.4041C138.292 53.2665 136.916 53.1288 135.608 52.9912L148.133 32.6904L149.372 32.7592Z" fill="#072359"/>
<path d="M187.771 52.3719C186.532 52.5783 185.156 52.7848 183.848 52.9224L174.352 32.7592L175.659 32.6904L187.771 52.3719Z" fill="#072359"/>
<path d="M164.304 54.2988C162.928 54.2988 161.483 54.3676 160.038 54.3676H159.969L161.62 34.0669L162.928 33.998L164.304 54.2988Z" fill="#072359"/>
<path d="M208.966 46.9353C208.072 47.2794 207.108 47.6235 206.076 47.9676L181.371 30.4882L182.679 30.4194L208.966 46.9353Z" fill="#072359"/>
<path d="M164.374 65.8599C162.928 65.8599 161.483 65.9287 160.038 65.9287V54.2988L164.305 54.23L164.374 65.8599Z" fill="#4E2460"/>
<path d="M188.459 64.2079C187.358 64.4144 186.188 64.552 184.88 64.6896L183.779 52.8533L187.702 52.3027L188.459 64.2079Z" fill="#4E2460"/>
<path d="M211.306 56.9822C210.549 57.3951 209.654 57.808 208.76 58.2209L206.145 47.8985L208.966 46.9351L211.306 56.9822Z" fill="#4E2460"/>
<path d="M139.668 53.4041L138.842 65.4469C137.466 65.3781 136.089 65.3093 134.851 65.1717L135.676 52.9912L139.668 53.4041Z" fill="#4E2460"/>
<path d="M117.716 49.8258L115.789 61.731C114.619 61.3869 113.518 61.0428 112.417 60.6987L114.206 48.9312L117.716 49.8258Z" fill="#4E2460"/>
<path d="M96.383 41.4989L95.0067 49.9633C94.7242 49.5575 94.4931 49.1184 94.3185 48.6558C94.0973 48.2205 93.9353 47.7577 93.8368 47.2795C93.2497 44.924 92.813 42.5335 92.5293 40.1226L92.7357 38.0581C92.7357 38.0581 93.9056 39.4344 94.3873 39.9161C94.8002 40.329 96.383 41.4989 96.383 41.4989Z" fill="#4E2460"/>
<path d="M157.078 42.2556C177.336 42.2556 193.757 37.6033 193.757 31.8644C193.757 26.1255 177.336 21.4731 157.078 21.4731C136.821 21.4731 120.399 26.1255 120.399 31.8644C120.399 37.6033 136.821 42.2556 157.078 42.2556Z" fill="#072359"/>
<path d="M190.592 30.2127C190.592 30.2127 187.908 33.2406 181.302 35.8556C176.416 37.7824 169.397 39.434 159.763 39.434C155.146 39.4645 150.537 39.0497 145.999 38.1953C133.131 35.718 127.557 30.3503 127.557 30.3503C127.557 30.3503 130.378 9.43017 147.995 2.3421C152.071 0.745309 156.417 -0.0491578 160.795 0.00235362C185.018 0.00235362 190.592 30.2127 190.592 30.2127Z" fill="#D291ED"/>
<path d="M145.999 38.1955C133.131 35.7181 127.557 30.3505 127.557 30.3505C127.557 30.3505 130.378 9.43035 147.995 2.34229C144.554 5.23256 141.182 11.0131 140.632 20.4409C140.081 27.4602 141.733 33.3096 145.999 38.1955Z" fill="#D291ED"/>
<path d="M190.592 30.2127C190.592 30.2127 187.908 33.2406 181.302 35.8556C180.613 33.3624 179.739 30.9241 178.687 28.5611C178.687 28.5611 172.218 29.9374 169.328 23.8128C166.438 17.6881 173.388 13.2839 173.388 13.2839C173.388 13.2839 171.737 7.98503 163.203 4.54422C154.67 1.10341 147.857 2.3421 147.857 2.3421C151.934 0.745309 156.28 -0.0491577 160.657 0.00235362C185.018 0.00235362 190.592 30.2127 190.592 30.2127Z" fill="#D291ED"/>
<path d="M162.859 17.2752C163.885 17.2752 164.717 16.4742 164.717 15.486C164.717 14.4978 163.885 13.6968 162.859 13.6968C161.833 13.6968 161.001 14.4978 161.001 15.486C161.001 16.4742 161.833 17.2752 162.859 17.2752Z" fill="#D291ED"/>
<path d="M156.39 18.9958C157.189 18.9958 157.836 18.3796 157.836 17.6195C157.836 16.8594 157.189 16.2432 156.39 16.2432C155.592 16.2432 154.945 16.8594 154.945 17.6195C154.945 18.3796 155.592 18.9958 156.39 18.9958Z" fill="#D291ED"/>
<path d="M160.726 28.2856C162.284 28.2856 163.547 27.0532 163.547 25.5329C163.547 24.0127 162.284 22.7803 160.726 22.7803C159.168 22.7803 157.904 24.0127 157.904 25.5329C157.904 27.0532 159.168 28.2856 160.726 28.2856Z" fill="#D291ED"/>
</g>
<defs>
<clipPath id="clip0_208_864">
<rect width="311.935" height="160" fill="white" transform="translate(0.532227)"/>
</clipPath>
</defs>
</svg>
