<svg width="25" height="24" viewBox="0 0 25 24" fill="none" xmlns="http://www.w3.org/2000/svg">
<path d="M5.11297 8.8124C5.19325 8.81219 5.27354 8.81189 5.35382 8.81152C5.57313 8.81074 5.79243 8.81112 6.01173 8.8117C6.24887 8.81213 6.4875 8.81147 6.72167 8.81096C7.16027 8.81018 7.59515 8.81025 8.03375 8.81076C8.4389 8.81123 8.84033 8.81135 9.24548 8.81113C9.27232 8.81111 9.29901 8.8111 9.32688 8.81108C9.43579 8.81103 9.5447 8.81097 9.6536 8.81091C10.6758 8.81033 11.6979 8.81085 12.7164 8.81186C13.6233 8.81274 14.5303 8.81266 15.4372 8.81177C16.4556 8.81077 17.4778 8.81037 18.4963 8.81095C18.6052 8.81101 18.7137 8.81107 18.8226 8.81113C18.8494 8.81114 18.8761 8.81116 18.9036 8.81117C19.3088 8.81139 19.7102 8.81114 20.1154 8.81067C20.5763 8.81013 21.0335 8.81029 21.4944 8.81128C21.7285 8.81177 21.9627 8.81196 22.1969 8.81134C22.4113 8.81079 22.6243 8.8111 22.8399 8.81209C22.9172 8.8123 22.9949 8.81219 23.0722 8.81174C23.6335 8.8087 24.139 8.83807 24.5627 9.25628C24.7917 9.53533 24.9864 9.85398 24.9864 10.2201C24.9868 10.2776 24.9868 10.2776 24.9872 10.3363C24.9874 10.399 24.9874 10.399 24.9875 10.4629C24.9879 10.5294 24.9879 10.5294 24.9883 10.597C24.989 10.7434 24.9895 10.8902 24.9898 11.0378C24.99 11.0882 24.9901 11.139 24.9903 11.1895C24.991 11.4274 24.9915 11.6639 24.9918 11.903C24.9922 12.1768 24.9932 12.4521 24.9947 12.7248C24.9958 12.937 24.9964 13.1507 24.9965 13.3599C24.9966 13.4865 24.9969 13.6128 24.9978 13.7409C24.9987 13.8821 24.9987 14.0237 24.9984 14.1668C24.9989 14.2082 24.9994 14.2497 24.9999 14.2923C24.997 14.7331 24.8415 15.0544 24.5427 15.3719C24.1599 15.7376 23.7361 15.794 23.2306 15.794C23.1819 15.7941 23.1819 15.7941 23.1321 15.7942C23.0236 15.7944 22.9147 15.7943 22.8061 15.7942C22.7273 15.7943 22.6485 15.7944 22.5697 15.7945C22.3534 15.7947 22.1386 15.7947 21.9193 15.7946C21.6858 15.7946 21.4509 15.7948 21.2205 15.795C20.7633 15.7953 20.3061 15.7954 19.8489 15.7955C19.4772 15.7955 19.1055 15.7956 18.7338 15.7957C18.6268 15.7957 18.5197 15.7957 18.4127 15.7958C18.3729 15.7958 18.3729 15.7958 18.332 15.7958C17.5849 15.796 16.8341 15.7962 16.087 15.7962C16.0588 15.7962 16.0305 15.7962 16.0015 15.7962C15.8588 15.7962 15.7157 15.7961 15.574 15.7961C15.5456 15.7961 15.5172 15.7961 15.4882 15.7961C15.4309 15.7961 15.3733 15.7961 15.3161 15.7961C14.424 15.7961 13.5282 15.7964 12.6362 15.7969C11.6326 15.7975 10.629 15.7978 9.62542 15.7978C9.51837 15.7978 9.41132 15.7978 9.30428 15.7978C9.27792 15.7978 9.25149 15.7978 9.22436 15.7978C8.80063 15.7978 8.37689 15.798 7.95316 15.7983C7.52571 15.7986 7.10198 15.7987 6.67453 15.7984C6.4437 15.7983 6.21362 15.7983 5.98317 15.7986C5.77205 15.7989 5.55944 15.7989 5.34757 15.7985C5.271 15.7985 5.1948 15.7986 5.11823 15.7988C5.01416 15.799 4.91046 15.7988 4.80638 15.7985C4.77679 15.7987 4.74728 15.7989 4.7168 15.7991C4.19271 15.7958 3.76898 15.6478 3.39356 15.2761C3.25864 15.127 3.16349 14.9664 3.08729 14.7792C3.07458 14.7494 3.06186 14.7195 3.04863 14.6888C2.99845 14.5017 3.00217 14.3235 3.00254 14.1285C3.00235 14.0859 3.00216 14.0437 3.00196 13.9996C3.00145 13.8592 3.00149 13.7191 3.00157 13.5775C3.00143 13.4796 3.00127 13.3821 3.00109 13.2842C3.00078 13.0795 3.00082 12.8733 3.00102 12.6716C3.00124 12.4355 3.00078 12.2009 2.99999 11.9618C2.99925 11.734 2.99914 11.5061 2.99927 11.2782C2.99925 11.1815 2.99906 11.0851 2.99869 10.9883C2.99822 10.8531 2.99848 10.7179 2.99891 10.5811C2.99863 10.5415 2.99834 10.5019 2.99805 10.4609C3.00144 9.97522 3.18687 9.55309 3.52957 9.21315C3.99791 8.8097 4.52943 8.8097 5.10928 8.81343L5.11297 8.8124Z" fill="#FCFDFF"/>
<path d="M1.72132 0.818134C1.75396 0.818046 1.78674 0.817959 1.82019 0.817868C1.93021 0.817618 2.03986 0.817635 2.14989 0.81765C2.22943 0.817527 2.3086 0.817388 2.38814 0.817236C2.6067 0.816862 2.82674 0.816724 3.04233 0.816623C3.27798 0.816477 3.51438 0.816119 3.74855 0.815794C4.29123 0.815092 4.8339 0.814711 5.37658 0.814393C5.64457 0.814236 5.91182 0.814041 6.17944 0.813844C7.09753 0.813175 8.01562 0.812615 8.93371 0.812338C8.99132 0.812321 9.04894 0.812303 9.10655 0.812285C9.13513 0.812276 9.16379 0.812267 9.19315 0.812258C9.33774 0.812213 9.48271 0.812168 9.62804 0.812122C9.65677 0.812113 9.68565 0.812104 9.71502 0.812095C10.6443 0.8118 11.5772 0.810926 12.5065 0.809712C13.4914 0.80843 14.4764 0.807694 15.4614 0.807571C15.5696 0.807556 15.6778 0.807538 15.7859 0.807518C15.8257 0.807511 15.8257 0.807511 15.8666 0.807504C16.294 0.807417 16.7215 0.806832 17.1527 0.806066C17.5838 0.805308 18.015 0.805117 18.4424 0.805461C18.6755 0.805631 18.9071 0.805559 19.1412 0.804833C19.355 0.804176 19.5687 0.804213 19.7805 0.804792C19.8575 0.804881 19.9348 0.804719 20.0117 0.804277C20.5507 0.801363 21.0785 0.81638 21.506 1.19652C21.7862 1.49201 21.9929 1.82784 21.9929 2.2425C21.9933 2.29965 21.9933 2.29965 21.9937 2.35756C21.9938 2.41994 21.9938 2.41994 21.994 2.48345C21.9944 2.54919 21.9944 2.54919 21.9947 2.61643C21.9955 2.76175 21.9959 2.90707 21.9963 3.0535C21.9964 3.10356 21.9966 3.15399 21.9967 3.20405C21.9974 3.43977 21.998 3.67474 21.9983 3.91009C21.9986 4.18167 21.9996 4.45175 22.0011 4.72446C22.0022 4.93477 22.0028 5.14658 22.0029 5.35578C22.003 5.4813 22.0034 5.60644 22.0043 5.73308C22.0052 5.87317 22.0051 6.01325 22.0049 6.15521C22.0054 6.1963 22.0058 6.23739 22.0063 6.2796C22.0034 6.71667 21.8487 7.04541 21.5566 7.36294C21.0808 7.82616 20.4601 7.78133 19.8431 7.78133C19.7643 7.78142 19.6855 7.78153 19.6067 7.78168C19.3907 7.78199 19.1755 7.78184 18.9599 7.78161C18.7269 7.78144 18.4953 7.7817 18.2611 7.78191C17.83 7.78222 17.4025 7.78219 16.9713 7.78199C16.5736 7.7818 16.1759 7.78175 15.7782 7.78184C15.7518 7.78185 15.7254 7.78185 15.6983 7.78186C15.5912 7.78188 15.4842 7.7819 15.3768 7.78193C14.3732 7.78216 13.3659 7.78195 12.3623 7.78155C11.4702 7.78119 10.5782 7.78123 9.68609 7.78158C8.68251 7.78198 7.68265 7.78214 6.67907 7.78191C6.57202 7.78189 6.46534 7.78186 6.35829 7.78184C6.33198 7.78183 6.30551 7.78183 6.27838 7.78182C5.88066 7.78174 5.48295 7.78184 5.08524 7.78202C4.63177 7.78224 4.18201 7.78218 3.72854 7.78178C3.49809 7.78158 3.26764 7.78151 3.03719 7.78175C2.82607 7.78198 2.61346 7.78185 2.40531 7.78146C2.32911 7.78137 2.25291 7.78141 2.17671 7.7816C1.50766 7.78307 0.935248 7.78029 0.414874 7.2997C0.164351 7.03559 0.0171593 6.68705 0.0134423 6.32096C0.0131762 6.28461 0.0129107 6.24812 0.0126357 6.21076C0.0125357 6.17116 0.0124358 6.13156 0.0123328 6.09085C0.0120886 6.04901 0.0118459 6.00717 0.0115931 5.96383C0.0108609 5.82487 0.0104261 5.6859 0.0100544 5.54544C0.00990273 5.498 0.00975139 5.45056 0.00959342 5.40125C0.00889835 5.17561 0.0083557 4.94923 0.00804719 4.7251C0.00768479 4.46547 0.00670909 4.20584 0.00520372 3.94808C0.00393996 3.72245 0.00350501 3.49607 0.00335633 3.27193C0.00317569 3.1763 0.00274675 3.08067 0.0020554 2.98541C0.00114474 2.8513 0.00118568 2.71719 0.00144215 2.58196C0.000728498 2.52331 0.000728524 2.52331 0 2.46354C0.00323376 1.99659 0.159458 1.61929 0.46462 1.27187C0.802492 0.937906 1.25633 0.816124 1.71724 0.81986L1.72132 0.818134Z" fill="#FCFDFF"/>
<path d="M1.72137 16.8814C1.75415 16.8813 1.78679 16.8812 1.82061 16.8812C1.93101 16.881 2.04103 16.8811 2.15142 16.8812C2.23096 16.8811 2.31088 16.881 2.39042 16.8809C2.60972 16.8807 2.82902 16.8807 3.04832 16.8807C3.28472 16.8808 3.52038 16.8805 3.75826 16.8804C4.22288 16.8801 4.68379 16.88 5.14841 16.8799C5.52382 16.8799 5.90295 16.8798 6.27836 16.8797C6.38653 16.8797 6.49506 16.8797 6.60323 16.8796C6.63017 16.8796 6.65712 16.8796 6.685 16.8796C7.44326 16.8794 8.20152 16.8792 8.95606 16.8792C8.98461 16.8792 9.0133 16.8792 9.04267 16.8792C9.18763 16.8792 9.33222 16.8792 9.47755 16.8792C9.50632 16.8792 9.53516 16.8792 9.56453 16.8793C9.62251 16.8793 9.68087 16.8793 9.73885 16.8793C10.6421 16.8793 11.549 16.879 12.4522 16.8785C13.467 16.8779 14.4854 16.8776 15.5001 16.8776C15.6087 16.8776 15.7168 16.8776 15.8254 16.8776C15.8521 16.8776 15.8789 16.8776 15.9064 16.8776C16.3376 16.8776 16.765 16.8774 17.1962 16.8771C17.6274 16.8768 18.0585 16.8767 18.4897 16.877C18.7235 16.8771 18.958 16.8771 19.1922 16.8768C19.4063 16.8765 19.6196 16.8765 19.8352 16.8769C19.9125 16.8769 19.9902 16.8768 20.0675 16.8766C20.1727 16.8764 20.2779 16.8766 20.3831 16.8769C20.4285 16.8766 20.4285 16.8766 20.4746 16.8763C20.8648 16.8787 21.244 16.9951 21.5302 17.2686C21.8814 17.6533 22.0022 18.0157 21.9985 18.5312C21.9987 18.5753 21.9989 18.619 21.9991 18.6642C21.9996 18.8084 21.9993 18.953 21.9989 19.0975C21.9989 19.1984 21.9991 19.2992 21.9992 19.4001C21.9994 19.6112 21.9991 19.8222 21.9986 20.0314C21.998 20.2746 21.9982 20.5171 21.9988 20.7599C21.9993 20.9695 21.9994 21.1783 21.9991 21.3875C21.9989 21.5122 21.9989 21.637 21.9993 21.761C21.9996 21.9004 21.9991 22.0397 21.9985 22.1794C21.9987 22.2201 21.999 22.2609 21.9992 22.3031C21.9955 22.7514 21.8843 23.0651 21.5717 23.3864C21.2376 23.7039 20.9213 23.7973 20.4678 23.7973C20.4347 23.7974 20.4016 23.7975 20.3674 23.7976C20.2559 23.7978 20.1444 23.7978 20.0329 23.7978C19.9523 23.7979 19.872 23.7981 19.7913 23.7982C19.5698 23.7986 19.349 23.7987 19.126 23.7988C18.887 23.799 18.6465 23.7993 18.4086 23.7997C17.8585 23.8004 17.3084 23.8008 16.7583 23.8011C16.4866 23.8012 16.2156 23.8014 15.9443 23.8016C15.015 23.8023 14.0821 23.8028 13.1528 23.8031C13.0945 23.8031 13.0361 23.8032 12.9778 23.8032C12.9343 23.8032 12.9343 23.8032 12.89 23.8032C12.7432 23.8033 12.5964 23.8033 12.4514 23.8033C12.4076 23.8034 12.4076 23.8034 12.3633 23.8034C11.4192 23.8037 10.4751 23.8045 9.53101 23.8058C8.53115 23.807 7.53501 23.8078 6.53514 23.8079C6.42549 23.8079 6.31584 23.8079 6.20619 23.8079C6.16568 23.808 6.16568 23.808 6.12442 23.808C5.68954 23.808 5.25465 23.8086 4.82348 23.8094C4.3886 23.8102 3.95 23.8103 3.51511 23.81C3.27872 23.8098 3.04306 23.8099 2.80517 23.8106C2.58885 23.8113 2.37401 23.8113 2.15471 23.8107C2.07628 23.8106 1.99822 23.8107 1.91979 23.8112C1.34367 23.8142 0.864178 23.7671 0.429294 23.348C0.282474 23.1885 0.17431 23.0222 0.0936521 22.8212C0.0809773 22.7914 0.0683025 22.7615 0.0553675 22.7308C0.00518849 22.5444 0.00853368 22.3666 0.00853368 22.1742C0.0082839 22.132 0.00803571 22.0894 0.00777552 22.0461C0.0070693 21.9064 0.00692431 21.7667 0.00684254 21.6277C0.00660354 21.5302 0.00635194 21.4327 0.00609176 21.3356C0.00561599 21.1312 0.00550435 20.9284 0.00555267 20.7229C0.00559727 20.4876 0.00481305 20.2522 0.00363849 20.0169C0.00254199 19.7898 0.00228176 19.5612 0.00232636 19.337C0.00223901 19.241 0.00191381 19.1446 0.00133397 19.0486C0.000601727 18.9138 0.000821061 18.7785 0.00126747 18.6452C0.000851168 18.6059 0.000431167 18.5667 0 18.5264C0.00346421 18.1117 0.125633 17.7083 0.393998 17.3907C0.80658 17.0314 1.17828 16.879 1.72095 16.8827L1.72137 16.8814Z" fill="#FCFDFF"/>
<path d="M5.11297 8.8124C5.19325 8.81219 5.27354 8.81189 5.35382 8.81152C5.57313 8.81074 5.79243 8.81112 6.01173 8.8117C6.24887 8.81213 6.4875 8.81147 6.72167 8.81096C7.16027 8.81018 7.59515 8.81025 8.03375 8.81076C8.4389 8.81123 8.84033 8.81135 9.24548 8.81113C9.27232 8.81111 9.29901 8.8111 9.32688 8.81108C9.43579 8.81103 9.5447 8.81097 9.6536 8.81091C10.6758 8.81033 11.6979 8.81085 12.7164 8.81186C13.6233 8.81274 14.5303 8.81266 15.4372 8.81177C16.4556 8.81077 17.4778 8.81037 18.4963 8.81095C18.6052 8.81101 18.7137 8.81107 18.8226 8.81113C18.8494 8.81114 18.8761 8.81116 18.9036 8.81117C19.3088 8.81139 19.7102 8.81114 20.1154 8.81067C20.5763 8.81013 21.0335 8.81029 21.4944 8.81128C21.7285 8.81177 21.9627 8.81196 22.1969 8.81134C22.4113 8.81079 22.6243 8.8111 22.8399 8.81209C22.9172 8.8123 22.9949 8.81219 23.0722 8.81174C23.6335 8.8087 24.139 8.83807 24.5627 9.25628C24.7917 9.53533 24.9864 9.85398 24.9864 10.2201C24.9868 10.2776 24.9868 10.2776 24.9872 10.3363C24.9874 10.399 24.9874 10.399 24.9875 10.4629C24.9879 10.5294 24.9879 10.5294 24.9883 10.597C24.989 10.7434 24.9895 10.8902 24.9898 11.0378C24.99 11.0882 24.9901 11.139 24.9903 11.1895C24.991 11.4274 24.9915 11.6639 24.9918 11.903C24.9922 12.1768 24.9932 12.4521 24.9947 12.7248C24.9958 12.937 24.9964 13.1507 24.9965 13.3599C24.9966 13.4865 24.9969 13.6128 24.9978 13.7409C24.9987 13.8821 24.9987 14.0237 24.9984 14.1668C24.9989 14.2082 24.9994 14.2497 24.9999 14.2923C24.997 14.7331 24.8415 15.0544 24.5427 15.3719C24.1599 15.7376 23.7361 15.794 23.2306 15.794C23.1819 15.7941 23.1819 15.7941 23.1321 15.7942C23.0236 15.7944 22.9147 15.7943 22.8061 15.7942C22.7273 15.7943 22.6485 15.7944 22.5697 15.7945C22.3534 15.7947 22.1386 15.7947 21.9193 15.7946C21.6858 15.7946 21.4509 15.7948 21.2205 15.795C20.7633 15.7953 20.3061 15.7954 19.8489 15.7955C19.4772 15.7955 19.1055 15.7956 18.7338 15.7957C18.6268 15.7957 18.5197 15.7957 18.4127 15.7958C18.3729 15.7958 18.3729 15.7958 18.332 15.7958C17.5849 15.796 16.8341 15.7962 16.087 15.7962C16.0588 15.7962 16.0305 15.7962 16.0015 15.7962C15.8588 15.7962 15.7157 15.7961 15.574 15.7961C15.5456 15.7961 15.5172 15.7961 15.4882 15.7961C15.4309 15.7961 15.3733 15.7961 15.3161 15.7961C14.424 15.7961 13.5282 15.7964 12.6362 15.7969C11.6326 15.7975 10.629 15.7978 9.62542 15.7978C9.51837 15.7978 9.41132 15.7978 9.30428 15.7978C9.27792 15.7978 9.25149 15.7978 9.22436 15.7978C8.80063 15.7978 8.37689 15.798 7.95316 15.7983C7.52571 15.7986 7.10198 15.7987 6.67453 15.7984C6.4437 15.7983 6.21362 15.7983 5.98317 15.7986C5.77205 15.7989 5.55944 15.7989 5.34757 15.7985C5.271 15.7985 5.1948 15.7986 5.11823 15.7988C5.01416 15.799 4.91046 15.7988 4.80638 15.7985C4.77679 15.7987 4.74728 15.7989 4.7168 15.7991C4.19271 15.7958 3.76898 15.6478 3.39356 15.2761C3.25864 15.127 3.16349 14.9664 3.08729 14.7792C3.07458 14.7494 3.06186 14.7195 3.04863 14.6888C2.99845 14.5017 3.00217 14.3235 3.00254 14.1285C3.00235 14.0859 3.00216 14.0437 3.00196 13.9996C3.00145 13.8592 3.00149 13.7191 3.00157 13.5775C3.00143 13.4796 3.00127 13.3821 3.00109 13.2842C3.00078 13.0795 3.00082 12.8733 3.00102 12.6716C3.00124 12.4355 3.00078 12.2009 2.99999 11.9618C2.99925 11.734 2.99914 11.5061 2.99927 11.2782C2.99925 11.1815 2.99906 11.0851 2.99869 10.9883C2.99822 10.8531 2.99848 10.7179 2.99891 10.5811C2.99863 10.5415 2.99834 10.5019 2.99805 10.4609C3.00144 9.97522 3.18687 9.55309 3.52957 9.21315C3.99791 8.8097 4.52943 8.8097 5.10928 8.81343L5.11297 8.8124ZM4.02018 9.95551C3.86704 10.1845 3.85031 10.3926 3.85292 10.6615C3.85272 10.7011 3.85251 10.7411 3.85231 10.7818C3.85184 10.9122 3.85245 11.043 3.85312 11.1741C3.85312 11.2652 3.85306 11.3564 3.85296 11.4471C3.85291 11.6377 3.85337 11.8282 3.85422 12.0187C3.85528 12.2626 3.85518 12.5081 3.8547 12.7509C3.85445 12.9388 3.85473 13.1282 3.8552 13.315C3.85537 13.405 3.85538 13.495 3.85523 13.5851C3.85512 13.7109 3.85574 13.8365 3.85655 13.9624C3.85638 13.9994 3.85621 14.0363 3.85604 14.0744C3.85862 14.3157 3.8818 14.5115 4.04821 14.6983C4.0704 14.7157 4.09244 14.7331 4.11549 14.7509C4.13775 14.769 4.16009 14.787 4.18314 14.8055C4.32475 14.9078 4.46154 14.8918 4.62917 14.8914C4.67861 14.8915 4.67861 14.8915 4.72879 14.8917C4.83992 14.8919 4.95143 14.8919 5.06257 14.8919C5.14248 14.892 5.22277 14.8922 5.30268 14.8923C5.52384 14.8927 5.745 14.8928 5.9643 14.8929C6.20219 14.8931 6.44007 14.8934 6.67796 14.8937C7.22435 14.8945 7.77446 14.8948 8.32086 14.8951C8.59145 14.8953 8.86353 14.8955 9.13487 14.8957C10.0604 14.8964 10.9859 14.8969 11.9152 14.8972C11.9735 14.8972 12.0315 14.8972 12.0899 14.8973C12.133 14.8973 12.133 14.8973 12.1772 14.8973C12.3233 14.8973 12.4697 14.8974 12.6158 14.8974C12.6448 14.8974 12.6738 14.8974 12.7039 14.8974C13.6443 14.8977 14.5847 14.8986 15.5251 14.8998C16.5175 14.9011 17.5136 14.9018 18.5061 14.902C18.615 14.902 18.7243 14.902 18.8332 14.902C18.86 14.902 18.8871 14.902 18.9146 14.902C19.3457 14.9021 19.7806 14.9027 20.2118 14.9035C20.6467 14.9042 21.0816 14.9044 21.5164 14.9041C21.7521 14.9039 21.9885 14.904 22.2227 14.9047C22.4382 14.9054 22.6538 14.9053 22.8694 14.9047C22.9475 14.9047 23.0255 14.9048 23.104 14.9053C23.2099 14.9058 23.3158 14.9055 23.4218 14.9049C23.4523 14.9053 23.4831 14.9056 23.5143 14.906C23.7098 14.9037 23.8191 14.8657 23.9752 14.7368C24.1079 14.5896 24.1283 14.4548 24.1298 14.2624C24.1304 14.209 24.1304 14.209 24.131 14.1548C24.1313 14.0965 24.1313 14.0965 24.1316 14.0375C24.132 13.9964 24.1323 13.9553 24.1327 13.9131C24.1338 13.7771 24.1346 13.6415 24.1353 13.5059C24.1356 13.4596 24.1358 13.4129 24.1361 13.3651C24.137 13.1697 24.1379 12.9728 24.1385 12.7786C24.1393 12.4995 24.1408 12.222 24.1434 11.9418C24.1454 11.7214 24.1461 11.501 24.1465 11.2806C24.1468 11.1872 24.1475 11.0938 24.1486 11.0001C24.15 10.8689 24.15 10.7382 24.1498 10.6078C24.1505 10.5693 24.1512 10.5312 24.152 10.4916C24.1493 10.2212 24.0784 10.0508 23.9007 9.84537C23.6926 9.68212 23.4659 9.69034 23.2094 9.69109C23.1772 9.69101 23.1451 9.69094 23.112 9.69086C23.0035 9.69065 22.8953 9.6907 22.7868 9.69075C22.7083 9.69066 22.6303 9.69054 22.5519 9.69042C22.3363 9.69012 22.1207 9.69005 21.9051 9.69002C21.6728 9.68995 21.4405 9.68967 21.21 9.68942C20.6748 9.68889 20.1395 9.68867 19.608 9.6885C19.3437 9.68841 19.0802 9.68828 18.8163 9.68814C17.9131 9.68766 17.0099 9.68725 16.1029 9.68713C16.0461 9.68712 15.9896 9.68711 15.9327 9.6871C15.8758 9.68709 15.8189 9.68709 15.7621 9.68708C15.648 9.68706 15.5339 9.68704 15.4197 9.68703C15.3915 9.68702 15.3633 9.68702 15.3339 9.68701C14.4158 9.68688 13.4977 9.68628 12.5796 9.68541C11.6095 9.68449 10.6394 9.68398 9.66924 9.68394C9.56256 9.68393 9.45626 9.68392 9.34958 9.68391C9.32338 9.68391 9.29717 9.68391 9.27004 9.68391C8.8463 9.68386 8.42629 9.68345 8.00255 9.68291C7.57882 9.68237 7.15509 9.68226 6.73135 9.68255C6.50165 9.6827 6.27045 9.68266 6.04372 9.68214C5.83334 9.68166 5.6237 9.6817 5.41183 9.68216C5.33563 9.68223 5.25944 9.68212 5.18361 9.68179C5.08028 9.68138 4.97658 9.68166 4.87325 9.6821C4.8437 9.68182 4.81415 9.68154 4.78367 9.68125C4.50304 9.68388 4.21497 9.74625 4.01426 9.95731L4.02018 9.95551Z" fill="#333333"/>
<path d="M1.72132 0.818134C1.75396 0.818046 1.78674 0.817959 1.82019 0.817868C1.93021 0.817618 2.03986 0.817635 2.14989 0.81765C2.22943 0.817527 2.3086 0.817388 2.38814 0.817236C2.6067 0.816862 2.82674 0.816724 3.04233 0.816623C3.27798 0.816477 3.51438 0.816119 3.74855 0.815794C4.29123 0.815092 4.8339 0.814711 5.37658 0.814393C5.64457 0.814236 5.91182 0.814041 6.17944 0.813844C7.09753 0.813175 8.01562 0.812615 8.93371 0.812338C8.99132 0.812321 9.04894 0.812303 9.10655 0.812285C9.13513 0.812276 9.16379 0.812267 9.19315 0.812258C9.33774 0.812213 9.48271 0.812168 9.62804 0.812122C9.65677 0.812113 9.68565 0.812104 9.71502 0.812095C10.6443 0.8118 11.5772 0.810926 12.5065 0.809712C13.4914 0.80843 14.4764 0.807694 15.4614 0.807571C15.5696 0.807556 15.6778 0.807538 15.7859 0.807518C15.8257 0.807511 15.8257 0.807511 15.8666 0.807504C16.294 0.807417 16.7215 0.806832 17.1527 0.806066C17.5838 0.805308 18.015 0.805117 18.4424 0.805461C18.6755 0.805631 18.9071 0.805559 19.1412 0.804833C19.355 0.804176 19.5687 0.804213 19.7805 0.804792C19.8575 0.804881 19.9348 0.804719 20.0117 0.804277C20.5507 0.801363 21.0785 0.81638 21.506 1.19652C21.7862 1.49201 21.9929 1.82784 21.9929 2.2425C21.9933 2.29965 21.9933 2.29965 21.9937 2.35756C21.9938 2.41994 21.9938 2.41994 21.994 2.48345C21.9944 2.54919 21.9944 2.54919 21.9947 2.61643C21.9955 2.76175 21.9959 2.90707 21.9963 3.0535C21.9964 3.10356 21.9966 3.15399 21.9967 3.20405C21.9974 3.43977 21.998 3.67474 21.9983 3.91009C21.9986 4.18167 21.9996 4.45175 22.0011 4.72446C22.0022 4.93477 22.0028 5.14658 22.0029 5.35578C22.003 5.4813 22.0034 5.60644 22.0043 5.73308C22.0052 5.87317 22.0051 6.01325 22.0049 6.15521C22.0054 6.1963 22.0058 6.23739 22.0063 6.2796C22.0034 6.71667 21.8487 7.04541 21.5566 7.36294C21.0808 7.82616 20.4601 7.78133 19.8431 7.78133C19.7643 7.78142 19.6855 7.78153 19.6067 7.78168C19.3907 7.78199 19.1755 7.78184 18.9599 7.78161C18.7269 7.78144 18.4953 7.7817 18.2611 7.78191C17.83 7.78222 17.4025 7.78219 16.9713 7.78199C16.5736 7.7818 16.1759 7.78175 15.7782 7.78184C15.7518 7.78185 15.7254 7.78185 15.6983 7.78186C15.5912 7.78188 15.4842 7.7819 15.3768 7.78193C14.3732 7.78216 13.3659 7.78195 12.3623 7.78155C11.4702 7.78119 10.5782 7.78123 9.68609 7.78158C8.68251 7.78198 7.68265 7.78214 6.67907 7.78191C6.57202 7.78189 6.46534 7.78186 6.35829 7.78184C6.33198 7.78183 6.30551 7.78183 6.27838 7.78182C5.88066 7.78174 5.48295 7.78184 5.08524 7.78202C4.63177 7.78224 4.18201 7.78218 3.72854 7.78178C3.49809 7.78158 3.26764 7.78151 3.03719 7.78175C2.82607 7.78198 2.61346 7.78185 2.40531 7.78146C2.32911 7.78137 2.25291 7.78141 2.17671 7.7816C1.50766 7.78307 0.935248 7.78029 0.414874 7.2997C0.164351 7.03559 0.0171593 6.68705 0.0134423 6.32096C0.0131762 6.28461 0.0129107 6.24812 0.0126357 6.21076C0.0125357 6.17116 0.0124358 6.13156 0.0123328 6.09085C0.0120886 6.04901 0.0118459 6.00717 0.0115931 5.96383C0.0108609 5.82487 0.0104261 5.6859 0.0100544 5.54544C0.00990273 5.498 0.00975139 5.45056 0.00959342 5.40125C0.00889835 5.17561 0.0083557 4.94923 0.00804719 4.7251C0.00768479 4.46547 0.00670909 4.20584 0.00520372 3.94808C0.00393996 3.72245 0.00350501 3.49607 0.00335633 3.27193C0.00317569 3.1763 0.00274675 3.08067 0.0020554 2.98541C0.00114474 2.8513 0.00118568 2.71719 0.00144215 2.58196C0.000728498 2.52331 0.000728524 2.52331 0 2.46354C0.00323376 1.99659 0.159458 1.61929 0.46462 1.27187C0.802492 0.937906 1.25633 0.816124 1.71724 0.81986L1.72132 0.818134ZM1.02625 1.94256C0.909536 2.11029 0.87311 2.24888 0.872367 2.45061C0.872155 2.48505 0.871943 2.51934 0.871724 2.55521C0.871682 2.59256 0.871641 2.63029 0.871598 2.66877C0.871413 2.70837 0.871229 2.74834 0.87104 2.78906C0.870498 2.92055 0.870245 3.05205 0.87004 3.18503C0.869827 3.27656 0.869613 3.36771 0.869397 3.45923C0.869007 3.65087 0.868788 3.844 0.868661 4.03452C0.868457 4.27995 0.867565 4.52389 0.866506 4.77044C0.865814 4.95909 0.865621 5.14774 0.865561 5.33826C0.865449 5.42866 0.865149 5.51944 0.864662 5.60984C0.864026 5.73648 0.864097 5.86311 0.864339 5.99087C0.863997 6.02823 0.863655 6.06559 0.863302 6.10406C0.864692 6.33679 0.888875 6.50751 1.05435 6.68309C1.08762 6.70987 1.08762 6.70987 1.12163 6.73725C1.1439 6.7556 1.16623 6.77394 1.18928 6.79291C1.33015 6.89751 1.46768 6.88033 1.63531 6.87996C1.68475 6.88009 1.68475 6.88009 1.73493 6.88022C1.84607 6.88047 1.95758 6.88045 2.06871 6.88044C2.14863 6.88056 2.22891 6.8807 2.30883 6.88085C2.52999 6.88123 2.75115 6.88137 2.97045 6.88147C3.20833 6.88161 3.44622 6.88197 3.6841 6.8823C4.2305 6.883 4.78061 6.88338 5.327 6.8837C5.59759 6.88385 5.86968 6.88405 6.14101 6.88425C7.06654 6.88491 7.99206 6.88547 8.9213 6.88575C8.97966 6.88577 9.03764 6.88579 9.096 6.8858C9.13911 6.88582 9.13911 6.88582 9.18335 6.88583C9.32942 6.88588 9.47587 6.88592 9.62195 6.88597C9.65094 6.88598 9.67993 6.88599 9.71004 6.88599C10.6504 6.88629 11.5908 6.88716 12.5312 6.88838C13.5236 6.88966 14.5198 6.8904 15.5122 6.89052C15.6211 6.89053 15.7304 6.89055 15.8393 6.89057C15.8662 6.89058 15.8932 6.89058 15.9207 6.89058C16.3519 6.89067 16.7868 6.89126 17.2179 6.89202C17.6528 6.89278 18.0877 6.89297 18.5226 6.89263C18.7582 6.89246 18.9946 6.89253 19.2288 6.89326C19.4444 6.89391 19.66 6.89388 19.8756 6.8933C19.9536 6.89321 20.0317 6.89337 20.1101 6.89381C20.216 6.89437 20.322 6.89402 20.4279 6.89343C20.4585 6.89381 20.4892 6.89419 20.5204 6.89459C20.716 6.89221 20.8252 6.85425 20.9813 6.72537C21.1137 6.57856 21.1345 6.44407 21.1356 6.25094C21.1359 6.21564 21.1361 6.18034 21.1364 6.1441C21.1365 6.10562 21.1366 6.06715 21.1367 6.02755C21.137 5.98683 21.1372 5.94611 21.1375 5.90427C21.1382 5.76942 21.1386 5.63456 21.139 5.50082C21.1391 5.45487 21.1393 5.40855 21.1395 5.36111C21.1401 5.14258 21.1407 4.92404 21.141 4.70364C21.1414 4.45186 21.1423 4.19933 21.1438 3.94904C21.1451 3.7305 21.1455 3.51197 21.1457 3.29157C21.1459 3.19892 21.1463 3.10591 21.147 3.01326C21.1479 2.88326 21.1479 2.75363 21.1476 2.62475C21.1481 2.58665 21.1486 2.54855 21.149 2.50895C21.147 2.22878 21.0929 2.02332 20.8955 1.81786C20.6763 1.68449 20.4569 1.67142 20.2079 1.67291C20.1756 1.67279 20.1432 1.67267 20.1102 1.67255C20.002 1.67224 19.8938 1.67246 19.7857 1.67268C19.7072 1.67257 19.6292 1.67242 19.5508 1.67225C19.3355 1.67186 19.1196 1.67195 18.904 1.67211C18.6717 1.6722 18.4394 1.67186 18.2089 1.67158C17.7555 1.6711 17.2983 1.67104 16.8448 1.67113C16.475 1.6712 16.1051 1.67113 15.7372 1.67097C15.684 1.67095 15.6308 1.67092 15.5777 1.6709C15.4978 1.67087 15.4175 1.67083 15.3376 1.6708C14.5942 1.67049 13.8508 1.67032 13.1037 1.67048C13.0756 1.67049 13.0476 1.67049 13.0186 1.6705C12.8762 1.67053 12.7342 1.67056 12.5911 1.67059C12.5487 1.6706 12.5487 1.6706 12.5056 1.67061C12.4484 1.67062 12.3915 1.67064 12.3343 1.67065C11.4459 1.67085 10.5576 1.67055 9.66921 1.66986C8.66935 1.66909 7.67321 1.66869 6.67334 1.66884C6.56704 1.66886 6.46036 1.66887 6.35406 1.66888C6.32785 1.66889 6.30165 1.66889 6.27451 1.66889C5.88052 1.66894 5.4828 1.66869 5.0888 1.66829C4.63905 1.66784 4.1893 1.66779 3.73955 1.66825C3.50984 1.66847 3.27864 1.66851 3.05191 1.66806C2.84153 1.66766 2.63189 1.66777 2.42003 1.66829C2.34383 1.66839 2.268 1.6683 2.1918 1.668C2.08847 1.66763 1.98514 1.66794 1.88181 1.66843C1.8523 1.66815 1.82271 1.66788 1.79223 1.6676C1.5064 1.67038 1.23097 1.73559 1.02282 1.94404L1.02625 1.94256Z" fill="#333333"/>
<path d="M1.72137 16.8814C1.75415 16.8813 1.78679 16.8812 1.82061 16.8812C1.93101 16.881 2.04103 16.8811 2.15142 16.8812C2.23096 16.8811 2.31088 16.881 2.39042 16.8809C2.60972 16.8807 2.82902 16.8807 3.04832 16.8807C3.28472 16.8808 3.52038 16.8805 3.75826 16.8804C4.22288 16.8801 4.68379 16.88 5.14841 16.8799C5.52382 16.8799 5.90295 16.8798 6.27836 16.8797C6.38653 16.8797 6.49506 16.8797 6.60323 16.8796C6.63017 16.8796 6.65712 16.8796 6.685 16.8796C7.44326 16.8794 8.20152 16.8792 8.95606 16.8792C8.98461 16.8792 9.0133 16.8792 9.04267 16.8792C9.18763 16.8792 9.33222 16.8792 9.47755 16.8792C9.50632 16.8792 9.53516 16.8792 9.56453 16.8793C9.62251 16.8793 9.68087 16.8793 9.73885 16.8793C10.6421 16.8793 11.549 16.879 12.4522 16.8785C13.467 16.8779 14.4854 16.8776 15.5001 16.8776C15.6087 16.8776 15.7168 16.8776 15.8254 16.8776C15.8521 16.8776 15.8789 16.8776 15.9064 16.8776C16.3376 16.8776 16.765 16.8774 17.1962 16.8771C17.6274 16.8768 18.0585 16.8767 18.4897 16.877C18.7235 16.8771 18.958 16.8771 19.1922 16.8768C19.4063 16.8765 19.6196 16.8765 19.8352 16.8769C19.9125 16.8769 19.9902 16.8768 20.0675 16.8766C20.1727 16.8764 20.2779 16.8766 20.3831 16.8769C20.4285 16.8766 20.4285 16.8766 20.4746 16.8763C20.8648 16.8787 21.244 16.9951 21.5302 17.2686C21.8814 17.6533 22.0022 18.0157 21.9985 18.5312C21.9987 18.5753 21.9989 18.619 21.9991 18.6642C21.9996 18.8084 21.9993 18.953 21.9989 19.0975C21.9989 19.1984 21.9991 19.2992 21.9992 19.4001C21.9994 19.6112 21.9991 19.8222 21.9986 20.0314C21.998 20.2746 21.9982 20.5171 21.9988 20.7599C21.9993 20.9695 21.9994 21.1783 21.9991 21.3875C21.9989 21.5122 21.9989 21.637 21.9993 21.761C21.9996 21.9004 21.9991 22.0397 21.9985 22.1794C21.9987 22.2201 21.999 22.2609 21.9992 22.3031C21.9955 22.7514 21.8843 23.0651 21.5717 23.3864C21.2376 23.7039 20.9213 23.7973 20.4678 23.7973C20.4347 23.7974 20.4016 23.7975 20.3674 23.7976C20.2559 23.7978 20.1444 23.7978 20.0329 23.7978C19.9523 23.7979 19.872 23.7981 19.7913 23.7982C19.5698 23.7986 19.349 23.7987 19.126 23.7988C18.887 23.799 18.6465 23.7993 18.4086 23.7997C17.8585 23.8004 17.3084 23.8008 16.7583 23.8011C16.4866 23.8012 16.2156 23.8014 15.9443 23.8016C15.015 23.8023 14.0821 23.8028 13.1528 23.8031C13.0945 23.8031 13.0361 23.8032 12.9778 23.8032C12.9343 23.8032 12.9343 23.8032 12.89 23.8032C12.7432 23.8033 12.5964 23.8033 12.4514 23.8033C12.4076 23.8034 12.4076 23.8034 12.3633 23.8034C11.4192 23.8037 10.4751 23.8045 9.53101 23.8058C8.53115 23.807 7.53501 23.8078 6.53514 23.8079C6.42549 23.8079 6.31584 23.8079 6.20619 23.8079C6.16568 23.808 6.16568 23.808 6.12442 23.808C5.68954 23.808 5.25465 23.8086 4.82348 23.8094C4.3886 23.8102 3.95 23.8103 3.51511 23.81C3.27872 23.8098 3.04306 23.8099 2.80517 23.8106C2.58885 23.8113 2.37401 23.8113 2.15471 23.8107C2.07628 23.8106 1.99822 23.8107 1.91979 23.8112C1.34367 23.8142 0.864178 23.7671 0.429294 23.348C0.282474 23.1885 0.17431 23.0222 0.0936521 22.8212C0.0809773 22.7914 0.0683025 22.7615 0.0553675 22.7308C0.00518849 22.5444 0.00853368 22.3666 0.00853368 22.1742C0.0082839 22.132 0.00803571 22.0894 0.00777552 22.0461C0.0070693 21.9064 0.00692431 21.7667 0.00684254 21.6277C0.00660354 21.5302 0.00635194 21.4327 0.00609176 21.3356C0.00561599 21.1312 0.00550435 20.9284 0.00555267 20.7229C0.00559727 20.4876 0.00481305 20.2522 0.00363849 20.0169C0.00254199 19.7898 0.00228176 19.5612 0.00232636 19.337C0.00223901 19.241 0.00191381 19.1446 0.00133397 19.0486C0.000601727 18.9138 0.000821061 18.7785 0.00126747 18.6452C0.000851168 18.6059 0.000431167 18.5667 0 18.5264C0.00346421 18.1117 0.125633 17.7083 0.393998 17.3907C0.80658 17.0314 1.17828 16.879 1.72095 16.8827L1.72137 16.8814ZM1.0263 18.0058C0.865725 18.2382 0.862008 18.4242 0.862751 18.7006C0.862561 18.7402 0.862372 18.7798 0.862175 18.8209C0.861658 18.952 0.861695 19.0832 0.861781 19.2132C0.861636 19.3043 0.861475 19.3955 0.861298 19.487C0.861021 19.6782 0.861031 19.868 0.861227 20.0623C0.861442 20.3073 0.860814 20.5516 0.859952 20.7982C0.859405 20.9865 0.859372 21.1755 0.859487 21.3623C0.859468 21.4527 0.859274 21.5427 0.8589 21.6331C0.858439 21.7594 0.858693 21.8856 0.859123 22.0104C0.858839 22.0476 0.858555 22.0847 0.858261 22.1232C0.860082 22.3653 0.879782 22.5678 1.05526 22.7508C1.08024 22.7683 1.10507 22.7857 1.13109 22.8035C1.15595 22.8215 1.18089 22.8395 1.20654 22.858C1.37752 22.9563 1.55705 22.9443 1.74922 22.9439C1.78181 22.944 1.81426 22.9441 1.84809 22.9442C1.95811 22.9445 2.06813 22.9444 2.17815 22.9444C2.25732 22.9445 2.33687 22.9447 2.41604 22.9448C2.6346 22.9452 2.85464 22.9453 3.07022 22.9454C3.30588 22.9456 3.54228 22.946 3.77645 22.9463C4.31912 22.947 4.8618 22.9474 5.40448 22.9477C5.67247 22.9478 5.93972 22.948 6.20734 22.9482C7.12543 22.9489 8.0398 22.9495 8.95789 22.9497C9.0155 22.9498 9.07312 22.9498 9.13073 22.9498C9.15928 22.9498 9.18797 22.9498 9.21733 22.9498C9.36192 22.9499 9.50651 22.9499 9.65222 22.95C9.68091 22.95 9.70946 22.95 9.73919 22.95C10.6684 22.9503 11.6014 22.9511 12.5306 22.9524C13.5156 22.9536 14.4969 22.9544 15.4819 22.9545C15.5901 22.9545 15.6979 22.9545 15.806 22.9546C15.8458 22.9546 15.8458 22.9546 15.8867 22.9546C16.3141 22.9547 16.7416 22.9552 17.1727 22.956C17.6039 22.9568 18.0314 22.957 18.4625 22.9566C18.6956 22.9564 18.9271 22.9565 19.1613 22.9572C19.3747 22.9579 19.5888 22.9579 19.8006 22.9573C19.8779 22.9572 19.9553 22.9574 20.0322 22.9578C20.137 22.9584 20.2418 22.958 20.347 22.9574C20.3771 22.9578 20.4072 22.9582 20.4381 22.9586C20.644 22.9561 20.8135 22.9119 20.9808 22.7893C21.1514 22.5719 21.1506 22.3373 21.1488 22.0684C21.149 22.0273 21.1493 21.9862 21.1496 21.9436C21.1502 21.8084 21.1498 21.6728 21.1493 21.5364C21.1494 21.4419 21.1495 21.3474 21.1497 21.2533C21.1499 21.0556 21.1496 20.8573 21.1489 20.6593C21.1481 20.4314 21.1484 20.2035 21.1492 19.9757C21.15 19.7556 21.1499 19.5349 21.1494 19.3145C21.1493 19.2211 21.1495 19.1277 21.1498 19.0347C21.1502 18.9043 21.1496 18.7739 21.1488 18.6424C21.1492 18.5849 21.1492 18.5849 21.1497 18.5259C21.1466 18.2632 21.1021 18.0963 20.9215 17.8983C20.723 17.744 20.5765 17.7339 20.3342 17.7343C20.3017 17.7342 20.2691 17.7341 20.2357 17.734C20.126 17.7338 20.016 17.7338 19.9064 17.7338C19.8272 17.7337 19.748 17.7335 19.6688 17.7334C19.4507 17.733 19.234 17.7329 19.0147 17.7328C18.7794 17.7326 18.5426 17.7323 18.3084 17.7319C17.7658 17.7312 17.2268 17.7309 16.6841 17.7305C16.4169 17.7304 16.1489 17.7302 15.8813 17.73C14.9669 17.7293 14.0525 17.7288 13.1344 17.7285C13.0768 17.7285 13.0196 17.7285 12.962 17.7284C12.9192 17.7284 12.9192 17.7284 12.8757 17.7284C12.7315 17.7284 12.5869 17.7283 12.4408 17.7283C12.3977 17.7283 12.3977 17.7283 12.3539 17.7282C11.4246 17.7279 10.4954 17.7271 9.56615 17.7259C8.58487 17.7246 7.60359 17.7238 6.6186 17.7237C6.51081 17.7237 6.40302 17.7237 6.29522 17.7237C6.26868 17.7237 6.24207 17.7237 6.21494 17.7237C5.78749 17.7236 5.36004 17.723 4.93259 17.7222C4.50142 17.7215 4.07397 17.7213 3.6428 17.7216C3.41012 17.7218 3.17818 17.7217 2.94401 17.721C2.73103 17.7203 2.51656 17.7204 2.3047 17.7209C2.22775 17.721 2.15044 17.7209 2.0735 17.7204C1.96868 17.7199 1.86424 17.7202 1.75942 17.7208C1.71444 17.7202 1.71444 17.7202 1.66835 17.7196C1.41039 17.7228 1.19258 17.8007 1.01788 17.9983L1.0263 18.0058Z" fill="#333333"/>
<path d="M8.95783 12.5992C8.95852 12.7158 8.95871 12.8327 8.95877 12.9493M8.95783 12.5992C8.95677 12.4472 8.95587 12.2952 8.95567 12.1435C8.95554 12.0251 8.95532 11.9063 8.95493 11.7879L8.95429 11.6183C8.95409 11.5372 8.95383 11.4558 8.95329 11.3743M8.95783 12.5992L8.70783 12.6007C8.70852 12.7166 8.70871 12.833 8.70877 12.9494L8.70877 12.9498C8.70888 13.0063 8.70919 13.0628 8.70968 13.119L8.48568 11.0688L8.48757 11.0687L8.59005 11.0682M8.95783 12.5992L8.70783 12.601C8.70677 12.4488 8.70588 12.2962 8.70567 12.1438V12.1438C8.70554 12.0255 8.70533 11.9069 8.70494 11.7887L8.70429 11.6192L8.70429 11.6189C8.70409 11.5379 8.70384 11.457 8.7033 11.3761L8.7033 11.3762L8.95329 11.3743M8.95877 12.9493L8.70999 13.3512L8.70999 13.3527L8.71036 13.4723C8.70781 13.4926 8.70575 13.5067 8.70371 13.5176C8.70248 13.5177 8.70125 13.5178 8.70001 13.5179C8.67991 13.5195 8.65604 13.5197 8.58209 13.5199L8.5802 13.5199L8.5035 13.5207C8.50338 13.5207 8.50326 13.5207 8.50314 13.5207C8.42082 13.5214 8.33815 13.5209 8.25382 13.5204L8.25382 13.5204L8.25189 13.5204L8.07606 13.5209C8.07598 13.5209 8.0759 13.5209 8.07583 13.5209C7.9536 13.5211 7.83128 13.5208 7.70921 13.5201L7.70914 13.5201C7.55019 13.5192 7.39153 13.5197 7.2343 13.5206L7.23573 13.7706M8.95877 12.9493C8.95888 13.0053 8.95918 13.0613 8.95967 13.117L8.95877 12.9493ZM8.95329 11.3743L8.95273 11.3C8.95262 11.2819 8.95277 11.2645 8.95291 11.2477C8.9537 11.1538 8.95435 11.0757 8.90962 10.9858M8.95329 11.3743L8.7033 11.376L8.70274 11.3019L8.70274 11.3016C8.70262 11.2825 8.7028 11.2602 8.70294 11.2415C8.70302 11.2314 8.70309 11.2223 8.70311 11.2154C8.70315 11.191 8.70272 11.1734 8.70151 11.1585C8.70059 11.1472 8.69926 11.1376 8.69728 11.1289M8.90962 10.9858C8.81075 10.8894 8.74942 10.8405 8.61189 10.8181M8.90962 10.9858L8.73511 11.1648C8.72024 11.1503 8.70784 11.1386 8.69728 11.1289M8.90962 10.9858L8.68579 11.0972C8.69105 11.1077 8.69471 11.1176 8.69728 11.1289M8.61189 10.8181L8.48626 10.8187C8.4134 10.8186 8.34018 10.8185 8.26733 10.8194M8.61189 10.8181L8.61322 11.0681L8.59005 11.0682M8.61189 10.8181L8.57174 11.0648C8.57842 11.0659 8.5845 11.0671 8.59005 11.0682M8.26733 10.8194C8.21529 10.8201 8.16288 10.8205 8.11084 10.8207C8.00194 10.8208 7.89303 10.8211 7.78412 10.8221M8.26733 10.8194L8.27065 11.0693C8.27058 11.0693 8.27052 11.0693 8.27045 11.0693M8.26733 10.8194L8.27045 11.0693M7.78412 10.8221C7.64325 10.8236 7.502 10.8249 7.36039 10.8253C7.22767 10.8256 7.09598 10.8261 6.96434 10.8268L7.26708 11.0743L6.9884 11.0767M7.78412 10.8221L7.78637 11.0721C7.89431 11.0711 8.00246 11.0708 8.11115 11.0707L8.11171 11.0707C8.16449 11.0705 8.21765 11.07 8.27045 11.0693M7.78412 10.8221L7.78675 11.0721C7.6457 11.0736 7.5037 11.0749 7.36112 11.0753L7.36102 11.0753C7.23615 11.0756 7.11222 11.0761 6.9884 11.0767M6.9884 11.0767L6.57576 11.0803C6.47251 11.0812 6.41614 11.0833 6.35427 11.0992C6.32012 11.1281 6.30569 11.1428 6.29615 11.1556C6.2906 11.163 6.2826 11.1748 6.27455 11.2066L6.27446 11.3136L6.27446 11.3161L6.27445 11.3161C6.27361 11.3933 6.27309 11.4691 6.27372 11.5448L6.02372 11.5468M6.9884 11.0767L8.27045 11.0693M6.02372 11.5468L6.27371 11.5444C6.27427 11.6009 6.27453 11.6574 6.2745 11.714L6.2745 11.7145C6.27419 11.8304 6.27414 11.9456 6.27495 12.0606L6.02495 12.0624L6.27494 12.0602C6.27625 12.2108 6.27714 12.3629 6.27649 12.5154L6.27649 12.5155C6.27595 12.633 6.27578 12.75 6.27617 12.8673C6.27617 12.8673 6.27617 12.8673 6.27617 12.8673L6.27687 13.0361L6.27687 13.038C6.27653 13.119 6.27629 13.198 6.2771 13.2765C6.27711 13.2766 6.27711 13.2767 6.27711 13.2768L6.27807 13.3505L6.2781 13.3525C6.2785 13.4303 6.27933 13.4596 6.28398 13.484C6.28546 13.4918 6.28759 13.5005 6.29288 13.5123C6.29327 13.5124 6.29367 13.5125 6.29409 13.5126C6.30335 13.5144 6.31521 13.5165 6.33439 13.5196L6.4547 13.5199L6.45661 13.5199L6.45661 13.5199C6.53761 13.5208 6.61718 13.5213 6.69672 13.5209L6.69789 13.7709L6.69639 13.5209C6.75502 13.5206 6.81402 13.5205 6.87264 13.5206L6.87301 13.5206C6.99394 13.521 7.11438 13.5211 7.23461 13.5206L7.23573 13.7706M6.02372 11.5468C6.02307 11.4688 6.02362 11.3911 6.02446 11.3134L6.02372 11.5468ZM7.23573 13.7706C7.39259 13.7697 7.55019 13.7692 7.70779 13.7701L6.87221 13.7706C6.99339 13.771 7.11456 13.7711 7.23573 13.7706ZM8.69728 11.1289C8.67312 11.1068 8.65857 11.0958 8.64607 11.0882C8.63544 11.0818 8.62079 11.0746 8.59005 11.0682" stroke="#333333" stroke-width="0.5"/>
<mask id="path-8-inside-1_227_972" fill="white">
<path d="M3.46852 18.8612C3.51721 18.8605 3.56553 18.8598 3.61534 18.859C3.66849 18.8585 3.72165 18.858 3.77517 18.8575C3.81531 18.8571 3.81531 18.8571 3.8562 18.8568C3.99782 18.8555 4.13943 18.8546 4.27993 18.8539C4.39702 18.8532 4.51447 18.8519 4.63156 18.8501C4.77318 18.8478 4.91479 18.8467 5.05529 18.8463C5.10919 18.846 5.16308 18.8453 5.21698 18.8442C5.637 18.8361 5.637 18.8361 5.81541 18.9469C5.93621 19.1535 5.90016 19.4325 5.89718 19.6641C5.89712 19.7205 5.89712 19.7766 5.89719 19.833C5.89713 19.9507 5.89643 20.0683 5.89526 20.186C5.89378 20.3365 5.89362 20.4875 5.8939 20.638C5.89402 20.7542 5.89357 20.87 5.89293 20.9862C5.89267 21.0418 5.89255 21.0971 5.89259 21.1528C5.89252 21.2305 5.89172 21.3078 5.89072 21.3855C5.89041 21.4296 5.8901 21.4737 5.88978 21.5193C5.87335 21.6459 5.86019 21.6986 5.76377 21.7815C5.65301 21.8005 5.65301 21.8005 5.51511 21.8008C5.49002 21.8011 5.46493 21.8014 5.43891 21.8016C5.35602 21.8023 5.27313 21.8019 5.18987 21.8014C5.13226 21.8015 5.07428 21.8016 5.01666 21.8018C4.89549 21.802 4.77469 21.8017 4.65352 21.801C4.49852 21.8001 4.34352 21.8006 4.1889 21.8015C4.06958 21.8021 3.95027 21.8019 3.83095 21.8015C3.77371 21.8014 3.71684 21.8015 3.6596 21.8019C3.57969 21.8023 3.49977 21.8017 3.41986 21.8008C3.37451 21.8007 3.32879 21.8006 3.28196 21.8005C3.13514 21.7773 3.07418 21.7441 2.97568 21.632C2.95208 21.5188 2.95208 21.5188 2.95163 21.3847C2.9513 21.3602 2.95098 21.3358 2.95064 21.3104C2.94982 21.2297 2.95036 21.149 2.95099 21.0679C2.95087 21.0115 2.95069 20.9555 2.95045 20.8991C2.95018 20.781 2.95058 20.6634 2.95145 20.5453C2.95251 20.3944 2.9519 20.2435 2.95078 20.0933C2.95011 19.9771 2.95032 19.8609 2.95081 19.7448C2.95093 19.6891 2.95078 19.6334 2.95034 19.5778C2.94987 19.4997 2.95059 19.422 2.95163 19.3443C2.95177 19.3002 2.95192 19.2558 2.95208 19.2102C2.98248 19.0581 3.04463 19.0029 3.16134 18.9054C3.26467 18.8534 3.35053 18.8617 3.4665 18.8602L3.46852 18.8612Z"/>
</mask>
<path d="M3.46852 18.8612L3.23392 19.3028L3.34741 19.3631L3.47592 19.3612L3.46852 18.8612ZM3.61534 18.859L3.61014 18.3591L3.60788 18.3591L3.61534 18.859ZM3.77517 18.8575L3.77964 19.3575L3.77976 19.3575L3.77517 18.8575ZM3.8562 18.8568L3.8519 18.3568L3.85161 18.3568L3.8562 18.8568ZM4.27993 18.8539L4.28253 19.3539L4.28277 19.3539L4.27993 18.8539ZM4.63156 18.8501L4.62362 18.3501L4.62352 18.3501L4.63156 18.8501ZM5.05529 18.8463L5.05663 19.3463L5.05826 19.3463L5.05529 18.8463ZM5.21698 18.8442L5.20738 18.3443L5.20683 18.3443L5.21698 18.8442ZM5.81541 18.9469L6.24703 18.6945L6.18447 18.5875L6.07919 18.5221L5.81541 18.9469ZM5.89718 19.6641L5.39719 19.6577L5.39718 19.6636L5.89718 19.6641ZM5.89719 19.833L6.39719 19.8332L6.39719 19.8324L5.89719 19.833ZM5.89526 20.186L5.39528 20.181L5.39528 20.1811L5.89526 20.186ZM5.8939 20.638L6.3939 20.6375L6.3939 20.6371L5.8939 20.638ZM5.89293 20.9862L5.39294 20.9834L5.39294 20.9838L5.89293 20.9862ZM5.89259 21.1528L6.39259 21.1532L6.39259 21.1525L5.89259 21.1528ZM5.89072 21.3855L5.39076 21.3791L5.39074 21.382L5.89072 21.3855ZM5.88978 21.5193L6.38562 21.5836L6.38955 21.5533L6.38976 21.5228L5.88978 21.5193ZM5.76377 21.7815L5.8482 22.2743L5.98477 22.2509L6.08982 22.1606L5.76377 21.7815ZM5.51511 21.8008L5.51375 21.3008L5.50989 21.3009L5.51511 21.8008ZM5.43891 21.8016L5.44287 22.3016L5.44408 22.3016L5.43891 21.8016ZM5.18987 21.8014L5.19291 21.3013L5.189 21.3014L5.18987 21.8014ZM5.01666 21.8018L5.01757 22.3018L5.01829 22.3018L5.01666 21.8018ZM4.65352 21.801L4.6564 21.301L4.65626 21.301L4.65352 21.801ZM4.1889 21.8015L4.19117 22.3015L4.19179 22.3015L4.1889 21.8015ZM3.83095 21.8015L3.83257 21.3015L3.83182 21.3015L3.83095 21.8015ZM3.6596 21.8019L3.66198 22.3019L3.66264 22.3019L3.6596 21.8019ZM3.41986 21.8008L3.42505 21.3009L3.42117 21.3008L3.41986 21.8008ZM3.28196 21.8005L3.20404 22.2944L3.24211 22.3004L3.28065 22.3005L3.28196 21.8005ZM2.97568 21.632L2.48621 21.7341L2.51311 21.8631L2.60012 21.9621L2.97568 21.632ZM2.95163 21.3847L3.45165 21.383L3.45159 21.3781L2.95163 21.3847ZM2.95064 21.3104L2.45067 21.3154L2.45069 21.317L2.95064 21.3104ZM2.95099 21.0679L3.451 21.0718L3.45099 21.0668L2.95099 21.0679ZM2.95045 20.8991L2.45046 20.9002L2.45046 20.9011L2.95045 20.8991ZM2.95145 20.5453L3.45143 20.549L3.45143 20.5488L2.95145 20.5453ZM2.95078 20.0933L2.45079 20.0962L2.4508 20.097L2.95078 20.0933ZM2.95081 19.7448L3.4508 19.7468L3.4508 19.7459L2.95081 19.7448ZM2.95034 19.5778L2.45035 19.5808L2.45036 19.5817L2.95034 19.5778ZM2.95163 19.3443L3.45161 19.3509L3.45162 19.346L2.95163 19.3443ZM2.95208 19.2102L2.46178 19.1121L2.45224 19.1598L2.45208 19.2085L2.95208 19.2102ZM3.16134 18.9054L2.93684 18.4586L2.88517 18.4846L2.84078 18.5216L3.16134 18.9054ZM3.4665 18.8602L3.70111 18.4186L3.58806 18.3586L3.46006 18.3602L3.4665 18.8602ZM3.47592 19.3612C3.52465 19.3605 3.573 19.3597 3.6228 19.359L3.60788 18.3591C3.55807 18.3598 3.50978 18.3606 3.46112 18.3613L3.47592 19.3612ZM3.62054 19.359C3.67346 19.3585 3.72637 19.358 3.77964 19.3575L3.7707 18.3575C3.71693 18.358 3.66353 18.3585 3.61014 18.3591L3.62054 19.359ZM3.77976 19.3575C3.8199 19.3571 3.8199 19.3571 3.86079 19.3567L3.85161 18.3568C3.81073 18.3572 3.81073 18.3572 3.77058 18.3575L3.77976 19.3575ZM3.8605 19.3567C4.00141 19.3555 4.14243 19.3546 4.28253 19.3539L4.27734 18.3539C4.13643 18.3546 3.99423 18.3556 3.8519 18.3568L3.8605 19.3567ZM4.28277 19.3539C4.40165 19.3532 4.52084 19.3519 4.6396 19.35L4.62352 18.3501C4.50811 18.352 4.39238 18.3533 4.27709 18.3539L4.28277 19.3539ZM4.6395 19.35C4.77855 19.3478 4.91793 19.3466 5.05663 19.3463L5.05395 18.3463C4.91165 18.3467 4.7678 18.3478 4.62362 18.3501L4.6395 19.35ZM5.05826 19.3463C5.11453 19.3459 5.17082 19.3452 5.22713 19.3441L5.20683 18.3443C5.15535 18.3453 5.10385 18.346 5.05233 18.3463L5.05826 19.3463ZM5.22658 19.3441C5.33457 19.342 5.40483 19.3407 5.45777 19.3412C5.51151 19.3417 5.52471 19.3442 5.5222 19.3437C5.51008 19.3417 5.49471 19.3364 5.48632 19.3323C5.48567 19.3319 5.48938 19.3337 5.50109 19.3407C5.51345 19.348 5.52808 19.357 5.55163 19.3716L6.07919 18.5221C6.00017 18.4731 5.87653 18.3899 5.69139 18.3582C5.55715 18.3351 5.3897 18.3407 5.20738 18.3443L5.22658 19.3441ZM5.38379 19.1993C5.38358 19.1989 5.38772 19.2058 5.39235 19.2259C5.39714 19.2467 5.40128 19.2765 5.40324 19.319C5.4052 19.3619 5.40468 19.4097 5.40289 19.468C5.40131 19.519 5.39804 19.5942 5.39722 19.6577L6.39714 19.6706C6.39802 19.602 6.40863 19.4136 6.40219 19.2732C6.39492 19.1148 6.36679 18.8993 6.24703 18.6945L5.38379 19.1993ZM5.39718 19.6636C5.39712 19.7204 5.39712 19.7768 5.39719 19.8336L6.39719 19.8324C6.39712 19.7764 6.39712 19.7207 6.39718 19.6647L5.39718 19.6636ZM5.39719 19.8327C5.39713 19.9486 5.39645 20.0647 5.39528 20.181L6.39523 20.191C6.39642 20.072 6.39713 19.9527 6.39719 19.8332L5.39719 19.8327ZM5.39528 20.1811C5.39378 20.3344 5.39362 20.4875 5.3939 20.6389L6.3939 20.6371C6.39362 20.4874 6.39379 20.3387 6.39524 20.1909L5.39528 20.1811ZM5.3939 20.6385C5.39402 20.7531 5.39357 20.8677 5.39294 20.9834L6.39293 20.9889C6.39356 20.8723 6.39402 20.7553 6.3939 20.6375L5.3939 20.6385ZM5.39294 20.9838C5.39267 21.0403 5.39255 21.0965 5.39259 21.1531L6.39259 21.1525C6.39255 21.0977 6.39267 21.0433 6.39293 20.9885L5.39294 20.9838ZM5.39259 21.1524C5.39252 21.2271 5.39176 21.3021 5.39077 21.3791L6.39068 21.3919C6.39169 21.3135 6.39252 21.2339 6.39259 21.1532L5.39259 21.1524ZM5.39074 21.382C5.39042 21.426 5.39011 21.4702 5.38979 21.5157L6.38976 21.5228C6.39009 21.4772 6.3904 21.4332 6.39071 21.3891L5.39074 21.382ZM5.39393 21.4549C5.39209 21.4691 5.39068 21.4792 5.38946 21.4871C5.38826 21.4949 5.38755 21.4984 5.3874 21.4992C5.38716 21.5003 5.39006 21.4859 5.39943 21.4647C5.40959 21.4417 5.42213 21.4224 5.43329 21.4086C5.44272 21.397 5.44707 21.3944 5.43773 21.4024L6.08982 22.1606C6.1703 22.0913 6.25601 22.0003 6.31411 21.8689C6.36466 21.7545 6.3782 21.6408 6.38562 21.5836L5.39393 21.4549ZM5.67934 21.2887C5.61711 21.2993 5.61419 21.2994 5.61082 21.2997C5.60935 21.2998 5.6041 21.3001 5.5883 21.3004C5.57142 21.3007 5.54956 21.3007 5.51375 21.3008L5.51646 22.3008C5.57714 22.3007 5.6341 22.3009 5.68841 22.2966C5.74721 22.2921 5.79967 22.2826 5.8482 22.2743L5.67934 21.2887ZM5.50989 21.3009C5.48481 21.3011 5.45974 21.3014 5.43374 21.3017L5.44408 22.3016C5.47012 22.3013 5.49522 22.3011 5.52033 22.3008L5.50989 21.3009ZM5.43494 21.3017C5.356 21.3023 5.27635 21.3019 5.19291 21.3014L5.18684 22.3013C5.26991 22.3018 5.35605 22.3023 5.44287 22.3016L5.43494 21.3017ZM5.189 21.3014C5.13113 21.3015 5.0729 21.3016 5.01503 21.3018L5.01829 22.3018C5.07565 22.3016 5.13339 22.3015 5.19074 22.3014L5.189 21.3014ZM5.01575 21.3018C4.89606 21.302 4.77654 21.3017 4.6564 21.301L4.65063 22.301C4.77283 22.3017 4.89492 22.302 5.01757 22.3018L5.01575 21.3018ZM4.65626 21.301C4.49852 21.3001 4.34137 21.3006 4.186 21.3015L4.19179 22.3015C4.34567 22.3006 4.49852 22.3001 4.65077 22.301L4.65626 21.301ZM4.18663 21.3015C4.06922 21.3021 3.95139 21.3019 3.83257 21.3015L3.82933 22.3015C3.94914 22.3019 4.06995 22.3021 4.19117 22.3015L4.18663 21.3015ZM3.83182 21.3015C3.77329 21.3014 3.71512 21.3015 3.65656 21.3019L3.66264 22.3019C3.71857 22.3015 3.77413 22.3014 3.83008 22.3015L3.83182 21.3015ZM3.65722 21.3019C3.5811 21.3022 3.50415 21.3017 3.42505 21.3009L3.41466 22.3008C3.49539 22.3017 3.57827 22.3023 3.66198 22.3019L3.65722 21.3019ZM3.42117 21.3008C3.37583 21.3007 3.33008 21.3006 3.28326 21.3005L3.28065 22.3005C3.3275 22.3006 3.37319 22.3007 3.41855 22.3008L3.42117 21.3008ZM3.35987 21.3066C3.3478 21.3047 3.33935 21.3031 3.33354 21.3019C3.3278 21.3007 3.32554 21.3 3.32581 21.3001C3.32622 21.3002 3.32925 21.3011 3.33412 21.3031C3.33911 21.3051 3.34504 21.3078 3.35142 21.3113C3.3578 21.3149 3.36331 21.3184 3.36771 21.3215C3.37201 21.3246 3.37442 21.3267 3.37477 21.327C3.37502 21.3272 3.37327 21.3257 3.36921 21.3215C3.3651 21.3173 3.35928 21.3111 3.35124 21.3019L2.60012 21.9621C2.66465 22.0355 2.74963 22.1217 2.86997 22.1878C2.99021 22.2539 3.10835 22.2793 3.20404 22.2944L3.35987 21.3066ZM3.46515 21.5299C3.45882 21.4996 3.45576 21.4848 3.45371 21.4737C3.45215 21.4652 3.45236 21.4651 3.45262 21.4678C3.4528 21.4696 3.45243 21.4673 3.45215 21.4535C3.45183 21.4383 3.45174 21.4183 3.45163 21.383L2.45163 21.3864C2.45182 21.4435 2.4515 21.5048 2.45732 21.5646C2.46352 21.6284 2.47621 21.6861 2.48621 21.7341L3.46515 21.5299ZM3.45159 21.3781C3.45126 21.3536 3.45094 21.3291 3.4506 21.3037L2.45069 21.317C2.45102 21.3424 2.45135 21.3668 2.45167 21.3913L3.45159 21.3781ZM3.45062 21.3053C3.44985 21.2296 3.45035 21.1531 3.45098 21.0718L2.45101 21.064C2.45038 21.1449 2.4498 21.2297 2.45067 21.3154L3.45062 21.3053ZM3.45099 21.0668C3.45087 21.0101 3.45068 20.9537 3.45045 20.897L2.45046 20.9011C2.45069 20.9572 2.45087 21.013 2.45099 21.069L3.45099 21.0668ZM3.45045 20.8979C3.45018 20.7818 3.45057 20.6657 3.45143 20.549L2.45146 20.5416C2.45058 20.661 2.45018 20.7803 2.45046 20.9002L3.45045 20.8979ZM3.45143 20.5488C3.45252 20.3944 3.45189 20.2407 3.45077 20.0896L2.4508 20.097C2.4519 20.2462 2.45249 20.3944 2.45146 20.5418L3.45143 20.5488ZM3.45077 20.0904C3.45011 19.9766 3.45032 19.8624 3.4508 19.7468L2.45081 19.7427C2.45033 19.8595 2.4501 19.9776 2.45079 20.0962L3.45077 20.0904ZM3.4508 19.7459C3.45093 19.6886 3.45078 19.6312 3.45033 19.5739L2.45036 19.5817C2.45078 19.6356 2.45093 19.6896 2.45081 19.7436L3.4508 19.7459ZM3.45034 19.5747C3.44989 19.5015 3.45056 19.4276 3.45158 19.3509L2.45167 19.3377C2.45062 19.4164 2.44985 19.4979 2.45035 19.5808L3.45034 19.5747ZM3.45162 19.346C3.45177 19.3019 3.45192 19.2574 3.45207 19.2119L2.45208 19.2085C2.45193 19.2541 2.45178 19.2986 2.45163 19.3426L3.45162 19.346ZM3.44237 19.3082C3.4447 19.2966 3.44534 19.2983 3.44142 19.3075C3.43947 19.3121 3.43681 19.3176 3.43341 19.3235C3.43001 19.3293 3.4266 19.3343 3.42364 19.3383C3.41794 19.3458 3.41601 19.3465 3.42544 19.3377C3.43016 19.3333 3.43678 19.3273 3.44647 19.319C3.45628 19.3105 3.4675 19.3011 3.4819 19.2891L2.84078 18.5216C2.79039 18.5637 2.69946 18.6377 2.62505 18.7364C2.53804 18.8518 2.48889 18.9766 2.46178 19.1121L3.44237 19.3082ZM3.38585 19.3521C3.38132 19.3544 3.37431 19.3573 3.36607 19.3595C3.35823 19.3616 3.3539 19.3619 3.35626 19.3616C3.35996 19.3613 3.36851 19.3607 3.38926 19.3605C3.39968 19.3604 3.41043 19.3604 3.42506 19.3604C3.43882 19.3604 3.45534 19.3603 3.47295 19.3601L3.46006 18.3602C3.39829 18.361 3.16835 18.3423 2.93684 18.4586L3.38585 19.3521ZM3.2319 19.3017L3.23392 19.3028L3.70313 18.4197L3.70111 18.4186L3.2319 19.3017Z" fill="#333333" mask="url(#path-8-inside-1_227_972)"/>
<path d="M2.95777 4.04204C2.95724 3.92959 2.95741 3.81678 2.95779 3.70434M2.95777 4.04204C2.95867 4.18698 2.95915 4.33304 2.95831 4.47911C2.95761 4.59342 2.95729 4.70735 2.95751 4.82167L2.95794 4.98529L2.95703 5.14405M2.95777 4.04204L3.20777 4.04084C3.20724 3.9294 3.20741 3.81737 3.20779 3.70519L3.20779 3.7048C3.20789 3.65032 3.20777 3.59584 3.20742 3.54134L2.95742 3.54296M2.95777 4.04204L3.20777 4.0405C3.20866 4.18584 3.20916 4.33304 3.2083 4.48056L3.2083 4.48063C3.20761 4.59439 3.20729 4.70765 3.20751 4.82119L3.20794 4.98483L3.20795 4.98688H3.20794L3.20704 5.14356M2.95779 3.70434L5.38713 2.79435L5.5083 2.79427C5.63357 2.81038 5.70196 2.84508 5.80269 2.92017C5.88707 3.04702 5.88706 3.11043 5.88704 3.25102C5.88704 3.2603 5.88704 3.26991 5.88706 3.27991L5.88764 3.35574C5.88816 3.4383 5.88812 3.52086 5.88803 3.60341L5.88852 3.77563C5.88879 3.89591 5.88878 4.0162 5.88859 4.13612C5.88837 4.2904 5.889 4.44431 5.88986 4.59934M2.95779 3.70434C2.95789 3.65054 2.95777 3.59675 2.95742 3.54296M2.95779 3.70434L2.95845 3.31695C2.95773 3.39241 2.95705 3.4675 2.95742 3.54296M2.95703 5.14405L2.95845 5.29161C2.95882 5.4373 2.96663 5.51612 3.03725 5.64351M2.95703 5.14405L3.20702 5.14164L3.20704 5.14356M2.95703 5.14405L3.20703 5.14531L3.20704 5.14356M3.03725 5.64351C3.08182 5.68324 3.10412 5.70312 3.12992 5.71596C3.15577 5.72883 3.18514 5.73463 3.24391 5.74624M3.03725 5.64351L3.20362 5.4569C3.21984 5.47136 3.23023 5.48058 3.23779 5.48707M3.03725 5.64351L3.24355 5.52913L3.24391 5.74624M3.24391 5.74624L3.38404 5.746C3.46544 5.74666 3.54647 5.74702 3.62788 5.74619M3.24391 5.74624L3.29235 5.50097C3.28296 5.49912 3.27505 5.49755 3.26831 5.49619M3.62788 5.74619C3.68586 5.74553 3.74422 5.74517 3.8022 5.74511C3.92337 5.74524 4.04455 5.74514 4.16572 5.74417M3.62788 5.74619L3.62534 5.49621C3.54623 5.49701 3.46699 5.49667 3.38606 5.49601L3.38606 5.496L3.38363 5.496L3.26831 5.49619M3.62788 5.74619L3.62503 5.49621C3.68387 5.49554 3.74309 5.49517 3.80193 5.49511L3.80249 5.49511L5.24948 3.04364M4.16572 5.74417C4.32258 5.74266 4.48017 5.74152 4.63777 5.74174C4.76043 5.74196 4.88346 5.7419 5.0065 5.7414M4.16572 5.74417L4.16372 5.49418C4.1637 5.49418 4.16367 5.49418 4.16365 5.49418C4.32072 5.49267 4.47927 5.49152 4.63812 5.49174L4.63822 5.49174C4.76049 5.49196 4.88299 5.4919 5.0054 5.4914L5.00517 5.4914L5.0065 5.7414M4.16572 5.74417L4.16331 5.49418L5.24948 3.04364M5.0065 5.7414L5.18231 5.74053C5.26668 5.74058 5.35106 5.74054 5.43543 5.73967M5.0065 5.7414L5.00547 5.4914L5.18118 5.49053L5.18244 5.49053C5.26672 5.49058 5.34979 5.49054 5.43258 5.48968L5.43232 5.48968L5.43543 5.73967M5.43543 5.73967L5.51275 5.73871C5.52473 5.73863 5.53642 5.73863 5.54784 5.73863C5.65476 5.73861 5.73907 5.73859 5.83612 5.68155M5.43543 5.73967L5.43284 5.48968L5.50965 5.48872L5.51124 5.48871V5.48871L5.51949 5.48866C5.57857 5.48831 5.61514 5.48809 5.64057 5.48623C5.64063 5.48574 5.64069 5.48524 5.64075 5.48474L5.64069 5.3634L5.64069 5.36192C5.64112 5.28265 5.64137 5.20455 5.64092 5.12638C5.64054 5.06914 5.64035 5.01191 5.64033 4.95468V4.95435C5.64044 4.83611 5.64041 4.71822 5.63986 4.60049L5.88986 4.59934M5.83612 5.68155C5.87686 5.61095 5.87686 5.61095 5.89076 5.50037M5.83612 5.68155L5.72969 5.50046M5.83612 5.68155L5.61958 5.55661C5.62753 5.54284 5.63183 5.53532 5.6345 5.53045L5.72969 5.50046M5.89076 5.50037L5.89069 5.36327C5.89112 5.2837 5.89137 5.20451 5.89091 5.12494C5.89054 5.06816 5.89035 5.01138 5.89033 4.95459C5.89044 4.83618 5.89041 4.71776 5.88986 4.59934M5.89076 5.50037L5.72969 5.50046M5.89076 5.50037L5.71679 5.4785L5.70945 5.46602C5.70315 5.46972 5.69748 5.47279 5.69171 5.47535L5.72969 5.50046M5.88986 4.59934L5.63987 4.60073C5.639 4.4455 5.63837 4.29091 5.63859 4.13577V4.13571C5.63878 4.01611 5.63879 3.89623 5.63852 3.7764C5.63852 3.77638 5.63852 3.77636 5.63852 3.77635C5.63852 3.7763 5.63852 3.77625 5.63852 3.7762L5.63803 3.60404L5.63803 3.60316C5.63812 3.52065 5.63815 3.43897 5.63765 3.35749C5.63764 3.35743 5.63764 3.35737 5.63764 3.35731L5.63707 3.28181L5.63706 3.28048C5.63704 3.26847 5.63704 3.25767 5.63704 3.2478C5.63704 3.22108 5.63704 3.20111 5.63648 3.18195C5.63577 3.15779 5.6343 3.14466 5.63266 3.13582C5.63129 3.12846 5.62896 3.11724 5.61635 3.0942C5.5935 3.07873 5.57744 3.06988 5.5635 3.0637C5.54716 3.05647 5.52648 3.04972 5.49103 3.04429L5.38728 3.04435L5.38585 3.04435V3.04434L5.24948 3.04364M5.24948 3.04364C5.17573 3.04417 5.10072 3.04468 5.02557 3.04471L5.0252 3.04471C4.92019 3.0446 4.81562 3.04463 4.71122 3.04518L4.7099 2.79518M4.7099 2.79518L4.71149 3.04517C4.57522 3.04604 4.43804 3.04668 4.30064 3.04646L4.30057 3.04646C4.19457 3.04626 4.08829 3.04625 3.98207 3.04653C3.98205 3.04653 3.98204 3.04653 3.98203 3.04653L3.82932 3.04702L3.82844 3.04702V3.04702L3.7902 3.04699L3.79016 3.05047L3.54334 3.05106C3.41256 3.05137 3.34541 3.05802 3.27539 3.09044C3.24718 3.11952 3.23593 3.13478 3.22926 3.14628C3.22375 3.15576 3.21624 3.17136 3.20875 3.20972L3.20845 3.31764L3.20845 3.31935L3.20844 3.31935C3.20771 3.39498 3.20705 3.46832 3.20742 3.5417L2.95742 3.54296M4.7099 2.79518C4.81509 2.79463 4.92028 2.7946 5.02547 2.79471L4.7099 2.79518ZM3.20704 5.14356L3.20844 5.2892L3.20846 5.29097C3.20863 5.36238 3.21099 5.39725 3.2166 5.42514C3.21997 5.4419 3.22547 5.46068 3.23779 5.48707M3.23779 5.48707C3.23824 5.48804 3.2387 5.48902 3.23918 5.49001C3.24009 5.49022 3.24104 5.49044 3.24203 5.49067M3.23779 5.48707C3.23931 5.48837 3.24071 5.48957 3.24203 5.49067M3.26831 5.49619C3.2566 5.49384 3.24841 5.49213 3.24203 5.49067M3.26831 5.49619L3.24203 5.49067" stroke="#333333" stroke-width="0.5"/>
<path d="M8.15135 20.8411C8.18484 20.8409 8.21825 20.8407 8.25282 20.8405C8.3647 20.84 8.47621 20.8403 8.58809 20.8405C8.66837 20.8403 8.74866 20.8401 8.82895 20.8398C9.04676 20.8391 9.26383 20.8391 9.48313 20.8393C9.66489 20.8395 9.84665 20.8392 10.0295 20.839C10.457 20.8385 10.8881 20.8385 11.3156 20.839C11.7579 20.8394 12.2002 20.8389 12.6425 20.8379C13.0217 20.837 13.4008 20.8368 13.7837 20.837C14.0108 20.8371 14.2371 20.837 14.4639 20.8364C14.6772 20.8358 14.8913 20.836 15.1032 20.8367C15.1816 20.8368 15.2597 20.8367 15.3381 20.8363C15.4448 20.8358 15.5518 20.8362 15.6585 20.8369C15.6896 20.8365 15.7206 20.8362 15.7529 20.8358C15.9012 20.8377 15.9726 20.8448 16.1008 20.927C16.1911 21.0219 16.2105 21.0562 16.222 21.1873C16.2111 21.3233 16.2018 21.3625 16.1012 21.4533C15.986 21.4682 15.8841 21.4733 15.7689 21.472C15.7345 21.4722 15.7001 21.4724 15.6644 21.4727C15.5485 21.4732 15.4329 21.4726 15.3169 21.4721C15.234 21.4722 15.1511 21.4724 15.0682 21.4727C14.843 21.4732 14.6185 21.4728 14.3918 21.4722C14.1561 21.4716 13.9197 21.4719 13.6855 21.472C13.2915 21.4721 12.8938 21.4716 12.4998 21.4707C12.091 21.4698 11.6858 21.4696 11.2769 21.47C10.7863 21.4704 10.2957 21.4703 9.80502 21.4698C9.61769 21.4695 9.42961 21.4695 9.24376 21.4697C9.02297 21.4699 8.80144 21.4695 8.58214 21.4687C8.50111 21.4685 8.42008 21.4685 8.33905 21.4687C8.22866 21.4689 8.11789 21.4684 8.0075 21.4678C7.97527 21.468 7.9432 21.4682 7.90974 21.4685C7.73579 21.4666 7.62094 21.4547 7.47858 21.3411C7.44141 21.2735 7.44141 21.2735 7.44141 21.1917C7.49047 21.0411 7.5269 20.9817 7.66628 20.9055C7.82834 20.8413 7.98111 20.8398 8.1532 20.8409L8.15135 20.8411Z" fill="#333333"/>
<path d="M8.04031 2.98476C8.07421 2.98464 8.10796 2.98451 8.1429 2.98439C8.25664 2.98412 8.37038 2.98465 8.48449 2.98517C8.56589 2.98514 8.64766 2.98506 8.72906 2.98494C8.95059 2.98475 9.17138 2.98526 9.3944 2.98589C9.62597 2.98645 9.85902 2.98641 10.0895 2.98644C10.4798 2.98658 10.8663 2.98714 11.2566 2.98798C11.658 2.98885 12.0557 2.98938 12.4572 2.98951C12.4942 2.98953 12.4942 2.98953 12.5319 2.98954C12.5565 2.98955 12.5809 2.98955 12.6066 2.98956C13.0861 2.98972 13.5619 2.99017 14.0413 2.99075C14.1796 2.9909 14.3175 2.99101 14.4576 2.99111C14.6743 2.9913 14.8925 2.99168 15.1081 2.99221C15.188 2.99238 15.2676 2.99249 15.3475 2.99253C15.456 2.99259 15.5646 2.99289 15.6731 2.99324C15.7049 2.99321 15.7366 2.99317 15.7694 2.99314C15.8928 2.99375 15.9935 2.99633 16.1117 3.03573C16.2061 3.15079 16.2236 3.20719 16.2187 3.35774C16.1861 3.48438 16.1734 3.51875 16.0745 3.59607C15.963 3.60709 15.8597 3.61117 15.7482 3.61031C15.7144 3.61048 15.6805 3.61066 15.646 3.61084C15.5322 3.61129 15.4188 3.61093 15.3051 3.61058C15.2237 3.61073 15.1427 3.61093 15.0613 3.61117C14.8401 3.61168 14.619 3.61148 14.3997 3.61113C14.1685 3.61085 13.9388 3.61111 13.7046 3.61128C13.292 3.6115 12.8794 3.61115 12.4631 3.61058C12.0877 3.61008 11.7123 3.61017 11.3406 3.61068C10.9057 3.61129 10.4708 3.61151 10.0359 3.61118C9.80587 3.611 9.57504 3.61098 9.34459 3.61135C9.12789 3.61167 8.90971 3.61145 8.69412 3.6108C8.61458 3.61065 8.53504 3.6107 8.45549 3.61094C8.34696 3.61125 8.23842 3.61086 8.12989 3.61031C8.08268 3.61068 8.08268 3.61068 8.03473 3.61107C7.83774 3.6091 7.69909 3.57834 7.52551 3.48405C7.4653 3.39515 7.4653 3.39515 7.45117 3.29727C7.57383 3.01 7.7541 2.98198 8.04217 2.9846L8.04031 2.98476Z" fill="#333333"/>
<path d="M11.1067 11.0165C11.1407 11.0163 11.1747 11.0162 11.2097 11.0161C11.3242 11.0156 11.4386 11.0155 11.5531 11.0154C11.6349 11.0151 11.7167 11.0149 11.7984 11.0146C12.0211 11.014 12.2445 11.0136 12.4675 11.0133C12.6065 11.0131 12.7455 11.0128 12.8838 11.0126C13.2927 11.0119 13.7015 11.0114 14.1141 11.0111C14.1892 11.011 14.2639 11.011 14.339 11.0109C14.3638 11.0109 14.3888 11.0109 14.4141 11.0109C14.8155 11.0106 15.2169 11.0096 15.6221 11.0084C16.0347 11.0072 16.4472 11.0065 16.8598 11.0064C17.0918 11.0063 17.3244 11.006 17.5549 11.005C17.7731 11.0042 17.9898 11.004 18.2091 11.0044C18.2894 11.0044 18.3693 11.0042 18.4496 11.0036C18.5589 11.003 18.6678 11.0032 18.777 11.0037C18.809 11.0033 18.841 11.0029 18.8737 11.0025C19.0881 11.0049 19.0881 11.0049 19.2034 11.0933C19.2974 11.2251 19.3097 11.3077 19.2963 11.4706C19.2275 11.5662 19.187 11.5819 19.0733 11.62C18.9633 11.6235 18.854 11.6248 18.7436 11.6243C18.6923 11.6244 18.6923 11.6244 18.6403 11.6244C18.5254 11.6244 18.4105 11.6241 18.2957 11.6238C18.2135 11.6237 18.1314 11.6236 18.0493 11.6236C17.7794 11.6234 17.5103 11.6227 17.239 11.622C17.146 11.6218 17.0531 11.6216 16.9606 11.6214C16.574 11.6205 16.1874 11.6195 15.8009 11.6181C15.7005 11.6178 15.6005 11.6175 15.5002 11.6171C15.4753 11.617 15.4504 11.617 15.4247 11.6169C15.0196 11.6155 14.6181 11.615 14.213 11.6147C13.8004 11.6144 13.3841 11.6134 12.9715 11.6118C12.7388 11.6109 12.5069 11.6103 12.2727 11.6105C12.0538 11.6106 11.8341 11.6099 11.6148 11.6084C11.5345 11.6081 11.4543 11.608 11.3736 11.6083C11.2639 11.6087 11.1547 11.6079 11.045 11.6068C11.0131 11.6072 10.9811 11.6075 10.9484 11.6079C10.7867 11.605 10.7242 11.5969 10.5919 11.4936C10.5202 11.3957 10.5202 11.3957 10.5176 11.3001C10.6395 11.0184 10.8309 11.0166 11.1049 11.0169L11.1067 11.0165Z" fill="#333333"/>
<path d="M11.0695 12.8469C11.1208 12.8466 11.1208 12.8466 11.1732 12.8464C11.2888 12.8459 11.4044 12.8456 11.5197 12.8454C11.6022 12.8451 11.6847 12.8448 11.7672 12.8445C12.0389 12.8435 12.3099 12.8429 12.5812 12.8424C12.6745 12.8422 12.7678 12.842 12.8611 12.8418C13.2477 12.841 13.638 12.8403 14.0245 12.8399C14.1253 12.8398 14.226 12.8397 14.3267 12.8395C14.3518 12.8395 14.3769 12.8395 14.4025 12.8395C14.8077 12.839 15.2128 12.8377 15.6217 12.8362C16.038 12.8346 16.4543 12.8337 16.8706 12.8335C17.1044 12.8334 17.3389 12.8329 17.5731 12.8317C17.7932 12.8306 18.0117 12.8304 18.2347 12.8308C18.3158 12.8308 18.3964 12.8305 18.4774 12.8299C18.5875 12.829 18.6979 12.8293 18.8079 12.8299C18.8401 12.8294 18.8722 12.8289 18.9056 12.8283C19.1212 12.8312 19.1212 12.8312 19.2387 12.9404C19.3048 13.0607 19.313 13.1279 19.293 13.2635C19.2571 13.3439 19.2571 13.3439 19.1814 13.413C19.0658 13.4279 18.9633 13.4331 18.8473 13.4319C18.8127 13.4322 18.7782 13.4324 18.7425 13.4326C18.6261 13.4332 18.5098 13.4328 18.3931 13.4323C18.3098 13.4325 18.2266 13.4328 18.1433 13.4331C17.9166 13.4338 17.6898 13.4335 17.4631 13.433C17.2263 13.4327 16.991 13.433 16.7532 13.4332C16.3294 13.4335 15.9057 13.4331 15.482 13.4323C15.0991 13.4316 14.7163 13.4318 14.3297 13.4324C13.8837 13.4332 13.4376 13.4335 12.9916 13.4331C12.7556 13.4329 12.5195 13.4328 12.2854 13.4333C12.0635 13.4338 11.843 13.4335 11.62 13.4326C11.5386 13.4324 11.4569 13.4325 11.3755 13.4328C11.2643 13.4332 11.1536 13.4327 11.0424 13.4319C11.01 13.4323 10.9774 13.4326 10.9439 13.433C10.7257 13.4301 10.7257 13.4301 10.6101 13.3414C10.5176 13.2114 10.5176 13.2114 10.5176 13.1139C10.6703 12.8438 10.7759 12.8468 11.0677 12.8468L11.0695 12.8469Z" fill="#333333"/>
<path d="M8.00361 19.048C8.0549 19.0478 8.0549 19.0478 8.10694 19.0475C8.22179 19.047 8.33665 19.0471 8.4515 19.0472C8.53365 19.047 8.61579 19.0467 8.69794 19.0464C8.92132 19.0458 9.14397 19.0456 9.36699 19.0455C9.55358 19.0455 9.73868 19.0452 9.92453 19.0449C10.3408 19.0443 10.7534 19.0441 11.1697 19.0442C11.1946 19.0442 11.2195 19.0442 11.2452 19.0442C11.2827 19.0442 11.2827 19.0442 11.3206 19.0442C11.7258 19.0442 12.1272 19.0435 12.5324 19.0425C12.9487 19.0414 13.3612 19.0409 13.7775 19.0409C14.0102 19.041 14.2422 19.0407 14.4763 19.0399C14.6953 19.0392 14.9149 19.0392 15.1342 19.0398C15.2145 19.0398 15.2952 19.0397 15.3755 19.0392C15.4851 19.0386 15.5948 19.039 15.704 19.0396C15.7361 19.0392 15.768 19.0388 15.801 19.0384C16.0151 19.0409 16.0151 19.0409 16.1319 19.1258C16.2103 19.2409 16.2222 19.3305 16.2248 19.4691C16.1901 19.5509 16.1901 19.5509 16.1133 19.6185C15.9977 19.6334 15.8951 19.6385 15.7791 19.6373C15.7271 19.6376 15.7271 19.6376 15.6743 19.6379C15.558 19.6384 15.4416 19.6378 15.3249 19.6373C15.2416 19.6374 15.1584 19.6376 15.0751 19.6379C14.8484 19.6384 14.6217 19.638 14.3949 19.6374C14.1581 19.6369 13.9229 19.6371 13.685 19.6372C13.2873 19.6373 12.8896 19.6368 12.4918 19.636C12.083 19.6351 11.6741 19.6348 11.2652 19.6352C10.7709 19.6357 10.2802 19.6356 9.78589 19.635C9.59744 19.6348 9.41048 19.6348 9.22091 19.6349C8.99901 19.6351 8.77859 19.6347 8.55558 19.6339C8.47417 19.6337 8.3924 19.6337 8.311 19.6339C8.19986 19.6341 8.0891 19.6337 7.97796 19.633C7.92927 19.6333 7.92927 19.6333 7.87946 19.6337C7.66165 19.6314 7.66165 19.6314 7.54568 19.5657C7.47691 19.4921 7.4561 19.4585 7.45312 19.3569C7.57058 19.0618 7.71257 19.0468 8.00695 19.0479L8.00361 19.048Z" fill="#333333"/>
<path d="M8.00318 4.81523C8.03749 4.81501 8.07195 4.81479 8.10726 4.81456C8.22249 4.81391 8.33808 4.8138 8.45331 4.81369C8.53582 4.81334 8.61834 4.81297 8.70086 4.81256C8.92536 4.81158 9.15061 4.8111 9.37363 4.81077C9.51376 4.81055 9.65389 4.81024 9.79364 4.80991C10.1802 4.80901 10.5705 4.80823 10.9571 4.80798C10.9942 4.80795 10.9942 4.80795 11.0321 4.80793C11.057 4.80791 11.0819 4.80789 11.1076 4.80788C11.1581 4.80784 11.2083 4.80781 11.2589 4.80778C11.2964 4.80775 11.2964 4.80775 11.3347 4.80773C11.7398 4.80743 12.145 4.80613 12.5501 4.80439C12.9664 4.80262 13.3827 4.80171 13.799 4.8016C14.0328 4.80152 14.2674 4.80107 14.5015 4.79974C14.7212 4.79852 14.9401 4.79835 15.1594 4.79901C15.2401 4.79907 15.3211 4.79874 15.4018 4.798C15.5118 4.79706 15.6218 4.79749 15.7319 4.79827C15.764 4.79767 15.7962 4.79707 15.8292 4.79645C15.9144 4.79787 15.9861 4.80142 16.0679 4.82574C16.1868 4.95648 16.2177 5.01214 16.2121 5.18996C16.1796 5.31137 16.1796 5.31137 16.105 5.38608C15.9939 5.39355 15.8865 5.39632 15.7753 5.39583C15.7408 5.39597 15.7062 5.39612 15.6705 5.39626C15.5538 5.39665 15.4375 5.3965 15.3208 5.39635C15.2375 5.39651 15.1542 5.39671 15.071 5.39693C14.8442 5.39743 14.6175 5.39745 14.3908 5.39736C14.202 5.39732 14.0117 5.3975 13.8221 5.39768C13.35 5.39812 12.878 5.39809 12.4096 5.39785C12.0008 5.39765 11.5919 5.39807 11.183 5.39878C10.763 5.39951 10.343 5.3998 9.92299 5.39968C9.68697 5.39961 9.45094 5.39971 9.21677 5.40022C8.99487 5.40069 8.77445 5.40062 8.55144 5.40013C8.47003 5.40005 8.38826 5.40015 8.30686 5.40046C8.19572 5.40085 8.08459 5.40055 7.97345 5.40007C7.92476 5.40049 7.92476 5.40049 7.87495 5.40091C7.65714 5.39894 7.65714 5.39894 7.54079 5.33329C7.47203 5.2597 7.45122 5.22608 7.44824 5.12447C7.56607 4.82861 7.70843 4.81441 8.00207 4.81516L8.00318 4.81523Z" fill="#333333"/>
</svg>
