<svg width="20" height="19" viewBox="0 0 20 19" fill="none" xmlns="http://www.w3.org/2000/svg">
<path d="M9.23516 0.233057C9.15781 0.271729 9.05898 0.353369 9.01172 0.417823C8.87852 0.606885 8.23828 2.42017 8.23828 2.61353C8.23828 3.22368 8.96875 3.50728 9.40273 3.0647C9.55742 2.91431 10.232 1.07095 10.232 0.821729C10.2234 0.323292 9.69063 0.00532269 9.23516 0.233057Z" fill="white"/>
<path d="M4.69264 1.01507C4.62389 1.05804 4.53366 1.13109 4.49498 1.17406C4.38756 1.29867 4.31881 1.56078 4.34889 1.70687C4.37897 1.84007 5.06647 3.34398 5.23834 3.64476C5.41881 3.96703 5.88288 4.08734 6.17936 3.88539C6.37272 3.75648 6.5317 3.4514 6.50592 3.25375C6.48873 3.12484 6.261 2.60492 5.7067 1.43617C5.53053 1.07093 5.35006 0.933434 5.03639 0.933434C4.90319 0.933434 4.77428 0.963512 4.69264 1.01507Z" fill="white"/>
<path d="M12.1477 3.24078C11.9242 3.32672 10.3 4.09586 10.2012 4.16461C9.94339 4.34937 9.87034 4.78765 10.0551 5.06265C10.184 5.26031 10.4891 5.415 10.6867 5.38492C10.8328 5.36343 12.0746 4.80484 12.5817 4.53843C13.1403 4.24195 13.1617 3.58023 12.6203 3.30523C12.4356 3.215 12.2809 3.19351 12.1477 3.24078Z" fill="white"/>
<path d="M1.18669 3.99702C1.10935 4.04858 0.997629 4.1603 0.946067 4.23765C0.761301 4.51265 0.851536 4.93804 1.13513 5.1271C1.29841 5.23452 3.17185 5.91772 3.30935 5.91772C3.36091 5.91772 3.49411 5.87476 3.59724 5.8189C4.03982 5.59976 4.11286 5.02397 3.73474 4.7103C3.56716 4.56421 1.7238 3.89819 1.50036 3.89819C1.39724 3.89819 1.27693 3.93687 1.18669 3.99702Z" fill="white"/>
<path d="M7.10376 4.59C5.90064 4.89078 5.20025 6.21422 5.63853 7.35719C5.69439 7.49899 6.2229 8.65485 6.81587 9.93102C7.41314 11.2029 7.89009 12.2513 7.8815 12.2599C7.8729 12.2685 7.70532 12.217 7.50337 12.1439C7.07798 11.9849 6.58384 11.9377 6.20572 12.015C5.65142 12.131 5.01548 12.5822 4.74478 13.0505C4.34087 13.7552 4.34087 14.6275 4.74907 15.3236C4.92095 15.6158 5.31626 15.981 5.62134 16.1314C5.77173 16.2045 6.80298 16.6041 7.90728 17.0209C9.01587 17.4377 10.017 17.8287 10.1374 17.8931C10.4768 18.0779 10.726 18.3916 11.0698 19.0576C11.3319 19.5689 11.3963 19.6634 11.5424 19.7451C12.0022 20.0072 12.5479 19.7021 12.5522 19.1822C12.5565 18.9931 12.5178 18.8857 12.303 18.4646C11.8131 17.5021 11.4866 17.1068 10.9022 16.763C10.5542 16.5568 10.1245 16.3849 7.76548 15.4955C6.18853 14.9025 6.03384 14.8252 5.88775 14.5373C5.70298 14.1763 5.88345 13.6521 6.26157 13.4459C6.58384 13.274 6.76431 13.3127 8.02759 13.8412C9.24361 14.3439 9.394 14.3783 9.6604 14.1978C9.85806 14.0689 10.0127 13.7638 9.98267 13.5619C9.96978 13.4759 9.26509 11.9291 8.4229 10.1244C7.03501 7.15524 6.88892 6.82008 6.88892 6.62242C6.88892 5.99508 7.62798 5.69 8.11353 6.11969C8.1522 6.14977 8.50884 6.87594 8.90845 7.73102C9.69048 9.4111 9.77642 9.54 10.1846 9.73336C10.4381 9.85367 10.8077 9.89235 11.117 9.83649C11.2459 9.81071 11.6241 9.66891 11.9549 9.51422C12.6983 9.17047 13.0249 9.08453 13.5877 9.08453C14.6362 9.08883 15.6073 9.61305 16.1616 10.4853C16.3936 10.8505 17.644 13.5791 17.7127 13.8755C17.8846 14.6017 17.7557 15.2119 17.2573 16.0584C17.1928 16.1701 17.1756 16.2646 17.1885 16.4279C17.2143 16.8103 17.4721 17.0552 17.8417 17.0552C18.2069 17.0552 18.4346 16.8404 18.744 16.2088C19.1995 15.2892 19.2768 14.1978 18.9588 13.2396C18.7827 12.7111 17.4936 10.0041 17.2401 9.63024C16.2045 8.10055 14.2624 7.37867 12.4405 7.84703C12.26 7.8943 11.8303 8.05758 11.4909 8.21227C11.1471 8.36696 10.8506 8.49586 10.8249 8.49586C10.8034 8.49586 10.4768 7.83844 10.103 7.03063C9.36822 5.45367 9.21782 5.21305 8.80103 4.92086C8.44439 4.67164 8.1522 4.57711 7.67954 4.55992C7.45611 4.55133 7.19829 4.56422 7.10376 4.59Z" fill="white"/>
<path d="M2.65219 7.65796C2.09789 7.91577 1.64672 8.1564 1.59086 8.21655C1.19555 8.66343 1.51352 9.35522 2.11508 9.35522C2.25687 9.35522 3.11625 8.98569 3.95844 8.5603C4.26352 8.40991 4.31508 8.36265 4.40531 8.18647C4.49125 8.0189 4.50414 7.94585 4.48266 7.78687C4.44828 7.57632 4.30219 7.37007 4.10883 7.27124C3.84672 7.13374 3.67914 7.18101 2.65219 7.65796Z" fill="white"/>
</svg>
