<svg width="22" height="22" viewBox="0 0 22 22" fill="none" xmlns="http://www.w3.org/2000/svg">
<path d="M20.845 3.18997C20.625 2.96997 20.24 3.02497 20.075 3.24497C19.855 3.46497 19.91 3.84997 20.13 4.01497C20.625 4.39997 20.9 5.00498 20.9 5.60998V18.37C20.9 19.47 19.965 20.405 18.865 20.405H3.13501C2.03501 20.405 1.1 19.47 1.1 18.37V5.60998C1.1 4.50998 2.03501 3.57498 3.13501 3.57498H11.385C11.715 3.57498 11.935 3.35498 11.935 3.02498C11.935 2.69498 11.715 2.47498 11.385 2.47498H3.13501C1.37501 2.47498 0 3.84998 0 5.60998V18.315C0 20.02 1.43001 21.45 3.13501 21.45H18.81C20.57 21.45 22 20.075 22 18.37V5.60998C22 4.67498 21.56 3.79497 20.845 3.18997Z" fill="#333333"/>
<path d="M15.455 18.7C15.565 18.865 15.73 19.03 15.95 19.03C16.17 19.03 16.335 18.92 16.445 18.7L18.095 15.345C18.15 15.29 18.15 15.18 18.15 15.125V2.2C18.15 0.99 17.16 0 15.95 0C14.74 0 13.75 0.99 13.75 2.2V15.125C13.75 15.235 13.75 15.29 13.805 15.345L15.455 18.7ZM15.95 17.215L15.18 15.675H16.72L15.95 17.215ZM14.85 2.2C14.85 1.595 15.345 1.1 15.95 1.1C16.555 1.1 17.05 1.595 17.05 2.2V6.93H14.85V2.2ZM14.85 8.03H17.05V9.13H14.85V8.03ZM14.85 10.285H17.05V14.575H14.85V10.285Z" fill="#333333"/>
<path d="M10.9447 8.90991H3.35469C3.02469 8.90991 2.80469 9.12991 2.80469 9.45991C2.80469 9.78991 3.02469 10.0099 3.35469 10.0099H10.9997C11.2747 10.0099 11.4947 9.78991 11.4947 9.45991C11.4947 9.12991 11.2747 8.90991 10.9447 8.90991Z" fill="#333333"/>
<path d="M10.9447 11.11H3.35469C3.02469 11.11 2.80469 11.33 2.80469 11.66C2.80469 11.99 3.02469 12.21 3.35469 12.21H10.9997C11.2747 12.21 11.4947 11.99 11.4947 11.66C11.4947 11.33 11.2747 11.11 10.9447 11.11Z" fill="#333333"/>
<path d="M10.9447 13.3099H3.35469C3.02469 13.3099 2.80469 13.5299 2.80469 13.8599C2.80469 14.1899 3.02469 14.4099 3.35469 14.4099H10.9997C11.2747 14.4099 11.4947 14.1899 11.4947 13.8599C11.4947 13.5299 11.2747 13.3099 10.9447 13.3099Z" fill="#333333"/>
</svg>
