<svg width="17" height="16" viewBox="0 0 17 16" fill="none" xmlns="http://www.w3.org/2000/svg">
<path fill-rule="evenodd" clip-rule="evenodd" d="M3.35417 3.3234C3.17736 3.3234 3.00779 3.39364 2.88276 3.51867C2.75774 3.64369 2.6875 3.81326 2.6875 3.99007V4.65674H13.3542V3.99007C13.3542 3.81326 13.2839 3.64369 13.1589 3.51867C13.0339 3.39364 12.8643 3.3234 12.6875 3.3234H3.35417ZM10.7875 13.3234H5.25083C5.09313 13.3234 4.94054 13.2674 4.82019 13.1655C4.69984 13.0636 4.61952 12.9223 4.5935 12.7667L3.35417 5.32341H12.6875L11.4448 12.7674C11.4188 12.9229 11.3384 13.0641 11.2181 13.1659C11.0977 13.2677 10.9451 13.3235 10.7875 13.3234ZM6.02083 2.99007C6.02082 2.9027 6.05511 2.81881 6.11633 2.75647C6.17755 2.69412 6.26081 2.65831 6.34817 2.65674H9.6935C9.78086 2.65831 9.86411 2.69412 9.92533 2.75647C9.98655 2.81881 10.0208 2.9027 10.0208 2.99007V3.3234H6.02083V2.99007Z" fill="#333333"/>
</svg>
