<svg width="20" height="5" viewBox="0 0 20 5" fill="none" xmlns="http://www.w3.org/2000/svg">
<path d="M2.47574 0C1.10747 0 0 1.10685 0 2.4745C0 3.84215 1.10622 4.94962 2.47574 4.94962C3.84152 4.94962 4.95024 3.84402 4.95024 2.4745C4.95024 1.10685 3.84152 0 2.47574 0ZM10.1282 0C8.76306 0 7.65247 1.10622 7.65247 2.47387C7.65247 3.84152 8.76182 4.94899 10.1282 4.94899C11.4946 4.94899 12.6052 3.84339 12.6052 2.47387C12.604 1.10685 11.4946 0 10.1282 0ZM17.5261 0C16.1585 0 15.0498 1.10685 15.0498 2.47512C15.0498 3.84152 16.1566 4.94899 17.5261 4.94899C18.8913 4.94899 20 3.84339 20 2.47512C20 1.10685 18.8913 0 17.5261 0Z" fill="#333333"/>
</svg>
