<svg width="17" height="17" viewBox="0 0 17 17" fill="none" xmlns="http://www.w3.org/2000/svg">
<path fill-rule="evenodd" clip-rule="evenodd" d="M11.0165 0.797353C11.269 0.544577 11.5689 0.344051 11.899 0.207236C12.229 0.0704205 12.5828 0 12.9401 0C13.2974 0 13.6512 0.0704205 13.9813 0.207236C14.3114 0.344051 14.6112 0.544577 14.8638 0.797353L15.7025 1.63748C16.213 2.14848 16.4997 2.84122 16.4997 3.56351C16.4997 4.28579 16.213 4.97854 15.7025 5.48954L5.28413 15.9024C4.90192 16.2846 4.38364 16.4995 3.84313 16.4999H0.680625C0.500112 16.4999 0.326992 16.4281 0.19935 16.3005C0.0717084 16.1729 0 15.9997 0 15.8192V12.6554C0 12.1129 0.215187 11.5932 0.598125 11.2095L11.0165 0.797353ZM13.9288 5.33829L14.7407 4.52635C14.996 4.27084 15.1395 3.92439 15.1395 3.56316C15.1395 3.20194 14.996 2.85549 14.7407 2.59998L13.9019 1.76054C13.7757 1.63419 13.6257 1.53397 13.4607 1.46558C13.2957 1.3972 13.1188 1.36201 12.9401 1.36201C12.7615 1.36201 12.5846 1.3972 12.4196 1.46558C12.2545 1.53397 12.1046 1.63419 11.9783 1.76054L11.1657 2.57248L13.9288 5.33829Z" fill="white"/>
</svg>
