<svg width="30" height="30" viewBox="0 0 30 30" fill="none" xmlns="http://www.w3.org/2000/svg">
<path d="M11.3762 29.6139V19.6389H8.28375V15.0552H11.3762V13.0802C11.3762 7.97393 13.6862 5.60768 18.6987 5.60768C19.2 5.60768 19.8925 5.66018 20.5338 5.73643C21.0141 5.78585 21.4905 5.86728 21.96 5.98018V10.1364C21.6886 10.1111 21.4163 10.0961 21.1438 10.0914C20.8384 10.0835 20.533 10.0798 20.2275 10.0802C19.3437 10.0802 18.6537 10.2002 18.1338 10.4664C17.7842 10.6418 17.4903 10.911 17.285 11.2439C16.9625 11.7689 16.8175 12.4877 16.8175 13.4339V15.0552H21.7162L21.2337 17.6839L20.875 19.6389H16.8175V29.9452C24.245 29.0477 30 22.7239 30 15.0552C30 6.77143 23.2838 0.0551758 15 0.0551758C6.71625 0.0551758 0 6.77143 0 15.0552C0 22.0902 4.8425 27.9927 11.3762 29.6139Z" fill="#0866FF"/>
</svg>
