<svg width="25" height="24" viewBox="0 0 25 24" fill="none" xmlns="http://www.w3.org/2000/svg">
<g clip-path="url(#clip0_360_1148)">
<path d="M12.8802 4.75C14.6502 4.75 16.2352 5.36 17.4852 6.55L20.9102 3.125C18.8302 1.19 16.1152 0 12.8802 0C8.19016 0 4.13516 2.69 2.16016 6.61L6.15016 9.705C7.09516 6.86 9.75016 4.75 12.8802 4.75Z" fill="#EA4335"/>
<path d="M24.3699 12.275C24.3699 11.49 24.2949 10.73 24.1799 10H12.8799V14.51H19.3499C19.0599 15.99 18.2199 17.25 16.9599 18.1L20.8249 21.1C23.0799 19.01 24.3699 15.92 24.3699 12.275Z" fill="#4285F4"/>
<path d="M6.14488 14.295C5.90488 13.57 5.76488 12.8 5.76488 12C5.76488 11.2 5.89988 10.43 6.14488 9.70499L2.15488 6.60999C1.33988 8.22999 0.879883 10.06 0.879883 12C0.879883 13.94 1.33988 15.77 2.15988 17.39L6.14488 14.295Z" fill="#FBBC05"/>
<path d="M12.8803 24C16.1203 24 18.8453 22.935 20.8253 21.095L16.9603 18.095C15.8853 18.82 14.5003 19.245 12.8803 19.245C9.75027 19.245 7.09527 17.135 6.14527 14.29L2.15527 17.385C4.13527 21.31 8.19027 24 12.8803 24Z" fill="#34A853"/>
</g>
<defs>
<clipPath id="clip0_360_1148">
<rect width="24" height="24" fill="white" transform="translate(0.879883)"/>
</clipPath>
</defs>
</svg>
