<?xml version="1.0" standalone="no"?>
<!DOCTYPE svg PUBLIC "-//W3C//DTD SVG 20010904//EN"
 "http://www.w3.org/TR/2001/REC-SVG-20010904/DTD/svg10.dtd">
<svg version="1.0" xmlns="http://www.w3.org/2000/svg"
 width="96.000000pt" height="96.000000pt" viewBox="0 0 96.000000 96.000000"
 preserveAspectRatio="xMidYMid meet">

<g transform="translate(0.000000,96.000000) scale(0.100000,-0.100000)"
fill="#000000" stroke="none">
<path d="M580 763 c-62 -24 -102 -81 -102 -149 0 -57 27 -103 78 -131 103 -59
224 13 224 133 0 62 -27 107 -79 134 -39 19 -89 25 -121 13z"/>
<path d="M233 675 c-68 -29 -97 -141 -52 -199 42 -53 100 -68 164 -42 98 41
98 201 0 242 -43 17 -71 17 -112 -1z"/>
<path d="M530 426 c-117 -25 -180 -81 -180 -161 0 -75 2 -75 283 -75 243 0
246 0 261 22 22 31 20 86 -4 125 -24 40 -96 78 -175 92 -72 13 -114 13 -185
-3z"/>
<path d="M197 399 c-94 -22 -147 -71 -147 -135 0 -68 12 -74 150 -74 l118 0
-5 59 c-5 51 -2 66 20 105 21 37 22 46 10 50 -21 8 -101 6 -146 -5z"/>
</g>
</svg>
