<svg width="22" height="22" viewBox="0 0 22 22" fill="none" xmlns="http://www.w3.org/2000/svg">
<path d="M12.0011 3.99437C11.877 4.1288 11.8097 4.30604 11.8134 4.48896C11.8171 4.67188 11.8914 4.84628 12.0208 4.9756C12.1503 5.10493 12.3247 5.17915 12.5076 5.1827C12.6906 5.18626 12.8678 5.11888 13.0021 4.99468C13.5347 4.4716 14.2523 4.18004 14.9988 4.18343C15.7453 4.18682 16.4602 4.4849 16.988 5.01279C17.5158 5.54068 17.8137 6.25567 17.817 7.00215C17.8203 7.74863 17.5286 8.46619 17.0054 8.99868L14.0382 11.9652C13.5072 12.496 12.7872 12.7942 12.0365 12.7942C11.2858 12.7942 10.5658 12.496 10.0348 11.9652C9.90082 11.8389 9.72285 11.7698 9.53869 11.7725C9.35454 11.7753 9.1787 11.8496 9.04847 11.9799C8.91824 12.1101 8.84387 12.2859 8.84114 12.4701C8.83841 12.6542 8.90754 12.8322 9.03385 12.9662C9.83024 13.7625 10.9103 14.2099 12.0365 14.2099C13.1627 14.2099 14.2428 13.7625 15.0392 12.9662L18.0064 9.99899C18.7874 9.19948 19.2218 8.12429 19.2153 7.00662C19.2087 5.88895 18.7618 4.81891 17.9715 4.02859C17.1812 3.23826 16.1111 2.79137 14.9935 2.78483C13.8758 2.7783 12.8006 3.21334 12.0011 3.99437Z" fill="white"/>
<path d="M3.99374 12.001C3.59183 12.3936 3.27182 12.8621 3.05226 13.3793C2.8327 13.8965 2.71796 14.4521 2.71467 15.014C2.71139 15.5758 2.81963 16.1327 3.03313 16.6524C3.24662 17.1722 3.56113 17.6443 3.95843 18.0416C4.35572 18.4389 4.82791 18.7534 5.34763 18.9669C5.86734 19.1804 6.42426 19.2887 6.98611 19.2854C7.54797 19.2821 8.10358 19.1674 8.62077 18.9478C9.13795 18.7282 9.60643 18.4082 9.99905 18.0063C10.1254 17.8723 10.1945 17.6943 10.1918 17.5102C10.189 17.326 10.1147 17.1502 9.98443 17.0199C9.8542 16.8897 9.67836 16.8153 9.49421 16.8126C9.31006 16.8099 9.13209 16.879 8.99805 17.0053C8.73673 17.2751 8.42435 17.4901 8.07911 17.638C7.73387 17.7858 7.36266 17.8635 6.98711 17.8664C6.61155 17.8694 6.23916 17.7976 5.89162 17.6553C5.54408 17.5129 5.22833 17.3029 4.96276 17.0373C4.6972 16.7717 4.48713 16.456 4.34478 16.1084C4.20243 15.7609 4.13066 15.3885 4.13363 15.013C4.13661 14.6374 4.21428 14.2662 4.36212 13.921C4.50995 13.5757 4.725 13.2633 4.99474 13.002L8.26518 9.73089C8.52808 9.46797 8.84019 9.2594 9.18369 9.11711C9.5272 8.97482 9.89537 8.90158 10.2672 8.90158C10.639 8.90158 11.0072 8.97482 11.3507 9.11711C11.6942 9.2594 12.0063 9.46797 12.2692 9.73089C12.4036 9.85499 12.5809 9.92225 12.7638 9.91857C12.9467 9.91489 13.1211 9.84055 13.2504 9.71114C13.3797 9.58172 13.454 9.40728 13.4575 9.22435C13.4611 9.04143 13.3937 8.86423 13.2695 8.72989C12.4731 7.9336 11.393 7.48627 10.2668 7.48627C9.14065 7.48627 8.06057 7.9336 7.26418 8.72989L3.99374 12.001Z" fill="white"/>
</svg>
