<svg width="22" height="23" viewBox="0 0 22 23" fill="none" xmlns="http://www.w3.org/2000/svg">
<path d="M5.96517 7.76208L6.21823 7.99099L6.45348 7.74381L8.65055 5.43533C8.79244 5.294 8.99006 5.2049 9.1708 5.1876C9.35321 5.17015 9.46454 5.2262 9.51945 5.29978L9.54602 5.33538L9.58064 5.36322C9.76131 5.50848 9.83087 5.67039 9.83788 5.81136C9.84502 5.95472 9.78929 6.11248 9.65184 6.25062L9.65171 6.25048L9.64376 6.25902L6.74796 9.37009C6.67029 9.44751 6.60598 9.49226 6.54471 9.51963C6.48399 9.54675 6.40889 9.56457 6.29995 9.56457C6.13916 9.56457 6.05601 9.56289 5.98874 9.54786C5.94025 9.53703 5.90018 9.51909 5.84806 9.4667L5.8408 9.45941L5.83313 9.45255L4.04132 7.85183C3.73554 7.53922 3.72919 7.16532 3.94806 6.94536C4.23784 6.65413 4.63358 6.59713 4.97329 6.86491L5.96517 7.76208Z" stroke="#333333" stroke-width="0.7"/>
<path d="M13.45 8.50756V8.85756H13.8H21.65V22.0269H8.55V14.1357V13.7857H8.2H0.35V0.616357H13.45V8.50756ZM2 1.92641H1.65V2.27641V12.1257V12.4757H2H11.8H12.15V12.1257V2.27641V1.92641H11.8H2ZM20 20.7169H20.35V20.3669V10.5176V10.1676H20H13.8H13.45V10.5176V13.7857H10.2H9.85V14.1357V20.3669V20.7169H10.2H20Z" fill="#D9D9D9" stroke="#333333" stroke-width="0.7"/>
<path d="M12.2504 15.1911C12.2504 15.0797 12.2949 14.9928 12.3861 14.9241C12.4853 14.8493 12.6551 14.7873 12.9004 14.7873H17.3004C17.5457 14.7873 17.7155 14.8493 17.8147 14.9241C17.9059 14.9928 17.9504 15.0797 17.9504 15.1911C17.9504 15.3025 17.9059 15.3893 17.8147 15.4581C17.7155 15.5329 17.5457 15.5949 17.3004 15.5949H12.9004C12.6551 15.5949 12.4853 15.5329 12.3861 15.4581C12.2949 15.3893 12.2504 15.3025 12.2504 15.1911Z" stroke="#333333" stroke-width="0.7"/>
</svg>
