<svg width="20" height="20" viewBox="0 0 20 20" fill="none" xmlns="http://www.w3.org/2000/svg">
<path fill-rule="evenodd" clip-rule="evenodd" d="M17.325 5.19127C17.382 5.25036 17.4267 5.3201 17.4567 5.39649C17.4868 5.47288 17.5014 5.55444 17.4999 5.63651C17.4984 5.71857 17.4808 5.79953 17.448 5.87477C17.4152 5.95001 17.3679 6.01806 17.3088 6.07502L8.87126 14.2C8.75478 14.3123 8.5993 14.375 8.43751 14.375C8.27573 14.375 8.12024 14.3123 8.00376 14.2L3.94126 10.2881C3.88217 10.2312 3.83487 10.1631 3.80207 10.0879C3.76927 10.0127 3.75161 9.9317 3.75011 9.84963C3.74706 9.6839 3.80997 9.52374 3.92501 9.40439C4.04005 9.28504 4.19779 9.21628 4.36352 9.21324C4.52926 9.21019 4.68941 9.2731 4.80876 9.38814L8.43751 12.8819L16.4413 5.17502C16.5004 5.11805 16.5701 5.07329 16.6465 5.04328C16.7229 5.01327 16.8044 4.9986 16.8865 5.00011C16.9686 5.00161 17.0495 5.01927 17.1248 5.05207C17.2 5.08487 17.2681 5.13217 17.325 5.19127Z" fill="black"/>
</svg>
