<svg width="25" height="25" viewBox="0 0 25 25" fill="none" xmlns="http://www.w3.org/2000/svg">
<path d="M14.7191 11.9836L14.7192 11.9835L14.727 11.988C17.0635 13.3264 19.8118 11.7136 19.8118 8.95831C19.8118 8.2248 19.6527 7.61945 19.3608 7.12649C19.0704 6.63604 18.6323 6.22937 18.0298 5.91543C17.5772 5.6958 17.0557 5.54925 16.5555 5.49367C16.0489 5.43738 15.601 5.47826 15.2814 5.59747C13.8588 6.14932 12.9473 7.44925 12.9473 9.0104C12.9473 10.3115 13.5503 11.3418 14.7191 11.9836Z" fill="white" stroke="black"/>
<path d="M6.26791 7.87968L6.26792 7.8797L6.26306 7.88178C5.56398 8.17992 5.00867 8.94011 4.77017 9.85582C4.53183 10.7709 4.64631 11.7011 5.10627 12.2957C5.59602 12.9129 6.15749 13.2841 6.75767 13.4382C7.35854 13.5925 8.04178 13.5403 8.79294 13.2357C9.83422 12.7988 10.3976 11.7098 10.3976 10.5469C10.3976 9.38473 9.83496 8.29641 8.79501 7.85892C8.27072 7.65206 7.87646 7.5644 7.50929 7.56703C7.1431 7.56964 6.76285 7.66239 6.26791 7.87968Z" fill="white" stroke="black"/>
<path d="M13.9117 14.3941L13.9117 14.3941L13.9062 14.3953C12.432 14.7103 11.352 15.2102 10.6485 15.8385C9.95902 16.4542 9.61426 17.2059 9.61426 18.099C9.61426 18.6248 9.62661 18.8706 9.69539 19.0291C9.73133 19.1119 9.80254 19.2245 10.1823 19.3244C10.5846 19.4303 11.2248 19.4913 12.2601 19.5218C13.2849 19.5521 14.6514 19.5521 16.484 19.5521C19.6634 19.5521 21.235 19.5516 22.0675 19.4822C22.4887 19.4471 22.6505 19.3982 22.7204 19.3632C22.7575 19.3447 22.7746 19.3342 22.8678 19.1975L22.8677 19.1975L22.8732 19.1898C23.0785 18.9004 23.1954 18.4583 23.1783 17.9464C23.1614 17.4396 23.0141 16.9136 22.7509 16.486L22.7509 16.4861L22.748 16.4812C22.5033 16.0734 21.9704 15.6189 21.2023 15.2146C20.4465 14.8168 19.513 14.4943 18.5322 14.3205L18.5306 14.3202C16.7158 13.9925 15.6899 13.9933 13.9117 14.3941Z" fill="white" stroke="black"/>
<path d="M5.24861 15.0951L5.24862 15.0951L5.24383 15.0963C2.88006 15.6495 1.80176 16.8102 1.80176 18.125C1.80176 18.5705 1.82409 18.8392 1.88238 19.0191C1.92782 19.1593 1.99043 19.2361 2.12862 19.3043C2.30298 19.3904 2.59922 19.4603 3.12099 19.5016C3.63345 19.5422 4.30842 19.5521 5.20801 19.5521H7.73676L7.65278 18.5612C7.58749 17.8943 7.56706 17.4033 7.6564 16.9372C7.74716 16.4636 7.94371 16.0539 8.23606 15.5356L8.23671 15.5345C8.37104 15.2978 8.46777 15.1156 8.53404 14.974C8.54581 14.9489 8.55625 14.9258 8.56551 14.9046C8.48183 14.8918 8.37302 14.8795 8.23774 14.8702C7.96778 14.8517 7.63664 14.8475 7.28078 14.8585C6.5635 14.8807 5.78782 14.9633 5.24861 15.0951ZM8.7828 14.9569C8.78286 14.9569 8.78179 14.9564 8.77941 14.9555C8.78154 14.9565 8.78274 14.9569 8.7828 14.9569Z" fill="white" stroke="black"/>
</svg>
