<svg width="15" height="15" viewBox="0 0 15 15" fill="none" xmlns="http://www.w3.org/2000/svg">
<path d="M8.25 0.75C8.25 0.551088 8.17098 0.360322 8.03033 0.21967C7.88968 0.0790178 7.69891 0 7.5 0C7.30109 0 7.11032 0.0790178 6.96967 0.21967C6.82902 0.360322 6.75 0.551088 6.75 0.75V6.75H0.75C0.551088 6.75 0.360322 6.82902 0.21967 6.96967C0.0790178 7.11032 0 7.30109 0 7.5C0 7.69891 0.0790178 7.88968 0.21967 8.03033C0.360322 8.17098 0.551088 8.25 0.75 8.25H6.75V14.25C6.75 14.4489 6.82902 14.6397 6.96967 14.7803C7.11032 14.921 7.30109 15 7.5 15C7.69891 15 7.88968 14.921 8.03033 14.7803C8.17098 14.6397 8.25 14.4489 8.25 14.25V8.25H14.25C14.4489 8.25 14.6397 8.17098 14.7803 8.03033C14.921 7.88968 15 7.69891 15 7.5C15 7.30109 14.921 7.11032 14.7803 6.96967C14.6397 6.82902 14.4489 6.75 14.25 6.75H8.25V0.75Z" fill="black"/>
</svg>
