<svg width="22" height="23" viewBox="0 0 22 23" fill="none" xmlns="http://www.w3.org/2000/svg">
<path d="M17.6781 6.78282C18.2957 6.47845 19.0423 6.47476 19.6654 6.7888V3.94619V0.854903H18.6717H17.6781V3.93747V6.78282Z" stroke="#333333" stroke-width="0.7"/>
<path d="M7.44961 7.53569C7.44961 8.22994 7.45072 8.69001 7.45721 8.9911C8.04378 8.7163 8.8008 8.72568 9.43686 9.00898V7.4747V5.7338H8.44323H7.44961V7.53569Z" stroke="#333333" stroke-width="0.7"/>
<path d="M18.2583 8.26949L18.2583 8.26946C18.3836 8.20079 18.5457 8.16743 18.708 8.17788C18.8705 8.18834 19.0038 8.24048 19.0863 8.30818C19.3023 8.49598 19.4157 8.82868 19.3694 9.05386C19.3654 9.06973 19.3479 9.1137 19.3009 9.18128C19.2552 9.24682 19.1937 9.31743 19.1245 9.38251C19.055 9.44792 18.985 9.50092 18.9251 9.53582C18.8713 9.56728 18.8455 9.57249 18.8456 9.57306C18.8456 9.57308 18.8457 9.57309 18.8457 9.5731L18.8415 9.57323L18.8324 9.574C18.8054 9.57625 18.7697 9.57887 18.7309 9.58172C18.6498 9.58767 18.5556 9.59458 18.5015 9.60111C18.4365 9.60836 18.3901 9.63138 18.3774 9.63767L18.3766 9.63805C18.3519 9.65029 18.332 9.66334 18.3195 9.67193C18.2938 9.68963 18.2691 9.70987 18.2485 9.72749C18.2059 9.76405 18.1537 9.81317 18.0957 9.87C17.9784 9.98494 17.8203 10.1481 17.6338 10.3459C17.2601 10.7424 16.7635 11.2875 16.2331 11.8861L14.3174 14.0466L14.2165 14.1604L14.2309 14.3118L14.2655 14.6778L14.266 14.6825L14.266 14.6825C14.2996 14.992 14.1262 15.2853 13.7864 15.4157L13.783 15.417L13.783 15.417C13.6454 15.4715 13.6027 15.4774 13.5759 15.4774C13.5465 15.4774 13.4982 15.4701 13.3494 15.4146L13.3383 15.4104L13.3382 15.4106C13.2062 15.3664 13.0727 15.2675 12.972 15.1357C12.8701 15.0025 12.8228 14.8639 12.8228 14.758C12.8228 14.6622 12.812 14.5385 12.731 14.4022C12.6618 14.2858 12.5556 14.1845 12.4285 14.0818C12.1731 13.8753 11.7037 13.563 10.8627 13.011C10.8624 13.0108 10.8621 13.0107 10.8618 13.0105L9.06924 11.8181L8.95696 11.7434L8.82359 11.7634L8.41976 11.8238C8.31497 11.8373 8.19204 11.8548 8.05304 11.9173C7.91729 11.9783 7.78687 12.0723 7.63335 12.2062C7.33208 12.4688 6.86034 12.9593 5.97877 13.8799C5.97875 13.8799 5.97873 13.8799 5.97871 13.8799L5.93919 13.9212C5.07115 14.8271 4.61054 15.3079 4.37171 15.6067C4.24873 15.7607 4.16109 15.8942 4.11171 16.035C4.06105 16.1794 4.06108 16.305 4.0611 16.399C4.0611 16.4009 4.0611 16.4027 4.0611 16.4046C4.0611 17.0515 3.26713 17.3577 2.83797 16.8977L2.83787 16.8976C2.39157 16.4195 2.71802 15.6656 3.37954 15.6656C3.48688 15.6656 3.60801 15.6543 3.75199 15.5854C3.87884 15.5248 4.00639 15.4274 4.15515 15.2949C4.45306 15.0297 4.92909 14.5373 5.79019 13.6416L18.2583 8.26949ZM18.2583 8.26949L18.2537 8.27193M18.2583 8.26949L18.2537 8.27193M18.2537 8.27193C18.0763 8.3658 17.9271 8.62262 17.9535 8.95409L17.9537 8.95408M18.2537 8.27193L17.9537 8.95408M17.9537 8.95408L17.9542 8.96448M17.9537 8.95408L17.9542 8.96448M17.9542 8.96448L17.9544 8.96773C17.9588 9.05752 17.965 9.18189 17.9144 9.33299C17.8676 9.47288 17.7806 9.6124 17.6562 9.77863C17.4076 10.1106 16.9195 10.6632 15.9852 11.7147C15.0888 12.7239 14.5971 13.2763 14.2894 13.5788C14.1355 13.7301 14.0081 13.8388 13.8837 13.9114C13.745 13.9923 13.6268 14.0187 13.5156 14.0334L13.5156 14.0335M17.9542 8.96448L13.5156 14.0335M13.5156 14.0335L13.5066 14.0345M13.5156 14.0335L13.5066 14.0345M13.5066 14.0345C13.4111 14.0446 13.2993 14.0521 13.1626 14.023C13.0328 13.9954 12.9018 13.9395 12.7492 13.8575C12.4505 13.6969 11.9845 13.3884 11.1514 12.8273C10.327 12.2793 9.86476 11.9673 9.6054 11.7555C9.47413 11.6483 9.37105 11.5483 9.29816 11.4375C9.21816 11.3159 9.18977 11.2046 9.17246 11.1089L9.17239 11.109M13.5066 14.0345L9.17239 11.109M9.17239 11.109L9.17122 11.1017M9.17239 11.109L9.17122 11.1017M9.17122 11.1017C9.14073 10.9101 9.09729 10.7892 9.04417 10.7027C8.99358 10.6203 8.92168 10.5487 8.79988 10.4759L8.79982 10.476M9.17122 11.1017L8.79982 10.476M8.79982 10.476L8.79185 10.4709M8.79982 10.476L8.79185 10.4709M8.79185 10.4709C8.65888 10.3865 8.57439 10.362 8.50242 10.3584C8.4254 10.3545 8.32138 10.3725 8.14547 10.4453C7.90764 10.5494 7.75604 10.7557 7.74285 11.1203L7.74287 11.1203M8.79185 10.4709L7.74287 11.1203M7.74287 11.1203L7.74269 11.1242M7.74287 11.1203L7.74269 11.1242M7.74269 11.1242C7.73802 11.2226 7.73063 11.3443 7.67319 11.4879M7.74269 11.1242L7.67319 11.4879M7.67319 11.4879C7.6193 11.6225 7.53048 11.7548 7.4043 11.9111M7.67319 11.4879L7.4043 11.9111M7.4043 11.9111C7.15477 12.2203 6.68099 12.7161 5.79032 13.6415L7.4043 11.9111Z" stroke="#333333" stroke-width="0.7"/>
<path d="M13.8539 11.6903L13.854 11.6902L14.5511 10.928V10.184V9.65408H13.5575H12.5639V10.6719V11.86L12.9603 12.1214L13.2739 12.3251L13.8539 11.6903Z" stroke="#333333" stroke-width="0.7"/>
<path d="M19.648 15.4735L19.6251 10.9786C19.4885 11.039 19.3411 11.0928 19.2235 11.1229C19.1683 11.1396 19.0873 11.1789 18.9476 11.299C18.8018 11.4243 18.6111 11.6206 18.3358 11.9319L18.3358 11.9319L18.3337 11.9343L17.6781 12.6621V16.5963V20.3165L18.6381 20.2975C19.0002 20.2888 19.3318 20.278 19.5745 20.2683C19.6017 20.2672 19.6277 20.2661 19.6525 20.265C19.6527 20.2384 19.6528 20.2101 19.6529 20.1804C19.654 19.9192 19.6545 19.543 19.6545 19.0792C19.6545 18.1519 19.6524 16.8761 19.648 15.4738C19.648 15.4737 19.648 15.4736 19.648 15.4735Z" stroke="#333333" stroke-width="0.7"/>
<path d="M3.71031 13.4767L3.7103 13.4767L3.7127 13.4743L4.32162 12.8623V12.4579V12.2678H3.328H2.33437V13.3988C2.33437 13.7497 2.33601 14.0735 2.33924 14.327C2.45748 14.2682 2.58116 14.2165 2.69088 14.1776C2.75337 14.1554 2.81503 14.1361 2.87136 14.1218C2.90658 14.1129 2.95229 14.1027 3.00069 14.0975C3.00302 14.0962 3.00562 14.0947 3.0085 14.0931C3.04406 14.0722 3.09745 14.0353 3.1686 13.9787C3.30961 13.8665 3.49574 13.6966 3.71031 13.4767Z" stroke="#333333" stroke-width="0.7"/>
<path d="M8.05854 14.0204L7.44961 14.6324V17.5807V20.3235H8.44323H9.43686V17.2235V13.9589L9.03045 13.7052C8.87973 13.6126 8.73979 13.5278 8.63258 13.4655C8.61477 13.4816 8.59558 13.4993 8.57508 13.5183C8.43859 13.6449 8.25568 13.8223 8.05854 14.0204Z" stroke="#333333" stroke-width="0.7"/>
<path d="M13.2423 20.2886C13.7588 20.2967 14.3232 20.3124 14.5511 20.3217V18.4344C14.5511 17.8172 14.5468 17.2572 14.5403 16.8522C14.5403 16.8485 14.5402 16.8448 14.5401 16.8411C14.4919 16.8613 14.4422 16.8803 14.3921 16.8979C14.1332 16.9891 13.8173 17.0594 13.5488 17.0594C13.2007 17.0594 12.8915 16.9813 12.5714 16.8272C12.571 16.8558 12.5707 16.8853 12.5703 16.9158C12.566 17.3082 12.5639 17.8512 12.5639 18.4518V20.2828L13.2397 20.2885V20.2885L13.2423 20.2886Z" stroke="#333333" stroke-width="0.7"/>
<path d="M2.3571 20.2937C2.35753 20.2991 2.35796 20.3043 2.3584 20.3094C2.40918 20.31 2.46721 20.3103 2.53158 20.3103C2.77167 20.3103 3.09133 20.306 3.43129 20.2974C3.43146 20.2974 3.43162 20.2974 3.43179 20.2974L4.32162 20.2722V19.2708V18.5002C3.68465 18.7988 2.97789 18.7913 2.33853 18.4811C2.33577 18.7014 2.33437 18.9744 2.33437 19.2708C2.33437 19.7684 2.34103 20.0928 2.3571 20.2937ZM2.38104 20.4702C2.38105 20.4702 2.38088 20.4696 2.38049 20.4685L2.38104 20.4702Z" stroke="#333333" stroke-width="0.7"/>
<path d="M0.451547 22.1648L0.451717 22.1647L0.460752 22.1741L0.565399 22.2837H11H21.4346L21.5392 22.1741L21.5391 22.1739L21.5485 22.1648C21.6441 22.0719 21.6497 22.0223 21.65 22.0177L21.65 22.0177C21.6501 22.0156 21.6504 22.0103 21.6449 21.998C21.6394 21.9857 21.6272 21.9649 21.6014 21.9366C21.5852 21.933 21.5568 21.9277 21.5104 21.922C21.3321 21.9001 20.9908 21.8838 20.3034 21.8728C18.9384 21.8511 16.2769 21.8511 11 21.8511C5.72308 21.8511 3.06157 21.8511 1.69663 21.8728C1.00922 21.8838 0.667851 21.9001 0.4896 21.922C0.443246 21.9277 0.414795 21.933 0.398625 21.9366C0.37282 21.9649 0.360645 21.9857 0.35514 21.998C0.349594 22.0103 0.349918 22.0156 0.350044 22.0177L0.350047 22.0177C0.350329 22.0223 0.355923 22.0719 0.451547 22.1648Z" stroke="#333333" stroke-width="0.7"/>
</svg>
