<svg width="22" height="22" viewBox="0 0 22 22" fill="none" xmlns="http://www.w3.org/2000/svg">
<path d="M7.47656 0.0472813C7.30039 0.120329 7.13281 0.305094 7.08555 0.481266C6.99961 0.803532 7.18008 1.11291 7.5625 1.31056C7.63555 1.34924 7.69141 1.3922 7.69141 1.41369C7.69141 1.43088 7.52383 1.50822 7.31758 1.58986C5.86953 2.13556 4.35273 3.21838 3.33438 4.4215C2.0625 5.934 1.30625 7.60548 1.00117 9.58205C0.898047 10.2653 0.898047 11.7348 1.00117 12.418C1.56836 16.1047 3.91875 19.0695 7.34766 20.4274C7.93203 20.6551 8.88594 20.9172 9.28125 20.9516C9.52617 20.9731 9.57773 20.9645 9.70664 20.8742C9.93437 20.7195 10.0246 20.5692 10.0246 20.3543C10.0246 20.1395 9.91719 19.9246 9.75391 19.8043C9.69375 19.7613 9.44453 19.6883 9.19531 19.6367C7.36055 19.2586 5.59453 18.2231 4.36133 16.7879C3.26133 15.5117 2.58672 14.0723 2.29023 12.3535C2.18711 11.752 2.18711 10.2481 2.29023 9.6465C2.75 6.99103 4.22813 4.79103 6.45391 3.44611C6.98242 3.12814 8.12109 2.59963 8.06953 2.69845C7.82891 3.15392 7.76875 3.3258 7.79453 3.47189C7.86328 3.91447 8.32305 4.1508 8.71836 3.94455C8.89453 3.85431 8.94609 3.78556 9.33281 3.09377C9.97734 1.9551 10.0246 1.85197 10.0203 1.64142C10.016 1.31916 9.91289 1.22463 8.88164 0.60158C7.90195 0.00860977 7.73008 -0.0601406 7.47656 0.0472813Z" fill="white"/>
<path d="M12.2889 1.12148C12.1041 1.2375 12.044 1.31055 11.9881 1.50391C11.9322 1.70156 11.9967 1.93789 12.1514 2.10977C12.2545 2.22578 12.3405 2.25586 12.8088 2.36328C16.4225 3.17539 19.0178 5.88672 19.6881 9.53906C19.8213 10.2523 19.8213 11.7477 19.6881 12.4609C19.2112 15.0648 17.7416 17.2305 15.5459 18.5539C15.0174 18.8719 13.883 19.4004 13.9303 19.3059C14.2053 18.7559 14.2311 18.6785 14.2053 18.5281C14.1365 18.0855 13.6768 17.8492 13.2815 18.0555C13.101 18.15 13.0537 18.2145 12.5596 19.0996C12.2674 19.6195 12.0096 20.1137 11.9881 20.1953C11.9408 20.3715 11.9924 20.5949 12.1127 20.741C12.1557 20.7883 12.6112 21.0891 13.1311 21.407C14.0205 21.9441 14.085 21.9785 14.2955 21.9785C14.6651 21.9785 14.9272 21.7207 14.9272 21.3555C14.9272 21.0934 14.8412 20.9645 14.5319 20.7539C14.4115 20.6723 14.3127 20.5949 14.3084 20.582C14.3084 20.5691 14.476 20.4961 14.6865 20.4145C19.8213 18.4035 22.3865 12.6027 20.4315 7.41211C19.2283 4.20664 16.3881 1.77891 13.0537 1.1C12.6155 1.00977 12.4694 1.01406 12.2889 1.12148Z" fill="white"/>
<path d="M10.2266 4.80828C8.98906 5.07039 7.9793 5.86532 7.43359 7.00828C7.18438 7.5325 7.08984 7.9493 7.05977 8.64969L7.03398 9.24266L6.91367 9.30711C6.69883 9.41453 6.36797 9.78836 6.22187 10.0848L6.08008 10.377V12.8477V15.3184L6.17891 15.5677C6.29922 15.8556 6.66016 16.2681 6.93945 16.4313C7.35625 16.6763 7.32617 16.6763 11.1117 16.6634L14.5879 16.6505L14.8371 16.5516C15.1207 16.4356 15.5375 16.0747 15.6965 15.7997C15.9414 15.3786 15.9457 15.3485 15.9328 12.7575C15.9199 10.3813 15.9199 10.377 15.8211 10.1622C15.675 9.84422 15.4172 9.52625 15.1766 9.37586L14.966 9.23836L14.9402 8.64539C14.9102 7.9493 14.8156 7.5325 14.5664 7.00828C13.7758 5.35399 11.9711 4.44305 10.2266 4.80828ZM11.6188 6.10164C12.8391 6.41102 13.6598 7.47664 13.6641 8.75282V9.06649H11H8.33594V8.75282C8.34023 7.48524 9.15664 6.41961 10.3641 6.10164C10.7723 5.99422 11.2063 5.99422 11.6188 6.10164ZM14.5063 10.5016L14.6523 10.6477V12.8563C14.6523 15.2755 14.6609 15.1809 14.3945 15.3184C14.2055 15.4173 7.79453 15.4173 7.60547 15.3184C7.33906 15.1809 7.34766 15.2755 7.34766 12.8563V10.6477L7.49375 10.5016L7.63984 10.3556H11H14.3602L14.5063 10.5016Z" fill="white"/>
<path d="M10.6733 11.8809C10.394 12.0484 10.3468 12.2031 10.364 12.925C10.3768 13.4535 10.3897 13.5437 10.4671 13.6469C10.6261 13.8617 10.7765 13.9434 10.9999 13.9434C11.2233 13.9434 11.3737 13.8617 11.5327 13.6469C11.6143 13.5437 11.6229 13.4535 11.6358 12.9078C11.6487 12.3277 11.6444 12.2805 11.5499 12.1129C11.3651 11.7863 10.9956 11.6875 10.6733 11.8809Z" fill="white"/>
</svg>
