<svg width="20" height="20" viewBox="0 0 20 20" fill="none" xmlns="http://www.w3.org/2000/svg">
<path fill-rule="evenodd" clip-rule="evenodd" d="M8.51086 0C3.81085 0 0 3.81001 0 8.51086C0 13.2109 3.81001 17.0217 8.51086 17.0217C10.4745 17.0247 12.3782 16.3458 13.8967 15.1009L18.5467 19.7509C18.7063 19.9106 18.9228 20.0003 19.1485 20.0004C19.3743 20.0005 19.5908 19.9109 19.7505 19.7513C19.9102 19.5917 19.9999 19.3753 20 19.1495C20.0001 18.9238 19.9105 18.7072 19.7509 18.5476L15.1009 13.8975C16.3459 12.3788 17.0249 10.4747 17.0217 8.51086C17.0209 3.81085 13.21 0 8.51086 0ZM1.70251 8.51086C1.70251 6.70517 2.41981 4.97344 3.69663 3.69663C4.97344 2.41981 6.70517 1.70251 8.51086 1.70251C10.3166 1.70251 12.0483 2.41981 13.3251 3.69663C14.6019 4.97344 15.3192 6.70517 15.3192 8.51086C15.3192 10.3166 14.6019 12.0483 13.3251 13.3251C12.0483 14.6019 10.3166 15.3192 8.51086 15.3192C6.70517 15.3192 4.97344 14.6019 3.69663 13.3251C2.41981 12.0483 1.70251 10.3166 1.70251 8.51086Z" fill="black" fill-opacity="0.5"/>
</svg>
