<svg width="25" height="25" viewBox="0 0 25 25" fill="none" xmlns="http://www.w3.org/2000/svg">
<mask id="path-1-inside-1_227_1013" fill="white">
<path fill-rule="evenodd" clip-rule="evenodd" d="M5.49687 6.6203C5.18609 6.08199 5.10187 5.44227 5.26274 4.84186C5.42361 4.24146 5.81639 3.72954 6.35469 3.41873L7.70781 2.63748C8.24612 2.3267 8.88584 2.24248 9.48625 2.40335C10.0867 2.56422 10.5986 2.957 10.9094 3.4953L11.3383 4.23748C11.4937 4.50702 11.8445 4.70077 12.2914 4.68905C12.4305 4.68514 12.5695 4.68514 12.7086 4.68905C13.1547 4.70155 13.5055 4.5078 13.6617 4.23905L14.0906 3.4953C14.4014 2.957 14.9133 2.56422 15.5138 2.40335C16.1142 2.24248 16.7539 2.3267 17.2922 2.63748L18.6453 3.41873C19.1836 3.72954 19.5764 4.24146 19.7373 4.84186C19.8981 5.44227 19.8139 6.08199 19.5031 6.6203L19.0734 7.36483C18.918 7.63358 18.925 8.03358 19.1586 8.41327C19.2316 8.53249 19.3014 8.65363 19.368 8.77655C19.5813 9.16873 19.9227 9.37498 20.2344 9.37498H21.0938C21.7154 9.37498 22.3115 9.62191 22.751 10.0615C23.1906 10.501 23.4375 11.0971 23.4375 11.7187V13.2812C23.4375 13.9028 23.1906 14.499 22.751 14.9385C22.3115 15.3781 21.7154 15.625 21.0938 15.625H20.2344C19.9242 15.625 19.5812 15.832 19.3687 16.225C19.3023 16.3469 19.2328 16.4672 19.1602 16.5859C18.9266 16.9672 18.9188 17.368 19.0742 17.6375L19.5039 18.3797C19.6578 18.6463 19.7576 18.9405 19.7977 19.2457C19.8378 19.5509 19.8174 19.861 19.7377 20.1583C19.658 20.4556 19.5205 20.7343 19.333 20.9784C19.1456 21.2226 18.9119 21.4274 18.6453 21.5812L17.2922 22.3625C16.7539 22.6733 16.1142 22.7575 15.5138 22.5966C14.9133 22.4358 14.4014 22.043 14.0906 21.5047L13.6617 20.7625C13.5062 20.493 13.1555 20.2992 12.7086 20.3109C12.5696 20.3146 12.4304 20.3146 12.2914 20.3109C11.8453 20.2984 11.4945 20.4914 11.3383 20.7609L10.9094 21.5047C10.5986 22.043 10.0867 22.4358 9.48625 22.5966C8.88584 22.7575 8.24612 22.6733 7.70781 22.3625L6.35469 21.5812C5.81639 21.2704 5.42361 20.7585 5.26274 20.1581C5.10187 19.5577 5.18609 18.918 5.49687 18.3797L5.92656 17.6351C6.08203 17.3664 6.075 16.9664 5.84141 16.5859C5.76847 16.4669 5.69866 16.3461 5.63203 16.2234C5.41953 15.8312 5.07734 15.625 4.76562 15.625H3.90625C3.28465 15.625 2.68851 15.3781 2.24897 14.9385C1.80943 14.499 1.5625 13.9028 1.5625 13.2812V11.7187C1.5625 11.0971 1.80943 10.501 2.24897 10.0615C2.68851 9.62191 3.28465 9.37498 3.90625 9.37498H4.76562C5.07578 9.37498 5.41875 9.16795 5.63125 8.77498C5.69766 8.65311 5.76719 8.5328 5.83984 8.41405C6.07344 8.03202 6.08125 7.63202 5.92578 7.36248L5.49687 6.6203ZM7.13594 4.77186C6.95651 4.87546 6.82558 5.0461 6.77195 5.24624C6.71833 5.44637 6.7464 5.65961 6.85 5.83905L7.27891 6.58123C7.78594 7.45936 7.63047 8.48202 7.17188 9.22967C7.11386 9.32454 7.05837 9.42092 7.00547 9.51873C6.5875 10.2906 5.77891 10.9375 4.76562 10.9375H3.90625C3.69905 10.9375 3.50034 11.0198 3.35382 11.1663C3.20731 11.3128 3.125 11.5115 3.125 11.7187V13.2812C3.125 13.4884 3.20731 13.6872 3.35382 13.8337C3.50034 13.9802 3.69905 14.0625 3.90625 14.0625H4.76562C5.77812 14.0625 6.58594 14.707 7.00547 15.4781C7.05881 15.5767 7.11482 15.6739 7.17344 15.7695C7.63203 16.518 7.78594 17.5398 7.27969 18.4164L6.85 19.1609C6.7464 19.3404 6.71833 19.5536 6.77195 19.7537C6.82558 19.9539 6.95651 20.1245 7.13594 20.2281L8.48906 21.0094C8.6685 21.113 8.88174 21.141 9.08187 21.0874C9.28201 21.0338 9.45265 20.9029 9.55625 20.7234L9.98594 19.9797C10.493 19.1015 11.457 18.7242 12.3344 18.7484C12.4453 18.7515 12.557 18.7515 12.668 18.7484C13.5445 18.7265 14.5078 19.1031 15.0148 19.9812L15.4437 20.7234C15.5474 20.9029 15.718 21.0338 15.9181 21.0874C16.1183 21.141 16.3315 21.113 16.5109 21.0094L17.8641 20.2281C18.0435 20.1245 18.1744 19.9539 18.228 19.7537C18.2817 19.5536 18.2536 19.3404 18.15 19.1609L17.7211 18.4187C17.2141 17.5406 17.3695 16.518 17.8281 15.7703C17.8859 15.675 17.9414 15.5789 17.9945 15.4812C18.4125 14.7094 19.2211 14.0625 20.2344 14.0625H21.0938C21.301 14.0625 21.4997 13.9802 21.6462 13.8337C21.7927 13.6872 21.875 13.4884 21.875 13.2812V11.7187C21.875 11.5115 21.7927 11.3128 21.6462 11.1663C21.4997 11.0198 21.301 10.9375 21.0938 10.9375H20.2344C19.2219 10.9375 18.4141 10.293 17.9953 9.52186C17.9417 9.42322 17.8854 9.32605 17.8266 9.23045C17.368 8.48202 17.2141 7.46014 17.7203 6.58358L18.15 5.83905C18.2536 5.65961 18.2817 5.44637 18.228 5.24624C18.1744 5.0461 18.0435 4.87546 17.8641 4.77186L16.5109 3.99061C16.3315 3.88701 16.1183 3.85894 15.9181 3.91256C15.718 3.96619 15.5474 4.09711 15.4437 4.27655L15.0141 5.0203C14.5078 5.89842 13.543 6.27498 12.6656 6.24998C12.5544 6.24702 12.4432 6.24702 12.332 6.24998C11.4555 6.27342 10.4922 5.89608 9.98516 5.01795L9.55625 4.27577C9.45265 4.09633 9.28201 3.96541 9.08187 3.91178C8.88174 3.85816 8.6685 3.88623 8.48906 3.98983L7.13594 4.77186ZM11.3281 10.4703C11.0594 10.6231 10.8236 10.8275 10.6342 11.0718C10.4448 11.316 10.3056 11.5954 10.2247 11.8937C10.1437 12.192 10.1225 12.5033 10.1623 12.8099C10.2022 13.1164 10.3023 13.412 10.4568 13.6797C10.6114 13.9473 10.8173 14.1818 11.0629 14.3696C11.3084 14.5573 11.5886 14.6946 11.8875 14.7737C12.1863 14.8527 12.4978 14.8718 12.804 14.8299C13.1103 14.788 13.4052 14.686 13.6719 14.5297C14.2058 14.2167 14.5942 13.7052 14.7524 13.1068C14.9106 12.5085 14.8257 11.8718 14.5163 11.3359C14.2068 10.7999 13.6979 10.408 13.1006 10.2459C12.5033 10.0837 11.8662 10.1644 11.3281 10.4703ZM9.11719 14.4531C8.85665 14.0087 8.68659 13.5171 8.6168 13.0067C8.54702 12.4963 8.57888 11.9771 8.71055 11.4791C8.84223 10.9811 9.07111 10.514 9.38404 10.1048C9.69696 9.69553 10.0877 9.35224 10.5339 9.09466C10.98 8.83707 11.4727 8.67028 11.9836 8.60388C12.4944 8.53748 13.0134 8.57278 13.5105 8.70776C14.0077 8.84273 14.4732 9.07472 14.8804 9.39035C15.2875 9.70598 15.6282 10.099 15.8828 10.5469C16.3926 11.4436 16.5271 12.5055 16.2568 13.501C15.9866 14.4965 15.3335 15.3447 14.4402 15.8604C13.5469 16.3762 12.4858 16.5177 11.4886 16.254C10.4914 15.9904 9.63887 15.343 9.11719 14.4531Z"/>
</mask>
<path fill-rule="evenodd" clip-rule="evenodd" d="M5.49687 6.6203C5.18609 6.08199 5.10187 5.44227 5.26274 4.84186C5.42361 4.24146 5.81639 3.72954 6.35469 3.41873L7.70781 2.63748C8.24612 2.3267 8.88584 2.24248 9.48625 2.40335C10.0867 2.56422 10.5986 2.957 10.9094 3.4953L11.3383 4.23748C11.4937 4.50702 11.8445 4.70077 12.2914 4.68905C12.4305 4.68514 12.5695 4.68514 12.7086 4.68905C13.1547 4.70155 13.5055 4.5078 13.6617 4.23905L14.0906 3.4953C14.4014 2.957 14.9133 2.56422 15.5138 2.40335C16.1142 2.24248 16.7539 2.3267 17.2922 2.63748L18.6453 3.41873C19.1836 3.72954 19.5764 4.24146 19.7373 4.84186C19.8981 5.44227 19.8139 6.08199 19.5031 6.6203L19.0734 7.36483C18.918 7.63358 18.925 8.03358 19.1586 8.41327C19.2316 8.53249 19.3014 8.65363 19.368 8.77655C19.5813 9.16873 19.9227 9.37498 20.2344 9.37498H21.0938C21.7154 9.37498 22.3115 9.62191 22.751 10.0615C23.1906 10.501 23.4375 11.0971 23.4375 11.7187V13.2812C23.4375 13.9028 23.1906 14.499 22.751 14.9385C22.3115 15.3781 21.7154 15.625 21.0938 15.625H20.2344C19.9242 15.625 19.5812 15.832 19.3687 16.225C19.3023 16.3469 19.2328 16.4672 19.1602 16.5859C18.9266 16.9672 18.9188 17.368 19.0742 17.6375L19.5039 18.3797C19.6578 18.6463 19.7576 18.9405 19.7977 19.2457C19.8378 19.5509 19.8174 19.861 19.7377 20.1583C19.658 20.4556 19.5205 20.7343 19.333 20.9784C19.1456 21.2226 18.9119 21.4274 18.6453 21.5812L17.2922 22.3625C16.7539 22.6733 16.1142 22.7575 15.5138 22.5966C14.9133 22.4358 14.4014 22.043 14.0906 21.5047L13.6617 20.7625C13.5062 20.493 13.1555 20.2992 12.7086 20.3109C12.5696 20.3146 12.4304 20.3146 12.2914 20.3109C11.8453 20.2984 11.4945 20.4914 11.3383 20.7609L10.9094 21.5047C10.5986 22.043 10.0867 22.4358 9.48625 22.5966C8.88584 22.7575 8.24612 22.6733 7.70781 22.3625L6.35469 21.5812C5.81639 21.2704 5.42361 20.7585 5.26274 20.1581C5.10187 19.5577 5.18609 18.918 5.49687 18.3797L5.92656 17.6351C6.08203 17.3664 6.075 16.9664 5.84141 16.5859C5.76847 16.4669 5.69866 16.3461 5.63203 16.2234C5.41953 15.8312 5.07734 15.625 4.76562 15.625H3.90625C3.28465 15.625 2.68851 15.3781 2.24897 14.9385C1.80943 14.499 1.5625 13.9028 1.5625 13.2812V11.7187C1.5625 11.0971 1.80943 10.501 2.24897 10.0615C2.68851 9.62191 3.28465 9.37498 3.90625 9.37498H4.76562C5.07578 9.37498 5.41875 9.16795 5.63125 8.77498C5.69766 8.65311 5.76719 8.5328 5.83984 8.41405C6.07344 8.03202 6.08125 7.63202 5.92578 7.36248L5.49687 6.6203ZM7.13594 4.77186C6.95651 4.87546 6.82558 5.0461 6.77195 5.24624C6.71833 5.44637 6.7464 5.65961 6.85 5.83905L7.27891 6.58123C7.78594 7.45936 7.63047 8.48202 7.17188 9.22967C7.11386 9.32454 7.05837 9.42092 7.00547 9.51873C6.5875 10.2906 5.77891 10.9375 4.76562 10.9375H3.90625C3.69905 10.9375 3.50034 11.0198 3.35382 11.1663C3.20731 11.3128 3.125 11.5115 3.125 11.7187V13.2812C3.125 13.4884 3.20731 13.6872 3.35382 13.8337C3.50034 13.9802 3.69905 14.0625 3.90625 14.0625H4.76562C5.77812 14.0625 6.58594 14.707 7.00547 15.4781C7.05881 15.5767 7.11482 15.6739 7.17344 15.7695C7.63203 16.518 7.78594 17.5398 7.27969 18.4164L6.85 19.1609C6.7464 19.3404 6.71833 19.5536 6.77195 19.7537C6.82558 19.9539 6.95651 20.1245 7.13594 20.2281L8.48906 21.0094C8.6685 21.113 8.88174 21.141 9.08187 21.0874C9.28201 21.0338 9.45265 20.9029 9.55625 20.7234L9.98594 19.9797C10.493 19.1015 11.457 18.7242 12.3344 18.7484C12.4453 18.7515 12.557 18.7515 12.668 18.7484C13.5445 18.7265 14.5078 19.1031 15.0148 19.9812L15.4437 20.7234C15.5474 20.9029 15.718 21.0338 15.9181 21.0874C16.1183 21.141 16.3315 21.113 16.5109 21.0094L17.8641 20.2281C18.0435 20.1245 18.1744 19.9539 18.228 19.7537C18.2817 19.5536 18.2536 19.3404 18.15 19.1609L17.7211 18.4187C17.2141 17.5406 17.3695 16.518 17.8281 15.7703C17.8859 15.675 17.9414 15.5789 17.9945 15.4812C18.4125 14.7094 19.2211 14.0625 20.2344 14.0625H21.0938C21.301 14.0625 21.4997 13.9802 21.6462 13.8337C21.7927 13.6872 21.875 13.4884 21.875 13.2812V11.7187C21.875 11.5115 21.7927 11.3128 21.6462 11.1663C21.4997 11.0198 21.301 10.9375 21.0938 10.9375H20.2344C19.2219 10.9375 18.4141 10.293 17.9953 9.52186C17.9417 9.42322 17.8854 9.32605 17.8266 9.23045C17.368 8.48202 17.2141 7.46014 17.7203 6.58358L18.15 5.83905C18.2536 5.65961 18.2817 5.44637 18.228 5.24624C18.1744 5.0461 18.0435 4.87546 17.8641 4.77186L16.5109 3.99061C16.3315 3.88701 16.1183 3.85894 15.9181 3.91256C15.718 3.96619 15.5474 4.09711 15.4437 4.27655L15.0141 5.0203C14.5078 5.89842 13.543 6.27498 12.6656 6.24998C12.5544 6.24702 12.4432 6.24702 12.332 6.24998C11.4555 6.27342 10.4922 5.89608 9.98516 5.01795L9.55625 4.27577C9.45265 4.09633 9.28201 3.96541 9.08187 3.91178C8.88174 3.85816 8.6685 3.88623 8.48906 3.98983L7.13594 4.77186ZM11.3281 10.4703C11.0594 10.6231 10.8236 10.8275 10.6342 11.0718C10.4448 11.316 10.3056 11.5954 10.2247 11.8937C10.1437 12.192 10.1225 12.5033 10.1623 12.8099C10.2022 13.1164 10.3023 13.412 10.4568 13.6797C10.6114 13.9473 10.8173 14.1818 11.0629 14.3696C11.3084 14.5573 11.5886 14.6946 11.8875 14.7737C12.1863 14.8527 12.4978 14.8718 12.804 14.8299C13.1103 14.788 13.4052 14.686 13.6719 14.5297C14.2058 14.2167 14.5942 13.7052 14.7524 13.1068C14.9106 12.5085 14.8257 11.8718 14.5163 11.3359C14.2068 10.7999 13.6979 10.408 13.1006 10.2459C12.5033 10.0837 11.8662 10.1644 11.3281 10.4703ZM9.11719 14.4531C8.85665 14.0087 8.68659 13.5171 8.6168 13.0067C8.54702 12.4963 8.57888 11.9771 8.71055 11.4791C8.84223 10.9811 9.07111 10.514 9.38404 10.1048C9.69696 9.69553 10.0877 9.35224 10.5339 9.09466C10.98 8.83707 11.4727 8.67028 11.9836 8.60388C12.4944 8.53748 13.0134 8.57278 13.5105 8.70776C14.0077 8.84273 14.4732 9.07472 14.8804 9.39035C15.2875 9.70598 15.6282 10.099 15.8828 10.5469C16.3926 11.4436 16.5271 12.5055 16.2568 13.501C15.9866 14.4965 15.3335 15.3447 14.4402 15.8604C13.5469 16.3762 12.4858 16.5177 11.4886 16.254C10.4914 15.9904 9.63887 15.343 9.11719 14.4531Z" stroke="black" stroke-width="1.2" mask="url(#path-1-inside-1_227_1013)"/>
</svg>
