<svg width="22" height="25" viewBox="0 0 22 25" fill="none" xmlns="http://www.w3.org/2000/svg">
<path d="M17.6215 15.7912C16.2936 15.7912 15.1452 16.3654 14.3556 17.2985L8.25449 14.1403C8.5416 13.5661 8.68515 12.9201 8.68515 12.2382C8.68515 11.5563 8.50571 10.9103 8.25449 10.3361L14.3556 7.17781C15.1452 8.11093 16.3295 8.68515 17.6215 8.68515C19.9902 8.68515 21.9641 6.74714 21.9641 4.34258C21.9641 1.9739 20.0261 0 17.6215 0C15.217 0 13.279 2.04568 13.279 4.41436C13.279 4.98858 13.3866 5.49103 13.5661 5.99347L7.35726 9.1876C6.5677 8.39804 5.49103 7.93148 4.30669 7.93148C1.9739 7.93148 0 9.90538 0 12.2741C0 14.6427 1.93801 16.6166 4.34258 16.6166C5.52692 16.6166 6.60359 16.1501 7.39315 15.3605L13.602 18.5546C13.4225 19.0571 13.3148 19.5595 13.3148 20.1338C13.3148 22.5024 15.2529 24.4763 17.6574 24.4763C20.062 24.4763 22 22.5383 22 20.1338C22 17.7292 19.9902 15.7912 17.6215 15.7912ZM17.6215 1.54323C19.2007 1.54323 20.5285 2.83524 20.5285 4.45024C20.5285 6.02936 19.2365 7.35726 17.6215 7.35726C16.0065 7.35726 14.7145 6.02936 14.7145 4.41436C14.7145 2.83524 16.0065 1.54323 17.6215 1.54323ZM4.34258 15.1811C2.76346 15.1811 1.43556 13.8891 1.43556 12.2741C1.43556 10.6949 2.72757 9.36705 4.34258 9.36705C5.9217 9.36705 7.24959 10.6591 7.24959 12.2741C7.24959 13.8532 5.9217 15.1811 4.34258 15.1811ZM17.6215 23.0049C16.0424 23.0049 14.7145 21.7129 14.7145 20.0979C14.7145 18.4829 16.0065 17.1909 17.6215 17.1909C19.2365 17.1909 20.5285 18.4829 20.5285 20.0979C20.5285 21.7129 19.2007 23.0049 17.6215 23.0049Z" fill="#333333"/>
</svg>
