<svg width="25" height="20" viewBox="0 0 25 20" fill="none" xmlns="http://www.w3.org/2000/svg">
<path d="M10.4901 0.894116C10.538 0.806498 10.5846 0.721023 10.6289 0.639154C6.98355 1.29648 4.11684 3.97284 3.18304 7.60402L3.18305 7.60403L3.18207 7.60772C3.08387 7.97784 2.99357 8.69402 2.94768 9.36511C2.92508 9.69561 2.91434 9.99955 2.91755 10.2279C2.91857 10.3006 2.92097 10.3616 2.92428 10.4109C2.97384 10.4394 3.03541 10.4731 3.10783 10.5114C3.31551 10.621 3.58937 10.7553 3.87042 10.8863C4.15143 11.0172 4.43333 11.1418 4.65676 11.2326C4.76282 11.2758 4.85078 11.3093 4.91682 11.3319C4.93249 11.3242 4.95036 11.3151 4.97051 11.3045C5.08136 11.246 5.23071 11.1577 5.40647 11.0457C5.75637 10.8228 6.18555 10.5226 6.57623 10.2203C6.65487 10.1588 6.69337 10.1269 6.71629 10.105C6.71755 10.0957 6.71902 10.0823 6.72033 10.0639C6.7249 9.99982 6.72572 9.9121 6.72572 9.76828C6.72572 8.00983 7.73421 6.2089 9.23926 5.22775L9.23921 5.22766L9.24768 5.22238C9.56019 5.02743 10.164 4.7614 10.6033 4.61426L10.6033 4.61425L10.6064 4.61323C10.685 4.58745 10.7611 4.56233 10.8329 4.53845C10.7491 4.39435 10.6513 4.2283 10.5457 4.0514L10.5452 4.05058C10.3292 3.68719 10.1675 3.39153 10.0588 3.1508C9.95594 2.92317 9.87327 2.68813 9.87327 2.46463C9.87327 2.25279 9.95772 2.00786 10.0506 1.78498C10.1525 1.54038 10.3004 1.24201 10.4897 0.894807L10.4901 0.894116ZM2.818 10.3454C2.81006 10.3388 2.80817 10.3382 2.8163 10.3442C2.81679 10.3446 2.81735 10.345 2.818 10.3454ZM5.00326 11.3583C5.00319 11.3582 5.00147 11.3578 4.99832 11.3572C5.00175 11.358 5.00332 11.3583 5.00326 11.3583ZM4.8453 11.3641C4.83976 11.3657 4.83675 11.3668 4.83662 11.367C4.83649 11.3671 4.83926 11.3664 4.8453 11.3641Z" stroke="#333333"/>
<path d="M13.063 4.43044C15.4839 4.88187 17.3013 6.77001 17.5875 9.13681C17.6705 9.08938 17.7582 9.03833 17.8479 8.985L17.8478 8.98496L17.8538 8.9815C18.1983 8.78305 18.4581 8.64205 18.69 8.5548C18.9449 8.45896 19.1566 8.43092 19.3995 8.43092C19.5177 8.43092 19.6529 8.43173 19.8037 8.46105C19.958 8.49108 20.1055 8.54581 20.2741 8.62712C20.5237 8.74757 20.87 8.95228 21.4196 9.2873L21.4184 9.26633L21.4183 9.26516C21.2164 5.55981 18.8295 2.35467 15.3025 1.06406L15.3025 1.06407L15.2999 1.0631C14.7149 0.845324 13.997 0.678738 13.4038 0.597995C13.1065 0.557527 12.8571 0.540942 12.6809 0.54609C12.643 0.547197 12.6116 0.549245 12.5862 0.551665C12.5827 0.557551 12.579 0.563655 12.5752 0.569974C12.5321 0.641628 12.4785 0.734272 12.4176 0.842091C12.2961 1.05736 12.15 1.32512 12.0091 1.58999C11.868 1.8551 11.7339 2.11399 11.6357 2.31176C11.6061 2.37147 11.5805 2.42408 11.5594 2.46866C11.5871 2.52367 11.6231 2.59123 11.6666 2.66972C11.7867 2.88636 11.9512 3.16197 12.1224 3.43582C12.2937 3.70977 12.4676 3.97531 12.6061 4.17242C12.6615 4.2512 12.7082 4.3148 12.745 4.36195C12.8394 4.38256 12.9576 4.40811 13.063 4.43044ZM12.5015 0.5661C12.5018 0.566245 12.5055 0.565313 12.5119 0.562868C12.5045 0.564734 12.5013 0.565955 12.5015 0.5661ZM11.5063 2.35382C11.5066 2.35446 11.5068 2.35521 11.5072 2.35608C11.5041 2.34553 11.5027 2.34386 11.5063 2.35382Z" stroke="#333333"/>
<path d="M17.4198 11.4066C16.8483 13.111 15.5265 14.5065 13.9415 15.039L14.1956 15.3518L14.1959 15.3522C14.4779 15.7001 14.713 15.9996 14.8757 16.2687C15.0413 16.5427 15.1613 16.8316 15.1603 17.1572C15.1594 17.4826 15.0379 17.771 14.8708 18.0446C14.7115 18.3055 14.4837 18.595 14.2106 18.9298C15.9824 18.5257 17.5393 17.6494 18.8089 16.3421L18.8093 16.3417C20.0048 15.1137 20.7586 13.7413 21.1821 12.0656C21.1858 12.051 21.1893 12.0367 21.1928 12.0226C21.2665 11.7265 21.3117 11.5449 21.33 11.4056C21.3389 11.3385 21.3383 11.3008 21.3362 11.2807C21.3346 11.2653 21.3323 11.261 21.3316 11.2596L21.3315 11.2594C21.3267 11.2499 21.2968 11.1998 21.1339 11.0855C20.9826 10.9794 20.7731 10.8551 20.4645 10.6721C20.4444 10.6602 20.4239 10.648 20.4029 10.6356L20.4008 10.6343C20.0953 10.451 19.8053 10.2849 19.5861 10.1657C19.5168 10.128 19.4563 10.096 19.4056 10.0701C19.3587 10.0931 19.3034 10.121 19.2406 10.1533C19.0293 10.2623 18.7488 10.4146 18.4535 10.5835C17.8871 10.9095 17.6667 11.04 17.5523 11.1392C17.5508 11.1405 17.5494 11.1417 17.5479 11.143C17.5005 11.184 17.4889 11.194 17.4213 11.4021L17.4213 11.4021L17.4198 11.4066Z" stroke="#333333"/>
<path d="M6.29968 13.4923C6.98331 13.4923 7.61374 13.489 8.11428 13.4832C7.70628 13.0216 7.37152 12.4799 7.12555 11.8825L6.64017 12.2167C6.35753 12.4141 6.06685 12.6001 5.82455 12.742C5.70359 12.8129 5.59016 12.8754 5.49311 12.9236C5.41714 12.9613 5.29982 13.0171 5.18837 13.0398C4.95261 13.0899 4.72141 13.0432 4.48538 12.9663C4.24501 12.888 3.93003 12.7537 3.50093 12.5589L3.50092 12.5589L3.49718 12.5572C3.4217 12.5222 3.3521 12.49 3.28793 12.4606C3.29747 12.4918 3.30719 12.5233 3.31705 12.5549C3.44564 12.9676 3.58127 13.3509 3.64727 13.4923H6.29968Z" stroke="#333333"/>
<path d="M13.4734 17.0856C13.4707 17.0954 13.4628 17.1317 13.4708 17.1848C13.4709 17.1851 13.4709 17.1855 13.471 17.1858L13.4734 17.0856ZM13.4734 17.0856C13.474 17.0838 13.4743 17.0829 13.4742 17.0829C13.4742 17.0829 13.4739 17.0838 13.4734 17.0856ZM0.552524 15.1979C0.544466 15.3044 0.537084 15.4337 0.530583 15.5819C0.511607 16.0146 0.501256 16.5817 0.500107 17.152C0.498959 17.7224 0.507025 18.2894 0.524301 18.7221C0.53042 18.8753 0.537567 19.0083 0.54553 19.1167C0.707341 19.1279 0.944142 19.1373 1.28716 19.1446C2.15201 19.1631 3.63643 19.1678 6.16098 19.1678H11.8755L12.6686 18.1909C12.6688 18.1906 12.669 18.1904 12.6692 18.1902C13.0261 17.7476 13.2448 17.461 13.3704 17.2685C13.3985 17.2255 13.4195 17.1909 13.435 17.1634C13.3945 17.0975 13.3381 17.0121 13.2673 16.9109C13.1057 16.6799 12.8826 16.3861 12.6359 16.0885L12.6359 16.0885L12.6315 16.0831L11.8743 15.1436H6.16098C3.75781 15.1436 2.27019 15.1506 1.37475 15.1691C0.998405 15.1768 0.73372 15.1865 0.552524 15.1979ZM13.4906 17.2612C13.4923 17.2654 13.4934 17.2676 13.4935 17.2677C13.4936 17.2678 13.4928 17.2657 13.4906 17.2612ZM0.310235 19.0907C0.311286 19.091 0.312943 19.0914 0.315276 19.0919C0.303278 19.0879 0.300126 19.0882 0.310235 19.0907Z" stroke="#333333"/>
<path d="M21.405 15.7475L21.405 15.7475L21.4035 15.7499C20.5409 17.1018 19.3452 18.2894 17.9607 19.1678H19.5563H22.9003L23.676 18.2089L23.6759 18.2089L23.679 18.2051C23.9906 17.8276 24.2132 17.5387 24.3555 17.3305C24.405 17.2581 24.4415 17.2003 24.4674 17.1555C24.4413 17.1103 24.4047 17.0519 24.3548 16.9787C24.2121 16.7688 23.9892 16.4774 23.6772 16.0947C23.6772 16.0947 23.6772 16.0946 23.6771 16.0946L22.9015 15.1436H22.3243H21.7855L21.405 15.7475ZM24.5124 17.0665C24.5123 17.0666 24.5117 17.0682 24.5107 17.0713C24.512 17.068 24.5125 17.0665 24.5124 17.0665ZM24.5107 17.2399C24.5116 17.243 24.5123 17.2446 24.5124 17.2446C24.5125 17.2447 24.512 17.2432 24.5107 17.2399Z" stroke="#333333"/>
</svg>
