<svg width="30" height="30" viewBox="0 0 30 30" fill="none" xmlns="http://www.w3.org/2000/svg">
<g clip-path="url(#clip0_66_42)">
<path d="M26.9287 8.88024C26.9475 9.14399 26.9475 9.40899 26.9475 9.67524C26.9475 17.809 20.755 27.1877 9.435 27.1877V27.184C6.09029 27.1886 2.81493 26.2304 0 24.424C1.61145 24.6182 3.24536 24.4928 4.80832 24.055C6.37127 23.6173 7.8326 22.8757 9.10875 21.8727C7.8243 21.8484 6.57957 21.4233 5.5486 20.6568C4.51764 19.8903 3.752 18.8208 3.35875 17.5977C4.28086 17.7755 5.23144 17.7396 6.1375 17.4927C4.74467 17.2112 3.49208 16.4566 2.59217 15.3568C1.69225 14.2571 1.20039 12.88 1.2 11.459V11.3815C2.05601 11.8585 3.01422 12.1226 3.99375 12.1515C2.69058 11.2813 1.76802 9.94723 1.41387 8.42079C1.05973 6.89435 1.30061 5.29032 2.0875 3.93524C3.63326 5.83668 5.56164 7.39176 7.74744 8.49952C9.93324 9.60728 12.3276 10.2429 14.775 10.3652C14.4701 9.04627 14.6081 7.6636 15.1677 6.43092C15.7273 5.19823 16.6773 4.18415 17.8708 3.5454C19.0644 2.90664 20.4351 2.67877 21.7712 2.897C23.1072 3.11522 24.3342 3.7674 25.2625 4.75274C26.6415 4.48082 27.9639 3.9752 29.1725 3.25774C28.7131 4.68334 27.7514 5.89343 26.4663 6.66274C27.686 6.51829 28.8771 6.19174 30 5.69399C29.1735 6.92997 28.1335 8.00889 26.9287 8.88024Z" fill="#1D9BF0"/>
</g>
<defs>
<clipPath id="clip0_66_42">
<rect width="30" height="30" fill="white"/>
</clipPath>
</defs>
</svg>
