<svg width="24" height="24" viewBox="0 0 24 24" fill="none" xmlns="http://www.w3.org/2000/svg">
<path fill-rule="evenodd" clip-rule="evenodd" d="M14.2385 3.88424C14.2561 3.78732 14.2545 3.68788 14.2337 3.5916C14.2129 3.49531 14.1733 3.40407 14.1172 3.32307C14.004 3.15949 13.8304 3.04759 13.6347 3.01199C13.5378 2.99436 13.4384 2.99599 13.3421 3.01679C13.2458 3.03759 13.1545 3.07715 13.0736 3.13322C12.91 3.24644 12.7981 3.42001 12.7625 3.61574L12.599 4.51574C12.3997 4.50476 12.2001 4.49951 12.0005 4.49999C9.17372 4.49999 7.17797 5.49074 5.67122 6.89999C4.25672 8.22224 3.28622 9.90599 2.45372 11.3505L2.35097 11.5282C2.28747 11.6379 2.25278 11.7619 2.25016 11.8886C2.24754 12.0153 2.27706 12.1405 2.33597 12.2527C3.79097 15.0202 5.67347 18.4462 9.91097 19.3005L9.76247 20.1157C9.74484 20.2127 9.74647 20.3121 9.76727 20.4084C9.78807 20.5047 9.82763 20.5959 9.88369 20.6769C9.93976 20.7579 10.0112 20.8271 10.094 20.8804C10.1768 20.9338 10.2693 20.9704 10.3662 20.988C10.4631 21.0056 10.5626 21.004 10.6589 20.9832C10.7551 20.9624 10.8464 20.9228 10.9274 20.8668C11.0084 20.8107 11.0775 20.7392 11.1309 20.6564C11.1843 20.5736 11.2208 20.4812 11.2385 20.3842L14.2385 3.88424ZM10.1795 17.8245L10.469 16.2322C9.46995 15.8694 8.63156 15.1647 8.10224 14.243C7.57292 13.3213 7.38681 12.242 7.57686 11.1963C7.76692 10.1505 8.32087 9.20578 9.14066 8.52927C9.96044 7.85276 10.9932 7.48815 12.056 7.49999L12.3282 6.00524C12.219 6.00175 12.1097 6 12.0005 5.99999C9.57722 5.99999 7.94147 6.83024 6.69572 7.99499C5.51597 9.09824 4.67297 10.5082 3.85697 11.919C5.28197 14.5965 6.88172 17.1457 10.1795 17.8245ZM11.7822 9.00824C11.1186 9.0563 10.4898 9.3236 9.99471 9.76809C9.49962 10.2126 9.16634 10.8091 9.0473 11.4637C8.92827 12.1183 9.03023 12.7939 9.33714 13.3842C9.64405 13.9746 10.1385 14.4461 10.7427 14.7247L11.7822 9.00824Z" fill="#42526E"/>
<path d="M15.0713 5.71054C15.1132 5.62138 15.1723 5.54137 15.2452 5.47506C15.318 5.40875 15.4033 5.35745 15.496 5.32409C15.5887 5.29073 15.687 5.27596 15.7854 5.28063C15.8839 5.28529 15.9804 5.3093 16.0695 5.35129C18.8445 6.65854 20.3318 9.24079 21.531 11.3228L21.6495 11.5283C21.713 11.6379 21.7477 11.7619 21.7503 11.8886C21.7529 12.0153 21.7234 12.1406 21.6645 12.2528C20.1555 15.1215 18.1875 18.6998 13.611 19.3845C13.4143 19.414 13.2139 19.3641 13.054 19.2458C12.8941 19.1275 12.7877 18.9505 12.7583 18.7538C12.7288 18.5571 12.7787 18.3567 12.897 18.1968C13.0153 18.0369 13.1923 17.9305 13.389 17.901C16.9815 17.3633 18.6578 14.7113 20.1435 11.9198C18.9375 9.83554 17.6708 7.76403 15.4305 6.70878C15.3414 6.66685 15.2613 6.60775 15.195 6.53488C15.1287 6.46201 15.0774 6.37679 15.0441 6.28409C15.0107 6.19139 14.9959 6.09302 15.0006 5.99461C15.0053 5.89619 15.0293 5.79967 15.0713 5.71054Z" fill="#42526E"/>
<path d="M14.5498 9.15C14.709 9.03066 14.909 8.97941 15.1059 9.00754C15.3028 9.03567 15.4805 9.14087 15.5998 9.3C16.1851 10.0784 16.501 11.0261 16.4999 12C16.5004 12.6986 16.3381 13.3878 16.0257 14.0127C15.7134 14.6376 15.2597 15.1811 14.7006 15.6C14.6218 15.6591 14.5321 15.7022 14.4367 15.7267C14.3413 15.7512 14.242 15.7566 14.1444 15.7427C14.0469 15.7288 13.953 15.6959 13.8682 15.6457C13.7835 15.5955 13.7094 15.5292 13.6502 15.4504C13.5911 15.3716 13.548 15.2819 13.5235 15.1865C13.4991 15.0911 13.4936 14.9917 13.5075 14.8942C13.5214 14.7967 13.5544 14.7028 13.6045 14.618C13.6547 14.5332 13.7211 14.4591 13.7998 14.4C14.1728 14.1209 14.4754 13.7586 14.6838 13.342C14.8921 12.9253 15.0003 12.4658 14.9999 12C14.9999 11.3235 14.7771 10.7025 14.3999 10.2C14.3408 10.1212 14.2978 10.0315 14.2733 9.93614C14.2489 9.84073 14.2435 9.74144 14.2574 9.64394C14.2713 9.54644 14.3043 9.45263 14.3545 9.36788C14.4047 9.28313 14.4711 9.2091 14.5498 9.15Z" fill="#42526E"/>
</svg>
