<svg width="24" height="24" viewBox="0 0 24 24" fill="none" xmlns="http://www.w3.org/2000/svg">
<path fill-rule="evenodd" clip-rule="evenodd" d="M12 7.5C10.8065 7.5 9.66193 7.97411 8.81802 8.81802C7.97411 9.66193 7.5 10.8065 7.5 12C7.5 13.1935 7.97411 14.3381 8.81802 15.182C9.66193 16.0259 10.8065 16.5 12 16.5C13.1935 16.5 14.3381 16.0259 15.182 15.182C16.0259 14.3381 16.5 13.1935 16.5 12C16.5 10.8065 16.0259 9.66193 15.182 8.81802C14.3381 7.97411 13.1935 7.5 12 7.5ZM9 12C9 11.2044 9.31607 10.4413 9.87868 9.87868C10.4413 9.31607 11.2044 9 12 9C12.7956 9 13.5587 9.31607 14.1213 9.87868C14.6839 10.4413 15 11.2044 15 12C15 12.7956 14.6839 13.5587 14.1213 14.1213C13.5587 14.6839 12.7956 15 12 15C11.2044 15 10.4413 14.6839 9.87868 14.1213C9.31607 13.5587 9 12.7956 9 12Z" fill="#42526E"/>
<path fill-rule="evenodd" clip-rule="evenodd" d="M12.0005 4.5C9.17372 4.5 7.17797 5.49075 5.67122 6.9C4.25672 8.22225 3.28622 9.906 2.45372 11.3505L2.35097 11.5283C2.28747 11.6379 2.25278 11.7619 2.25016 11.8886C2.24754 12.0153 2.27706 12.1406 2.33597 12.2527C3.17897 13.8547 4.16747 15.6743 5.65097 17.0798C7.16597 18.5145 9.17597 19.5 12.0005 19.5C14.8257 19.5 16.8342 18.5145 18.35 17.0798C19.8335 15.6743 20.822 13.8547 21.665 12.2527C21.7239 12.1406 21.7534 12.0153 21.7508 11.8886C21.7482 11.7619 21.7135 11.6379 21.65 11.5283L21.548 11.3505C20.7155 9.906 19.745 8.223 18.3297 6.89925C16.8222 5.49075 14.8272 4.5 12.0005 4.5ZM6.68297 15.99C5.49797 14.8695 4.65047 13.413 3.85697 11.919C4.67297 10.509 5.51597 9.09825 6.69572 7.995C7.94222 6.83025 9.57722 6 12.0005 6C14.4237 6 16.0595 6.83025 17.3052 7.995C18.485 9.0975 19.328 10.5083 20.144 11.919C19.349 13.413 18.5015 14.8695 17.318 15.99C16.0692 17.1735 14.4252 18 12.0005 18C9.57572 18 7.93172 17.1735 6.68297 15.99Z" fill="#42526E"/>
</svg>
